<?xml version="1.0" encoding="UTF-8"?><svg xmlns="http://www.w3.org/2000/svg" viewBox="0 0 440.41 441.46"><g id="a"/><g id="b"><g id="c"><g><g><path d="M188.06,337.46s-.01,0-.02,.02h-.01s.02-.01,.03-.02Z" style="fill:#14263f;"/><path d="M346.83,344.93c-.24,.05-.48,.1-.72,.15-2.01,.33-4.02,.66-6.03,.97,2.28-.38,4.52-.74,6.75-1.12Z" style="fill:#14263f;"/><path d="M188.03,337.48h.01s.01-.02,.02-.02c-.01,.01-.02,.01-.03,.02Z" style="fill:#14263f;"/><path d="M439.62,13.18c1.25-11.07-13.68-11.33-20.98-11.33-21.84,.94-43.39-2.74-65.26-1.65C238.69,1.58,123.99,3.16,9.3,4.73c1.79,.44,3.58,.88,5.37,1.32-4.71-.15-9.46,.89-13.69,2.99,1.25-.05,2.5-.09,3.75-.14l.11,7.97h0v.04C-4.01,152.23,.61,305.79,8.11,439.9c142.1-5.33,317.04,4.53,431.01,.6,6.7-175.38-15.64-283.93,.5-427.32Zm-93.51,331.9c-2.01,.33-4.02,.66-6.03,.97,2.28-.38,4.52-.74,6.75-1.12-.24,.05-.48,.1-.72,.15Zm-158.07-7.6h-.01s.02-.01,.03-.02t-.02,.02Zm118.7-180.52c23.99,9.19-13.98,33.81-17.59,12.79-.11-6.9,3.39-1.06,7.11-.06,3.95,2.86,14.48-.29,10.76-5.94-6.65-5.87-14.28-5.61-19.42,1.31-.29-9.01,12.31-11.1,19.14-8.1Z" style="fill:#14263f;"/></g><path d="M164.44,258.38c-8.13,2.01-16.49,2.84-24.79,2.47,6.83-2.67,14.19-3.87,21.85-3,.98,.12,1.96,.3,2.94,.53Z" style="fill:#ceb034;"/><path d="M219.58,217c-11.18,19.18-28.17,32.34-47.04,38.96,1.41-2.01,2.89-3.95,4.44-5.82,9.28-11.33,25.12-24.19,42.6-33.14Z" style="fill:#ceb034;"/><path d="M229.62,212.37c-2.65,8.27-7.57,19.91-13.59,18.36,2.67-4.89,4.88-10.02,6.69-15.29,2.28-1.1,4.59-2.13,6.9-3.07Z" style="fill:#ceb034;"/><path d="M306.74,156.96c-6.83-3-19.43-.91-19.14,8.1,5.14-6.93,12.77-7.18,19.42-1.32,3.72,5.65-6.81,8.8-10.76,5.94-3.72-1-7.23-6.84-7.12,.06,3.62,21.02,41.58-3.6,17.6-12.79Z" style="fill:#eee;"/><g><path d="M111.93,332.39s.08,.06,.12,.09c-.04-.03-.08-.06-.12-.09Z" style="fill:#eee;"/><path d="M106.07,335.21c-.65-.52-1.27-1.08-1.87-1.66,.58,.58,1.19,1.14,1.87,1.66Z" style="fill:#eee;"/><path d="M103.42,320.9c0-.25,0-.51,.02-.77-.02,.25-.02,.51-.02,.77Z" style="fill:#eee;"/><path d="M103.43,321.16c0-.09,0-.18,0-.27,0,.09,0,.18,0,.27Z" style="fill:#eee;"/><path d="M373.42,230.76c-11.43-7.38-26.36-11.04-39.37-5.95-8.12,2.98-15.03,8.22-21.63,13.34l-4.71,3.72c-1.57,1.17-3.01,2.6-4.77,3.47-7.16,2.7-9.51-9.98-10.47-14.91-1.33-8.55-5.44-16.37-13.5-20.48-14.15-7.04-32.07-4.6-49.35,2.42-2.31,.94-4.62,1.97-6.9,3.07-1.05,.5-2.1,1.02-3.14,1.56-17.48,8.95-33.32,21.81-42.6,33.14-1.55,1.87-3.03,3.81-4.44,5.82-.96,1.35-1.88,2.73-2.76,4.14-1.74-.73-3.54-1.31-5.34-1.72-.98-.23-1.96-.41-2.94-.53-7.66-.87-15.02,.33-21.85,3-9.6,3.74-18.18,10.39-25.13,18.24-1.06,1.2-2.09,2.43-3.08,3.69-2.38,3.02-4.53,6.18-6.41,9.38-6.31,11.06-11.7,25.92-4.1,37.52,.91,1.37,1.98,2.62,3.17,3.76,.01,.02,.02,.04,.04,.05,.06,.06,.12,.12,.18,.17,.26,.25,.53,.5,.8,.74,.1,.1,.2,.19,.3,.27,.16,.14,.32,.28,.49,.41,.05,.05,.1,.09,.16,.13,.02,.02,.04,.04,.06,.05h0s.01,0,.02,.02c5.75,3.5,11.92,6.3,18.3,8.43,18.21,6.01,38.71,6.95,56.76-.02,.89-.33,1.77-.69,2.65-1.07,.11-.04,.16-.14,.16-.24,0-.18-.16-.37-.38-.25t-.02,0c-20.61,8.97-45.18,5.23-64.6-5.15-2.42-1.34-4.77-2.82-6.97-4.5,.72,.55,1.45,1.09,2.19,1.61-.34-.23-.69-.47-1.03-.71-1.26-.9-2.48-1.91-3.65-2.96,.09,.08,.18,.16,.27,.22-.7-.66-1.45-1.33-2.19-2.03-.23-.23-.46-.46-.68-.69-.31-.32-.62-.63-.91-.96,.04,.06,.09,.11,.14,.16-.07-.07-.15-.15-.22-.23,.03,.02,.05,.05,.08,.07-.07-.07-.14-.15-.2-.22l-.04-.04c-.97-1.16-1.76-2.42-2.16-3.88,.05,.22,.12,.44,.19,.65-.11-.32-.22-.64-.29-.98-.04-.16-.05-.32-.07-.48,.04,.28,.1,.55,.17,.81-.13-.55-.2-1.11-.22-1.67,0,.19-.01,.38,0,.57-.12-1.06-.03-2.11,.21-3.14-.03,.13-.05,.26-.06,.39,.51-2.71,1.93-5.26,3.07-7.74,6.61-13.08,18.42-23.78,32.38-28.35,3.84-1.24,7.73-1.95,11.66-1.99,2.47,.06,5.76,.14,7.72,1.47,2.04,1.42,2.79,3.96,3.94,6.16,2.27,4.94,7.46,9.39,13.41,7.77,6.29-1.69,9.83-6.89,13.85-10.95l7.57-7.84c11.91-12.21,26.24-22.65,41.89-29.2,5.45-2.13,10.83-4.14,16.6-4.49,3.64,.07,4.82,1.29,6.95,4.92,1.77,2.93,3.54,9.69,4.83,13.65,3.5,11.94,11.22,22.89,25.11,22.79,8.48-.1,14.88-4.55,20.83-9.68,5.64-4.92,10.24-10.35,15.38-15.18,4.32-3.91,8.35-7.27,13.99-8.07,15.37-1.45,28.64,14.48,33.19,27.9,4.58,12.53,5.36,28.22-3.8,38.95-9.67,10.63-24.96,13.53-38.73,14.69-28.57,1.78-57.12-1.55-85.64-2.92-14.56-.72-29.45-1.25-43.83,1.41-1.23,.22-2.45,.46-3.67,.73-.39,.08-.77,.18-1.16,.27-.03,.01-.06,.01-.09,.02-.36,.08-.71,.17-1.06,.25-1.14,.28-2.28,.6-3.39,.96,.15-.05,.31-.09,.47-.13-.71,.22-1.42,.45-2.12,.7,.52-.2,1.04-.38,1.57-.55-.92,.22-1.79,.55-2.62,.93-.03,0-.05,.01-.08,.02-.71,.27-1.43,.66-2.16,1.07-.01,.01-.02,.01-.02,.01-.4,.23-.79,.46-1.19,.69-.14,.08-.27,.15-.41,.23-.02,.01-.03,.02-.05,.03-1,.54-2.03,1.05-3.12,1.41h.02c.45-.11,.91-.22,1.36-.33,8.38-2.02,17.11-2.8,26.08-2.77h.01c.5,0,1.01,0,1.52,0h.64c.18,.01,.36,.01,.54,.02h.04c11.38,.23,23.11,1.69,34.97,3.51,.04,.01,.08,.01,.12,.02l3.39,.54c7.92,1.25,15.88,2.62,23.84,3.87,.19,.03,.37,.06,.56,.09h.03c.51,.08,1.03,.16,1.54,.24,7.3,1.19,14.67,2.18,22.06,2.81,9.19,.84,18.27,1.14,27.13,.51,.04-.01,.08-.01,.11-.01,2.31-.17,4.61-.4,6.88-.71,3.48-.4,6.95-.95,10.41-1.64-2.01,.33-4.02,.66-6.03,.97,2.27-.37,4.52-.73,6.74-1.11-.23,.05-.47,.1-.71,.14,1.06-.17,2.11-.34,3.17-.51,11.8-1.78,23.42-5.86,32.73-13.58,31.32-25.08,24.54-79.25-8.59-100.23Z" style="fill:#eee;"/></g><path d="M114.51,279.1c-1.06,1.2-2.09,2.43-3.07,3.69-57.74-1.72-95.75-83.13-60.1-130-18.54,50.63,12.77,110.63,63.17,126.31Z" style="fill:#c4d37b;"/><path d="M231.41,206.11c-.34,1.41-.95,3.67-1.78,6.27-2.32,.94-4.62,1.96-6.9,3.06-1.05,.5-2.1,1.02-3.14,1.56-17.48,8.95-33.32,21.81-42.61,33.15-1.55,1.87-3.04,3.81-4.44,5.82-.96,1.35-1.88,2.73-2.76,4.14-1.74-.73-3.53-1.32-5.33-1.73-.98-.23-1.97-.41-2.95-.53-7.66-.87-15.01,.34-21.83,3-27.63-1.22-54.6-15.83-70.07-45.26-11.13-21.11-12.05-48.08-.59-69.21,12.66-24.05,38.44-38.4,64.67-41.77,1.48-.17,2.96-.32,4.43-.45-30.27-11.38-75.37,17.18-90.23,43.17l-.23-.1c4.39-11.7,13.24-21.15,23.28-28.34,10.08-7.23,21.39-12.54,32.91-17.03,0,0,.06,.12,.08,.18,12.64-4.47,31.21-9.46,43.88-5.62,3.67,1.15,7.03,4,7.87,7.87l.21,.95c.29,1.05-.63,1.92-1.36,2.5-3.15,2.32-7.03,3.08-10.29,5.18-14.34,8.31-27.08,20.17-34.3,35.25-11.75,23.07-7.57,53.77,14.93,68.62,13.05,8.36,29.35,9.68,44.46,8.32,10.12-1.06,20.2-3.92,28.85-9.38,8.73-5.41,15-13.81,23.08-20.1,2.98-2.41,5.89-4.98,9.32-6.75,.47-.16,.98-.47,1.49-.22,.66,.54,.82,1.45,.99,2.24,.64,5.12-.53,10.24-1.64,15.21Z" style="fill:#c4d37b;"/><path d="M266.16,105.91c-5.37-4.64-10.33-9.04-13.18-16.29-5.73-14.81-13.17,15.29-25.52,17.85,9.33,0,15.07-9.37,21.01-15.58,3.62,6.71,7.72,13.16,12.27,19.28-5.42,3.6-10.17,8.21-13.93,13.52-2.34-5.77-10.64-13.53-16.74-15.93,5.07,6.96,9.28,25.42,15.24,28.69,8.57,.8,12.12-18.13,20.34-20.77,9.7-1.26,6.45-6.79,.51-10.77Z" style="fill:#c4d37b;"/></g></g></g></svg>