<?xml version="1.0" encoding="UTF-8"?><svg xmlns="http://www.w3.org/2000/svg" viewBox="0 0 402.87 267.63"><g id="a"/><g id="b"><g id="c"><path d="M402.66,7.57c1.89,17.06-9.71,37.07-19.73,50.06-3.01,3.91-5.14,7.7-7.37,12.15-.58,1.15-1.38,2.45-2.66,2.52,1.69,2.42,.74,5.73-.27,8.51l-4.74,13.08c-4.91,13.54-14.56,26.48-21.96,38.82-3.56-1.03-6.15,3.2-7.79,6.53-3.7,7.5-9.32,13.85-14.88,20.09-3.65,4.11-8.16,11.88-13.57,13.58-.69,.22-3.89,10.57-5.83,12.38-3.12,2.92-7.11,2.52-8.52,7.26-.74,2.5-1.21,5.43-3.41,6.82-2.72,1.72-6.42-.11-8.36-2.68-1.99,1.33-1.54,4.29-1.35,6.67s-1.18,5.61-3.5,5.01c.27,2.01,.54,4.09-.05,6.03s-2.28,3.7-4.31,3.68c-1.19-.01-2.41-.61-3.52-.19-1.69,.64-1.77,2.93-1.98,4.72-.65,5.56-5.11,9.8-9.29,13.53-5.65,5.03-16.47,19.37-24.91,18.11,1.71-.76,3.18-2.07,4.12-3.69-1.5,2.29-3.45,4.29-5.69,5.87l-2.82-2.52c-2.63,3.77-6.81,11.93-8.62,3.2-.3,10.04-19.8,12.59-26.92,5.84-3.2,5.15-.14,3.47-5.69,4.25-7.85,1.57-1.28-1.42-2.61-3.99-1.36-2.71-3.47-.31-5.17,.36-3.53,1.38-2.55,2-6.46,1.19-4.41-.92-11.53-3.08-13.82-7.3-.87-1.6-1.57-3.84-3.39-3.9l.68,2.12c-1.19-1.2-1.48-3.2-.67-4.69-2.9,.53-6.11,1-8.62-.53s-3.16-5.99-.45-7.17c-1.67-.34-2.99-1.95-3.01-3.65-1-.22-1.9-.9-2.37-1.81-.98,.61-1.52,1.86-1.28,2.99-1.64-2.04-3.56-3.84-5.69-5.35,.73-.54,1.22-1.4,1.29-2.3l-3.57,.05c.37-.68,.74-1.35,1.11-2.03-4.62-1.23-7.16-5.12-9.34-9.07-.57-1.04-1.16-2.12-1.19-3.31s.68-2.48,1.85-2.68c-1.6-1.6-4.45-1.72-6.17-.25-2.16-4.12-5.97-7.08-8.88-10.71s-4.93-8.76-2.77-12.87c-1.45,1.1-2.9,2.19-4.35,3.29-1.24-3.54-5.31-11.79-9.08-13.44-4.55-1.99-5.49-7.91-5.81-12.86-6.23-.4-11.86-5.43-12.96-11.57-.34-1.89-.4-4.06-1.86-5.3-.95-.81-2.27-.99-3.39-1.56s-2.08-1.92-1.45-3c.31-.53,.91-.81,1.48-1.03,3.79-1.46,8.67-2.22,10.1-6.02l-11.74,2.9c.49,.21,.96-.52,.74-1.01s-.77-.72-1.28-.9c-2.96-1.02-6.02-1.73-9.13-2.1l2.42-3.79c-4.37,.07-3.66-8.03-7.69-9.71-5.14-2.14-6.29-4.4-9.34-9.35l-.97-1.57c-2.12-3.45-4.55-5.98-.23-8.76,1.7-1.1,3.74-2.21,4.14-4.2l-10.43,2.11,.51-4.73-6.44,.59c-.3-1.28,1.08-2.36,2.37-2.63s2.7-.14,3.85-.77,1.66-2.59,.48-3.17c-.37-.18-.79-.18-1.2-.16-3.06,.16-6.08,.96-8.81,2.34-1.2-.38-2.49-.82-3.2-1.87s-.34-2.84,.91-3.04c1.16-.18,2.24,1.07,3.36,.75l-.92-2.9c1.68,.19,1.93-2.72,.52-3.66s-3.26-.68-4.94-.93c-1.99-.3-3.06-1.46-2.51-3.12,2.07,1.67,4.47,3.19,7.32,2.69,2.73-.48,5.08-2.68,5.73-5.38-2.14,1.38-5.08,1.38-7.23,0-4.14-2.65-1.84-12.11-8.91-10.79-2.17,.4-3.93,2.41-4.06,4.61,.5-1.49,.54-3.13,.11-4.63,.43,1.51,5.23-3.83,5.19-5.52-.06-2.95-3.09-5.37-5.23-7.01-2.42-1.87-5.09-3.78-6.11-6.66l3.51-4.68c-1-.06-2.02,.36-2.69,1.11,.96-2.57-2.09-5.58-4.65-4.58,1.79-.52,3.57-1.66,4.09-3.44s-.9-4.07-2.74-3.82c-.52,1.28-2.5,1.29-3.5,.35s-1.29-2.41-1.52-3.77l-1-5.87,6.76,.7c-2.46-.24-7.54,4.77-1.39,5.05-3.48-2.34,.98-2.02,3.33-2.18-1.74-3.11,4.89,1.1,.64,2.9,2.31-1.44,3.99-.49,4.65,1.78-1.66,3.11,4.07,2.3,4.85,4.93-.17-.57-5.86,1.22-6.62,1.67,1.79,1.16,4.09,1.32,6.2,1.97,4.72,1.44,4.4,2.44,6.56,6.44,6.05,11.21,16.83,21.58,24.67,31.64,2.13,2.73,4.23,6.81,1.81,9.28,5.86,1.47,10.46,5.92,14.51,10.41,16.52,18.33,28.89,40.12,45.8,58.09-1.52,.41-2.81,1.59-3.36,3.07,3.98,.51,9.1,2.3,8.85,6.31,3.69,3.3,6.89,7.14,9.49,11.36-.64-.56-1.64,.45-1.41,1.27s1.06,1.27,1.81,1.68c4.77,2.64,8.66,6.81,10.96,11.75,3.29,2.46,5.78,5.96,7.02,9.87,.18,.58-.13,1.56-.64,1.23,8.73,.54,6.86,11.38,12,15.56,23.35,19,37.63,35.38,65.56,12.72,5.64-1.03,5.43,7.46,6.42,.37,19.39-11,33.57-33.04,47.03-50.14,8.66-11,17.27-22.06,26.41-32.67,4.36-5.06,8.89-9.93,13.52-14.74,4.37-4.53,10.5-8.15,13.95-13.42,1.22-1.86,2-3.96,2.81-6.04,7.24-18.52,17.52-40.22,31.27-54.88,9.23-9.84,35.73-83.07,39.17-52.14Z" style="fill:#fff;"/></g></g></svg>