<svg xmlns="http://www.w3.org/2000/svg" viewBox="0 0 1030.08 892.89"><path d="M173,775.24v-.07a6.77,6.77,0,0,1-1,.07Z" style="fill:#0f1625"/><path d="M857.12,775.24h1a6.77,6.77,0,0,1-1-.07Z" style="fill:#0f1625"/><path d="M0,0V892.89H1030.08V0ZM62.51,194.41c.35-.68.68-1.37,1-2.06h0c.37-.78.74-1.57,1.09-2.37a95,95,0,0,0,3.5-9.11c.14-.43.28-.87.41-1.3.67-2.19,1.25-4.39,1.72-6.6q.53-2.47.87-5c.15-1.1.27-2.21.37-3.31a56.1,56.1,0,0,0,.2-6.21c.07-1.78,0-3.64-.06-5.55,0-.41,0-.83-.07-1.24a.65.65,0,0,1,0-.2q-.11-1.63-.27-3.3c-.17-1.73-.36-3.47-.54-5.21s-.38-3.48-.54-5.19L70,136.09h0c-.09-1.13-.17-2.25-.22-3.35-.38-7.61.35-14.4,4.73-18.57,3.13,16.12,12.9,40.22,32,46.86,23.12,8,56-3.14,56-3.14a54.63,54.63,0,0,0-.18-17.4c-.08-.48-.17-.95-.26-1.41l-.24-1.18c-.14-.7-.3-1.39-.46-2.07-.07-.33-.15-.66-.23-1s-.21-.91-.32-1.36-.27-1.16-.4-1.73-.2-.9-.29-1.35c0-.11-.05-.22-.07-.32-.13-.62-.25-1.24-.36-1.87s-.2-1.26-.28-1.9-.13-1.28-.18-1.93c0,0,0,0,0,0a29.8,29.8,0,0,1,0-4c0-.35.05-.7.09-1.06s.07-.71.12-1.07.11-.74.18-1.1c.13-.7.29-1.36.46-2h0c.08-.31.17-.6.26-.88s.19-.56.29-.83c.39-1.07.81-2,1.19-2.77l.24-.5c.08-.16.15-.32.22-.47h0c.15-.3.27-.59.38-.85,0,0,0,0,0,0s.1-.26.14-.39h0c0-.12.08-.24.11-.36h0c0-.12,0-.24.07-.35h0c0-.11,0-.22,0-.33a1,1,0,0,0,0-.18,1.1,1.1,0,0,0,0-.18,1.31,1.31,0,0,0-.09-.34,2.25,2.25,0,0,0-.38-.64c17.42,20.75,79.62,10.15,90.8,9.15,19.3-1.72,100.25-24.7,116.48-29.56,10-3.64,32.6-4.26,42.84-1.33.05-1.9-.06-4.67-.29-7.86,0-.2,0-.39,0-.59-.12-1.62-.27-3.32-.44-5.06,0-.35-.07-.7-.11-1.05-.16-1.56-.34-3.14-.54-4.7-.05-.41-.1-.82-.16-1.22s-.13-1-.2-1.46c-.13-.92-.26-1.82-.4-2.7-.09-.53-.17-1.05-.26-1.56s-.17-1-.25-1.42c-.24-1.27-.48-2.45-.73-3.51.08-4.39,1-9.4,4.06-17,11.42,31.27,71.36,40.14,98.54,19l.17-.13a16.69,16.69,0,0,1-13.41-18.69c1-9.07,8.34-13.74,15.84-14,.44,0,.87,0,1.3,0,7.5.29,14.81,5,15.84,14a16.69,16.69,0,0,1-13.41,18.69l.17.13c27.18,21.1,87.12,12.23,98.54-19,3,7.6,4,12.61,4.06,17-.25,1.06-.49,2.24-.73,3.51-.08.46-.17.94-.25,1.42s-.17,1-.26,1.56c-.14.88-.27,1.78-.4,2.7-.07.48-.14,1-.2,1.46s-.11.81-.16,1.22c-.2,1.56-.38,3.14-.54,4.7,0,.35-.08.7-.11,1.05-.18,1.74-.33,3.45-.44,5.06,0,.2,0,.39,0,.59-.24,3.19-.34,6-.29,7.86C627.7,81.34,650.31,82,660.3,85.6c16.24,4.86,97.19,27.84,116.49,29.56,11.18,1,73.37,11.6,90.8-9.15a2,2,0,0,0-.38.64,1.31,1.31,0,0,0-.09.34c-.17,1,.4,2.09,1.15,3.66.37.8.8,1.71,1.19,2.77a22.64,22.64,0,0,1,1,3.69c.06.36.12.72.17,1.1s.09.72.13,1.07l.09,1.06a31.55,31.55,0,0,1,0,4s0,0,0,0c-.05.65-.11,1.29-.18,1.93-.16,1.28-.38,2.52-.64,3.77,0,.11,0,.21-.07.32-.09.45-.19.9-.29,1.35s-.26,1.15-.4,1.73-.22.9-.32,1.36-.16.65-.23,1c-.16.68-.32,1.37-.46,2.07l-.24,1.18c-.09.46-.18.93-.26,1.41a54.63,54.63,0,0,0-.18,17.4s32.83,11.19,55.95,3.14c19.1-6.64,28.87-30.74,32-46.86,4.38,4.17,5.11,11,4.73,18.57,0,1.1-.13,2.22-.22,3.35h0c-.19,2.26-.44,4.58-.69,6.9-.19,1.74-.38,3.49-.54,5.21q-.17,1.67-.27,3.3c0,.06,0,.13,0,.2,0,.41,0,.83-.07,1.24-.1,1.9-.14,3.77-.07,5.55a58.66,58.66,0,0,0,.21,6.21c.09,1.1.21,2.21.37,3.31.22,1.65.52,3.3.87,5,.47,2.21,1,4.42,1.72,6.6.13.43.27.87.41,1.3a89.94,89.94,0,0,0,3.5,9.11c.35.8.72,1.59,1.09,2.37h0c.33.69.66,1.38,1,2.06,7.67,15.32,18.83,28.56,28.19,36.17l-22.39.11-5.54,0h-.57v.5c-6.16,0-11.92,3.16-17.65,5.63-2.22,1-6.14.16-4.62,2.84.9,1.6,2.57,2,4,3,1.21.82,2.19,2.95,3.43,3.37,1.07.37,1.66.33,2.22,1.37.13.25.35,2.62-.08,2.62,1.25.23,2.68.73,3.06,1.94s-.66,2.64-1.72,3.56c-2.65,2.31-5,4.45-7.52,6.87-2.31,2.21-4.94,2.56-8.06,2.57l-26,0c-2.79,0-5.76,0-8.08-1.59-2.63-1.76-3.94-5.17-6.8-6.51a9.38,9.38,0,0,1-2.11-1c-.61-.5-1.94-2.67-1.86-3.45a3.53,3.53,0,0,1,2.67-2.51,2.5,2.5,0,0,1-.37-2.47c.55-1.19,2.09-1.26,3.07-2s1.64-2.12,2.87-2.79c.93-.5,1.1-1,2.09-1.29.75-.25,2.18-.64,2-1.84s-2.5-1.9-2.86-2c-4.09-1.62-10.48-1.74-16.49-1.74H141.67c-6,0-12.4.12-16.49,1.74-.36.14-2.64.86-2.86,2s1.2,1.59,2,1.84c1,.33,1.16.79,2.09,1.29,1.23.67,1.78,2,2.87,2.79s2.52.79,3.07,2a2.5,2.5,0,0,1-.37,2.47,3.53,3.53,0,0,1,2.67,2.51c.08.78-1.25,2.95-1.86,3.45a9.38,9.38,0,0,1-2.11,1c-2.86,1.34-4.17,4.75-6.8,6.51-2.32,1.55-5.29,1.6-8.08,1.59l-26,0c-3.12,0-5.75-.36-8.06-2.57-2.52-2.42-4.87-4.56-7.52-6.87-1.06-.92-2.15-2.23-1.72-3.56s1.81-1.71,3.06-1.94c-.43,0-.21-2.37-.08-2.62.56-1,1.15-1,2.22-1.37,1.24-.42,2.22-2.55,3.43-3.37,1.42-1,3.09-1.4,4-3,1.52-2.68-2.4-1.88-4.62-2.84-5.73-2.47-11.49-5.63-17.65-5.63v-.5H60.09l-5.34,0c-7.77,0-14.61-.06-20.43-.1C43.68,223,54.84,209.73,62.51,194.41ZM1015,845.06a25.53,25.53,0,0,1-25.53,25.52h-125a25.07,25.07,0,0,1-7.34-1.08v1.08H173V869.5a25.07,25.07,0,0,1-7.34,1.08h-125A25.53,25.53,0,0,1,15,845.06V819.37a25.47,25.47,0,0,1,13.05-22.26c-2.51-1.07-3.87-2.2-3.87-3.38s1.38-2.33,3.94-3.4A6.7,6.7,0,0,1,23,783.8V782a6.72,6.72,0,0,1,6.72-6.72h4.34a7.89,7.89,0,0,1-7.89-7.89V344.48a12,12,0,0,1,6.95-10.85h0c1.1-.29,2.17-.6,3.21-.95h0a51.35,51.35,0,0,0,9.24-3.94q5.34,2.11,11,3.81A158.54,158.54,0,0,0,102.07,339a158.54,158.54,0,0,0,45.45-6.48A129.31,129.31,0,0,0,173,322l.24-.13H856.88l.24.13a129.31,129.31,0,0,0,25.44,10.56,162.63,162.63,0,0,0,90.9,0q5.68-1.69,11-3.81a51.35,51.35,0,0,0,9.24,3.94h0c1,.35,2.11.66,3.21.95h0a12,12,0,0,1,6.95,10.85V767.35a7.89,7.89,0,0,1-7.89,7.89h4.34a6.72,6.72,0,0,1,6.72,6.72v1.84a6.7,6.7,0,0,1-5.16,6.53c2.56,1.07,3.94,2.21,3.94,3.4s-1.36,2.31-3.87,3.38a25.47,25.47,0,0,1,13,22.26Z" style="fill:#0f1625"/></svg>