<?xml version="1.0" encoding="UTF-8"?><svg xmlns="http://www.w3.org/2000/svg" viewBox="0 0 440.41 441.46"><g id="a"/><g id="b"><g id="c"><path d="M51.34,152.79c-38.42,50.51,8.71,141.14,73.91,128.9-56.55-9.91-93.73-74.77-73.91-128.9Z" style="fill:#c4d37b;"/><path d="M439.62,13.19c1.25-11.07-13.69-11.33-20.98-11.33-21.84,.94-43.39-2.75-65.26-1.66C238.69,1.59,123.99,3.16,9.3,4.73l5.38,1.33c-4.72-.15-9.47,.89-13.69,2.99,129.11-5.56,258.95-1.88,388.22,.42,10.51,1.46,33.55-.84,40.93,3.44-8.99,106.62-6.43,194.1-3.54,308.16-.68,137.02,22.16,103.12-114.93,106.89-63.54,.48-127.21-3.17-190.79-2.9-31.28-.22-62.53-.37-93.8,.42-5.24,.74-8.99-2.68-9.1-8.02C15.68,284.16,15.85,148.84,4.88,16.24-4.03,151.73,.6,305.57,8.11,439.91c142.09-5.34,317.04,4.52,431.01,.6,6.7-175.38-15.64-283.93,.5-427.32Z" style="fill:#eee;"/><path d="M231.41,206.11c-.35,1.41-.95,3.67-1.79,6.27-2.31,.94-4.62,1.97-6.9,3.07-1.05,.5-2.1,1.02-3.14,1.56-17.48,8.95-33.32,21.81-42.6,33.14-1.55,1.87-3.03,3.81-4.44,5.82-.96,1.35-1.88,2.73-2.76,4.14-1.74-.73-3.54-1.31-5.34-1.72-.98-.23-1.96-.41-2.94-.53-7.66-.87-15.02,.33-21.85,3-27.62-1.23-54.58-15.84-70.05-45.26-11.13-21.12-12.06-48.09-.59-69.22,12.66-24.05,38.44-38.4,64.67-41.76,1.48-.18,2.95-.33,4.43-.46-30.27-11.38-75.37,17.18-90.23,43.18l-.23-.11c4.39-11.69,13.24-21.15,23.27-28.33,10.09-7.24,21.4-12.54,32.92-17.04,0,0,.05,.13,.08,.19,12.64-4.48,31.21-9.46,43.88-5.63,3.67,1.16,7.03,4.01,7.87,7.88l.21,.94c.28,1.05-.63,1.92-1.36,2.5-3.16,2.33-7.03,3.09-10.3,5.19-14.34,8.3-27.07,20.16-34.3,35.25-11.74,23.07-7.57,53.77,14.93,68.62,13.06,8.35,29.36,9.67,44.47,8.31,10.12-1.05,20.2-3.92,28.85-9.37,8.72-5.42,14.99-13.82,23.07-20.11,2.99-2.4,5.9-4.98,9.33-6.74,.46-.17,.98-.47,1.48-.22,.67,.54,.83,1.45,1,2.23,.64,5.12-.53,10.24-1.64,15.21Z" style="fill:#c4d37b;"/><path d="M164.44,258.39c-8.13,2.01-16.49,2.84-24.79,2.47,6.83-2.67,14.19-3.87,21.85-3,.98,.12,1.96,.3,2.94,.53Z" style="fill:#ceb034;"/><path d="M219.58,217.01c-11.18,19.18-28.17,32.34-47.04,38.96,1.41-2.01,2.89-3.95,4.44-5.82,9.28-11.33,25.12-24.19,42.6-33.14Z" style="fill:#ceb034;"/><path d="M229.62,212.38c-2.65,8.27-7.57,19.91-13.59,18.36,2.67-4.89,4.88-10.02,6.69-15.29,2.28-1.1,4.59-2.13,6.9-3.07Z" style="fill:#ceb034;"/><path d="M266.16,105.91c-5.37-4.64-10.33-9.04-13.18-16.29-5.73-14.81-13.17,15.29-25.52,17.85,9.33,0,15.07-9.37,21.01-15.58,3.62,6.71,7.72,13.16,12.27,19.28-5.42,3.6-10.17,8.21-13.93,13.52-2.34-5.77-10.64-13.53-16.74-15.93,5.07,6.96,9.28,25.42,15.24,28.69,8.57,.8,12.12-18.13,20.34-20.77,9.7-1.26,6.45-6.79,.51-10.77Z" style="fill:#c4d37b;"/><path d="M306.74,156.96c-6.83-3-19.43-.91-19.14,8.1,5.14-6.93,12.77-7.18,19.42-1.32,3.72,5.65-6.81,8.8-10.76,5.94-3.72-1-7.23-6.84-7.12,.06,3.62,21.02,41.58-3.6,17.6-12.79Z" style="fill:#eee;"/><g><path d="M111.93,332.4s.08,.06,.12,.09c-.04-.03-.08-.06-.12-.09Z" style="fill:#eee;"/><path d="M106.07,335.22c-.65-.52-1.27-1.08-1.87-1.66,.58,.58,1.19,1.14,1.87,1.66Z" style="fill:#eee;"/><path d="M103.42,320.9c0-.25,0-.51,.02-.77-.02,.25-.02,.51-.02,.77Z" style="fill:#eee;"/><path d="M103.43,321.17c0-.09,0-.18,0-.27,0,.09,0,.18,0,.27Z" style="fill:#eee;"/><path d="M373.42,230.77c-11.43-7.38-26.36-11.04-39.37-5.95-8.12,2.98-15.03,8.22-21.63,13.34l-4.71,3.72c-1.57,1.17-3.01,2.6-4.77,3.47-7.16,2.7-9.51-9.98-10.47-14.91-1.33-8.55-5.44-16.37-13.5-20.48-14.15-7.04-32.07-4.6-49.35,2.42-2.31,.94-4.62,1.97-6.9,3.07-1.05,.5-2.1,1.02-3.14,1.56-17.48,8.95-33.32,21.81-42.6,33.14-1.55,1.87-3.03,3.81-4.44,5.82-.96,1.35-1.88,2.73-2.76,4.14-1.74-.73-3.54-1.31-5.34-1.72-.98-.23-1.96-.41-2.94-.53-7.66-.87-15.02,.33-21.85,3-9.6,3.74-18.18,10.39-25.13,18.24-1.06,1.2-2.09,2.43-3.08,3.69-2.38,3.02-4.53,6.18-6.41,9.38-6.31,11.06-11.7,25.92-4.1,37.52,.91,1.37,1.98,2.62,3.17,3.76,.01,.02,.02,.04,.04,.05,.06,.06,.12,.12,.18,.17,.26,.25,.53,.5,.8,.74,.1,.1,.2,.19,.3,.27,.16,.14,.32,.28,.49,.41,.05,.05,.1,.09,.16,.13,.02,.02,.04,.04,.06,.05h0s.01,0,.02,.02c5.75,3.5,11.92,6.3,18.3,8.43,18.21,6.01,38.71,6.95,56.76-.02,.89-.33,1.77-.69,2.65-1.07,.11-.04,.16-.14,.16-.24,0-.18-.16-.37-.38-.25t-.02,0c-20.61,8.97-45.18,5.23-64.6-5.15-2.42-1.34-4.77-2.82-6.97-4.5,.72,.55,1.45,1.09,2.19,1.61-.34-.23-.69-.47-1.03-.71-1.26-.9-2.48-1.91-3.65-2.96,.09,.08,.18,.16,.27,.22-.7-.66-1.45-1.33-2.19-2.03-.23-.23-.46-.46-.68-.69-.31-.32-.62-.63-.91-.96,.04,.06,.09,.11,.14,.16-.07-.07-.15-.15-.22-.23,.03,.02,.05,.05,.08,.07-.07-.07-.14-.15-.2-.22l-.04-.04c-.97-1.16-1.76-2.42-2.16-3.88,.05,.22,.12,.44,.19,.65-.11-.32-.22-.64-.29-.98-.04-.16-.05-.32-.07-.48,.04,.28,.1,.55,.17,.81-.13-.55-.2-1.11-.22-1.67,0,.19-.01,.38,0,.57-.12-1.06-.03-2.11,.21-3.14-.03,.13-.05,.26-.06,.39,.51-2.71,1.93-5.26,3.07-7.74,6.61-13.08,18.42-23.78,32.38-28.35,3.84-1.24,7.73-1.95,11.66-1.99,2.47,.06,5.76,.14,7.72,1.47,2.04,1.42,2.79,3.96,3.94,6.16,2.27,4.94,7.46,9.39,13.41,7.77,6.29-1.69,9.83-6.89,13.85-10.95l7.57-7.84c11.91-12.21,26.24-22.65,41.89-29.2,5.45-2.13,10.83-4.14,16.6-4.49,3.64,.07,4.82,1.29,6.95,4.92,1.77,2.93,3.54,9.69,4.83,13.65,3.5,11.94,11.22,22.89,25.11,22.79,8.48-.1,14.88-4.55,20.83-9.68,5.64-4.92,10.24-10.35,15.38-15.18,4.32-3.91,8.35-7.27,13.99-8.07,15.37-1.45,28.64,14.48,33.19,27.9,4.58,12.53,5.36,28.22-3.8,38.95-9.67,10.63-24.96,13.53-38.73,14.69-28.57,1.78-57.12-1.55-85.64-2.92-14.56-.72-29.45-1.25-43.83,1.41-1.23,.22-2.45,.46-3.67,.73-.39,.08-.77,.18-1.16,.27-.03,.01-.06,.01-.09,.02-.36,.08-.71,.17-1.06,.25-1.14,.28-2.28,.6-3.39,.96,.15-.05,.31-.09,.47-.13-.71,.22-1.42,.45-2.12,.7,.52-.2,1.04-.38,1.57-.55-.92,.22-1.79,.55-2.62,.93-.03,0-.05,.01-.08,.02-.71,.27-1.43,.66-2.16,1.07-.01,.01-.02,.01-.02,.01-.4,.23-.79,.46-1.19,.69-.14,.08-.27,.15-.41,.23-.02,.01-.03,.02-.05,.03-1,.54-2.03,1.05-3.12,1.41h.02c.45-.11,.91-.22,1.36-.33,8.38-2.02,17.11-2.8,26.08-2.77h.01c.5,0,1.01,0,1.52,0h.64c.18,.01,.36,.01,.54,.02h.04c11.38,.23,23.11,1.69,34.97,3.51,.04,.01,.08,.01,.12,.02l3.39,.54c7.92,1.25,15.88,2.62,23.84,3.87,.19,.03,.37,.06,.56,.09h.03c.51,.08,1.03,.16,1.54,.24,7.3,1.19,14.67,2.18,22.06,2.81,9.19,.84,18.27,1.14,27.13,.51,.04-.01,.08-.01,.11-.01,2.31-.17,4.61-.4,6.88-.71,3.48-.4,6.95-.95,10.41-1.64-2.01,.33-4.02,.66-6.03,.97,2.27-.37,4.52-.73,6.74-1.11-.23,.05-.47,.1-.71,.14,1.06-.17,2.11-.34,3.17-.51,11.8-1.78,23.42-5.86,32.73-13.58,31.32-25.08,24.54-79.25-8.59-100.23Z" style="fill:#eee;"/></g></g></g></svg>