<?xml version="1.0" encoding="UTF-8"?><svg xmlns="http://www.w3.org/2000/svg" viewBox="0 0 585.82 439.28"><g id="a"/><g id="b"><g id="c"><g><path d="M538.84,11.87c-.15,.18-.27,.35-.41,.53,.13-.14,.26-.31,.41-.53Z" style="fill:#fff;"/><path d="M573.11,30.34c2.22,3.02-3.67,4.43-5.27,1.61,3.14-4.02-2.88-.78,1.02-6.02-5.45,7.07-6.69-4.52-8.59,2.3,2.23-13.31-26.89-1.17-23.85-12.5-2.33,.89-15.22,3.93-13.51-3.28-3.77,4.35-10.11-.5-8.32,6.98-4.3,4-.52-6.18-4.7-5.83,1.21-3.98,4.91,.99,4.02-3.14,1.66-3.15,7-2.57,7.95-.46,2.23-3.76-3.89-3.92-8.54-2.29,1.19,6.31-6.07,3.81-5.46,.16,3.61-2.02-1.54-.59-3.6-.31-.2-4.69,3.71-.17,4.83-2.93-1.47-9.54-5.77,3.47-5.63-2.96-6.7,1.37,4.49,9.59-5.31,6.1-1.19,2.49,1.33-.16,1.19,2.39-1.16,4.59-6.32,2.48-5.55-2.01,7.89,1.14,.2-14.39-.31-.6-4.6,6.64-2.34-5.19-6.44-4.24,.59,4.46-5.64,5.86-2.99,10.87-2.98,3.22-4.27-1.26-2.84-4.02l-1.45-.07c4.37-2.72-2.49-13.04-4.54-5.61-.17-8.8-1.89,10-6.61-1.5l2.14-2.52c-5.75-1.35-1.26,8.81-7.21,4.95l2.19-1.83c-2.87,.69-.57-4.61-3.55-3.42-.01,2.04-2.25,3.31-1.08,.05-.85,1.78-3.46,2.66-3.06,.41-1.23,1.02-2.74,4.46-4.26,1.43,1.22,3.72,1.49,.02,3.61,1.69,1.32,2.75-2.05,2.59-2.52,3-.43-4.49-5.71,2.24-6.83-3.26l-.51,2.66c-.69-5.09-2.91,1.29-4.63-.22,1.76-8.14-1.91,.45-2.43,3.08-3.04-1.22,.5-4.88-.5-7.52-1.36,3.01-3.45-1.77-4.26,2.07,2.08,1.17-1.37,7.56-2.22,1.15-2.54,2.01-.43,7.79-5.69,5.45-.88-2.34,3.24-1.34,2.1-2.97-3.53-.19-7.13,24.07-6.11,9.63-6.43,2.18,5.2-13.49-1.34-8.31,1.82-5.75-1.75-2.15-4.26-2.74,2.78,2.3-4.86,8.41-4.23,.04-1.44-.87-.14,2.95-2.19,1.79-9.63-5.3-26.09,11.43-31.42,4.14-2.97-2.46-6.1,6.69-7.1,1.86-3.19-1.83-.72,5.66-3.77,.89,1.8,6.53-17.95-3.36-12.34,7.22,.27,3.44-.87-.47-1.74,1.75-1.95-10.72-29.98,1.86-30.12,8.82-1.39,3.33-2.01-3.49-4.5-4.47-3.14,6.7-15.57,1.63-14.85,9.75-2.39,.02-3.46-.69-2.34-3.13-3.33-1.07,1.29,8.63-4.23,3.37,.35-1.33,1.5-.02,1.81-.55,.42-2.03-1.34-.29-1.81-1.45,.6,5.86-13.36,1.44-3.66,6.61-.79,.96-3.61,2.2-2.33,.15-3.35,1.47,.09,3.57-3.96,.45-2.97,8.12-2.99-1.86-6.8-1.11-.44,1.32-2.13,6.13-3.35,2.2-4.55,.15-1.28,7.81-5.46,7.57,.25-6.86-6.45,.46-1.11-2.26,2.49,3.44-12.9-.74-18.94,9.02-1.49-3.42-2.2,1.96-4.5,.66l2.44,2.82c-3.75-.32-1.67,7.19-5.49,4.37-3.44-10.18-2.61,2.22-8.27-.15,.59,1.36,2.45,3.04,1.37,5.25-4.49-2.49-10.49,3.9-8.39-.7-6.77,6.72-17.6,7.65-15.82,17.59-4.58-9.1-6.13,1.68-8.17,5.92-5.16-6.34-5.34,6.32-9.77,.26-2.03,8.66-16.19,19.95-13.79,20.62-4.58-1.13-7.31,15.82-9.13,6.85-2.02,2.34-2.22,14.15-3.81,8.4-6.05,10.32,5.02-.46-2.47,13.53-2.1-4.59-9.18,.67-5.51,3.72-5.05,.82-.44,4.43,.32,8.79-8.46-9.02-.21,17.92-5.06,11.35-7.17-4.14-13.29,1.92-9.27,10.8-6.35,2.12-12.87,10.41-12.74,20.03-5.53-4.18,1.94,2.63-1.44,3.37-1.63-5.04-3.96,8.08-4.87,3.33-1.49,2.19-.66,11.12-3.21,5.28-2.51,1.91,2.96,6.32-2.7,5.52-9.45,24.42-32.82,54.02-25.04,71.13-9.24-3.4-4.15,25.47-8.33,25.57,.88,6.65-6.91,11.1,1.07,16.35-4.6,.38-4.73,2.76-2.94,6.68-5.65,9.02-17.29,32.02-19.76,48.39-9.98-38.78-45.78-94.82-54.29-116.91-3.63-3.2-4.2-9.08-8.55-5.65-7.69,3.02,4.55-3.59-4.35-2.41,3.56-.14-3.17,2.36,.69,2.27-6.21,7.46,6.6,1.39,4.06,6.1-3.11,.46-1.37,2.04-4.48,2.72,5.41-.79,.62,3.46,3,2.69-8.21,4.49,10.92,11.73-1.68,15.24-9.38,8.04,7.2-6.31,6.62,4.59-5.46,1.97,4.68,4.36,6.77,1.85-3.67,3.89-6.51,4.95-10.81,4.29-5.93-5.96-2.9,3.61,4.22,.43-3.14,6.06-4.1,2.41-8.58,6.54,25.09-3.13-7.98,9.3,19.2,4.81-8.48,4.88-16.15,9.06-5.52,8.09-4.74,5.06-6.39,2.97,1.22,2.87-6.62,3.11-4.67,3.61-1.5,6.8-.46-1.73,2.05-3.32,3.42-2.16-5.6,7.52,8.99,5.81-2.45,8.81,9.11,2.22,5.21,3.47,20.29,2.17-5.53,2.35-22.62,5.31-8.96,7.32-10.6,1.55,4.77,11.64,2.16,18.24,7.62,2.9,3.68,25.5,14.62,24.67-4.66,4.99,1.07,14.19,3.23,13.66-3.69,1.08-1.02,8.62,2.5,4.94,2.35,5.36-6.3,14.69,3.06,14.5-.5,2.12-3.49,20.9,.57,18.21,3.88,3.9,12.26-18.1,8.45-3.46,19.96-13.19,43.4-23.49,60.93-39.31,4.83-16.46,3.62-4.22,14.16-9.41,40.27-23.96,79.91-35.04,115.17-56.64-11.71-35.22-136.41,47.71-167.36,62.56,33.5-110.4,66.58-201.29,127.44-276.97,44.08-36.34,129.65-63.87,180.37-79.46,12.36,9.55,45.1-9.59,64.44-4.04,3.91-.79,7.07-8.27,9.21-2.63,6.95,2.54,26.46,2.56,26.87-3.81,1.85,9.21,24.06,1.99,36.56,7.41,10.42-3.46,26.31,10.46,32.94-2.14,6.42,2.82,.19,2.53-2.19,7.07,2.64,1.52,6.68-2.81,7.73,.66,3.31,2.97,6.77-3.95,4.75,1.14,2.13,.55,6.52-.11,3.2-.93,1.39-1.79,3.12-1.15,3.52-4.26-5.67,2.15,1.5-3.6,2.12,.81-5.25,8.7,1.03,2.23,4.59,.69-4.05-.02-4.39-7.11-12.72-5.73ZM198.72,99.22c.17-.28,.38-.61,.6-.98-.12,.49-.3,.87-.6,.98Zm1.85-2.88c.14-.19,.27-.36,.39-.52-.12,.12-.26,.57-.39,.52Z" style="fill:#fff;"/><path d="M534.87,11.15c.76-6.18-2.46,1.91,1.64,3.25,1.21,1.58,1.68-4.27-1.64-3.25Z" style="fill:#fff;"/><path d="M536.62,15.23c-.08,.17-.14,.33-.2,.49,.11-.11,.18-.28,.2-.49Z" style="fill:#fff;"/><path d="M1.57,270.27c-.28,.04-.57,.09-.9,.16,.34-.04,.63-.1,.9-.16Z" style="fill:#fff;"/></g></g></g></svg>