<svg xmlns="http://www.w3.org/2000/svg" viewBox="0 0 596.08 125.88"><defs><style>.cls-1{fill:#034741;}</style></defs><g id="Ebene_2" data-name="Ebene 2"><g id="Ebene_4" data-name="Ebene 4"><path class="cls-1" d="M539.31,101.74l-.1-.16C539.13,101.63,539.15,101.68,539.31,101.74Z"/><polygon class="cls-1" points="558.45 3.54 558.69 3.35 556.59 3.99 558.45 3.54"/><path class="cls-1" d="M552.22,4.34l.42.12,1-.69c-1.47.2-3.15.5-4.72.75s-3,.56-4.07.6a7,7,0,0,0,3.26-.24A25.73,25.73,0,0,1,552.22,4.34Z"/><path class="cls-1" d="M544.29,6h1.43l1.19-.42C546.32,5.74,544.18,5.74,544.29,6Z"/><path class="cls-1" d="M521.78,10.55c-.14,0-.14,0-.16-.07C521.36,10.59,521.27,10.65,521.78,10.55Z"/><path class="cls-1" d="M517.88,10.17l-.14-.06C517.68,10.14,517.74,10.16,517.88,10.17Z"/><path class="cls-1" d="M45,33.52l-.32-.11C44.66,33.46,44.81,33.49,45,33.52Z"/><path class="cls-1" d="M1.94,25.85c.43,0,1.14-.08,1.81-.09A9.35,9.35,0,0,0,1.94,25.85Z"/><path class="cls-1" d="M51.42,34.66l.22.06Z"/><path class="cls-1" d="M564.46,2.15c1.38-.08,2.59.23,2.07.37,2.81-.38,2.87.07,3.24-.66,1.83-.34,3.75.25,1.68.47,1.74-.09,3.49-.17,5.24-.19-1-.11-2.08-.21-3.12-.29.89-.59,5,.48,6-.12-1.9-.14-3.8-.27-5.7-.33l.29-.19-.58,0c0-.06,0-.12,0-.14a2.31,2.31,0,0,0-.69.16c-1.29,0-2.82-.1-3.46-.17.14-.09.05-.26,1.06-.26-3.44-.08-3.9.22-4.22.51s-.48.61-3.3.78A9.67,9.67,0,0,1,564.46,2.15Z"/><path class="cls-1" d="M558.62.87l-2.34.89-4,.09c0,.26-2.88.72-.91.79a10.91,10.91,0,0,1,1.73-.24c-.4.59-5.22.73-4,1.2,3.1-.43,3.58-.33,5.47-.93a40.37,40.37,0,0,1,6.32,0c.85-.12,1-.48,2.05-.58l-.74.05-.15-.85a17.37,17.37,0,0,1-2.77.22c1.54-.41,3.09-.79,4.65-1.16-1.54-.78-6.15-.11-8-.31C558.26.66,554.15.53,558.62.87Z"/><path class="cls-1" d="M9.7,30.6A8.19,8.19,0,0,0,8.3,31C9.69,30.74,9.87,30.68,9.7,30.6Z"/><path class="cls-1" d="M76.12,34.24l.07,0C76.13,34.21,76.12,34.22,76.12,34.24Z"/><path class="cls-1" d="M76.45,34l-.26.16C76.47,34.16,77.48,34.32,76.45,34Z"/><path class="cls-1" d="M526.89,4.43l.7,0A4.87,4.87,0,0,0,526.89,4.43Z"/><path class="cls-1" d="M333.16,55.72l1.27-.3C333.93,55.52,333.52,55.62,333.16,55.72Z"/><path class="cls-1" d="M360.57,45.45l1.77-.72A10.45,10.45,0,0,0,360.57,45.45Z"/><path class="cls-1" d="M511.39,7h-.06l-.29.1Z"/><path class="cls-1" d="M417.34,30.41a7.29,7.29,0,0,0,1.07-.13A2.67,2.67,0,0,0,417.34,30.41Z"/><path class="cls-1" d="M360.25,45.59l.11,0,.21-.12Z"/><path class="cls-1" d="M320.13,56.28l-.79.27A6.83,6.83,0,0,0,320.13,56.28Z"/><path class="cls-1" d="M322.44,58.2c-.28.09-.55.18-.76.27Z"/><path class="cls-1" d="M278.28,64.59l-1.7.32A12.12,12.12,0,0,0,278.28,64.59Z"/><path class="cls-1" d="M317.82,58.71l-.24.18C317.81,58.81,317.91,58.73,317.82,58.71Z"/><path class="cls-1" d="M538.38,5.43l-.1,0,0,.1Z"/><path class="cls-1" d="M542.51,3.69,544,3.43A11.76,11.76,0,0,0,542.51,3.69Z"/><path class="cls-1" d="M442.25,24.36c.48,0,1.57-.18,1.12.1C444.18,24,444,23.64,442.25,24.36Z"/><path class="cls-1" d="M545.31,3.41c.24-.25,7-1.32,1.27-.88.15-.66,3.62-.64,5.13-.92-1.12-.05.52-.45.16-.64a18.89,18.89,0,0,1-2.88.46c-.6-.23,1.27-.6,2.77-.62C549.9.63,554,.13,551.43.08a55.9,55.9,0,0,0-13.11,2.81,59.09,59.09,0,0,1,9.17-1.16l-1,.65c-2.94-.17-4.69.43-7.53.72l6.41-.49c3,.16,1,.42-1.3.82A3.55,3.55,0,0,1,545.31,3.41Z"/><path class="cls-1" d="M537.49,6.52Z"/><path class="cls-1" d="M295.25,61.42a.19.19,0,0,0-.1-.05C294.88,61.44,295,61.45,295.25,61.42Z"/><path class="cls-1" d="M437.11,23.36a14.58,14.58,0,0,0,1.48-.47C438,23.07,437.5,23.22,437.11,23.36Z"/><path class="cls-1" d="M376.37,48.58l.13-.13-.37.18Z"/><path class="cls-1" d="M467.37,20.46c-.37.08-.74.18-1.1.28l-.2.12A5.68,5.68,0,0,0,467.37,20.46Z"/><path class="cls-1" d="M385.32,45.13a4,4,0,0,0,.95-.49A3.78,3.78,0,0,0,385.32,45.13Z"/><path class="cls-1" d="M469.2,21.51c1-.25,1.57-.65,2.52-1a22.62,22.62,0,0,1-3.88.86A3.53,3.53,0,0,1,469.2,21.51Z"/><path class="cls-1" d="M529,4.47l.19-.06Z"/><polygon class="cls-1" points="354.65 49.65 354.66 49.65 354.65 49.65 354.65 49.65"/><path class="cls-1" d="M373.17,47.58l-.49.19Z"/><path class="cls-1" d="M361.22,47.42a19.06,19.06,0,0,0,5.13-2c-.11.14.13.14.62.12,2.59-.86,3.8-1.82,2.34-1.79l-.81.43-1.95,0c-.41,1.12-5.89,2.16-8.7,3.39,1.9-1,3.37-2.33,6.12-2.52l-.41-.39c2.22-.72,4.18-.77,5.29-1.59l-2.58.86,0-.27c-1.84.57-4.09,1.66-5.88,1.87a22,22,0,0,1-6.74,2.64l.1-.14c-2.49,1.62-7.75,1.57-9.7,2.5-1,1.21,4.52-.84,6-.86-1.61.82-3.56.84-2,.95-3.86,1.51-2.57-.08-5.7,1.36l1.92-.26c-1.37.79-3.89,1.17-5.28,2-.05.66,2.5-.65,5.38-1.17l-1.14.79c1.84-.63,3.67-1.34,5.5-2,1.46-1.22-.09-.8,3.27-2.3a3.77,3.77,0,0,1,2.65.63c1.13-.81,4.41-1.89,8.07-2.94Z"/><path class="cls-1" d="M542.81,4.42c.1.42-3.93.55-2.6.86C541.08,5,543.29,4.75,542.81,4.42Z"/><path class="cls-1" d="M543.56,5l-2.37.39,1.7,0C543,5.27,542.94,5.14,543.56,5Z"/><path class="cls-1" d="M543.56,5l.33,0Z"/><polygon class="cls-1" points="544.08 9.42 544.31 9.46 546.5 8.96 546.28 8.92 544.08 9.42"/><path class="cls-1" d="M492.3,9.23a9.6,9.6,0,0,0,2.31-.58C494.34,8.37,493,9,492.3,9.23Z"/><path class="cls-1" d="M51.63,25.68c4.25.61,8.58,1.36,15.15,2.63C61.76,27.31,56.72,26.39,51.63,25.68Z"/><path class="cls-1" d="M51.63,25.68l-2.2-.31Z"/><path class="cls-1" d="M439.65,25.24c4.35-1.61,6.17-2.71,10.68-4.13-6.16,1.05-7.6,3.23-12.78,4.07Z"/><path class="cls-1" d="M438,24.24c3-1,1.23-1,4-1.73l-1.5-.22C441.39,22.66,437.26,24,438,24.24Z"/><polygon class="cls-1" points="420.88 28.59 418.6 29.08 420.43 28.87 420.88 28.59"/><polygon class="cls-1" points="404.96 33.64 407.05 32.76 406.82 32.76 404.73 33.65 404.96 33.64"/><path class="cls-1" d="M402.12,40.93l.87-.34A5.8,5.8,0,0,0,402.12,40.93Z"/><path class="cls-1" d="M403,40.59a19,19,0,0,0,2.55-.73A7.77,7.77,0,0,0,403,40.59Z"/><path class="cls-1" d="M392.22,44l.86-.23c-.8.49-.4.33.33-.08.9-.3.81-.42.88-.55l.51-.35-.7.39C392.7,43.61,391.85,43.89,392.22,44Z"/><path class="cls-1" d="M353.79,47.68c3-.72,2.4-1.2,4.17-1.83-3.37,1-4.11,1-8.14,2.27C353,47.42,353.87,47.28,353.79,47.68Z"/><path class="cls-1" d="M358,45.85l1.18-.37A11.38,11.38,0,0,0,358,45.85Z"/><path class="cls-1" d="M345.09,49.24a12,12,0,0,1,2-.42C347.18,48.42,344.5,49.38,345.09,49.24Z"/><path class="cls-1" d="M336.37,53.05c.6-.13,1.56-.13,1.25.27C338.43,52.92,339.43,52,336.37,53.05Z"/><path class="cls-1" d="M301.21,59.6l1.54-.56-2,.31C301.34,59.33,300.4,60,301.21,59.6Z"/><path class="cls-1" d="M300.36,59.41l.39-.06A1.41,1.41,0,0,0,300.36,59.41Z"/><polygon class="cls-1" points="289.9 62.45 290.15 62.48 292.76 61.94 289.9 62.45"/><polygon class="cls-1" points="277.7 63.07 277.23 63 275.07 63.49 275.55 63.56 277.7 63.07"/><path class="cls-1" d="M139.17,48.61c-.75-.27-1.53-.52-2.44-.76Z"/><path class="cls-1" d="M204.16,62.7a4.86,4.86,0,0,1-1.45.23l3,.33C205.69,63.11,205.37,62.93,204.16,62.7Z"/><path class="cls-1" d="M118,44l-1.18-.35C117.37,43.78,117.72,43.88,118,44Z"/><path class="cls-1" d="M104.16,39.14c3.77,1.2,9.11,3.3,10.24,3.08-.09.07-.07.2.45.43l2.5.18-2.14-.9c2.51.19,10,2.78,11.18,3.56-4.31-1.19-2.41.19-8.21-2.12.21.26,1.19.92-.17.58,7,2.08,13.11,4.44,20.47,6.1-5.46-2.35,3.85.7,2.3-.59l-3.14-.72.32-.11L134.2,47.5c.66.58,1.23.79,1,1.08-5-1.74-1.44-.92-5-2.54l-5.61-1.76.48,0a2.68,2.68,0,0,0-.87-.17l-19-5.95C101.61,37.38,106.88,39.45,104.16,39.14Z"/><path class="cls-1" d="M67.79,29.12l.07-.05C67.72,29.08,67.67,29.09,67.79,29.12Z"/><path class="cls-1" d="M70.2,29.76l3.69.17c-1.83-.44-3.67-.87-5.52-1.26l-.51.4a10.07,10.07,0,0,1,3.21.55Z"/><path class="cls-1" d="M73.53,30.49c0,.42,3.22,1,4,1.1l.59-1c-2.88-.54-2.87.08-1.4.74C74,30.89,75.47,30.33,73.53,30.49Z"/><polygon class="cls-1" points="98.61 36.78 97.76 36.77 99.66 37.43 98.61 36.78"/><path class="cls-1" d="M96.31,36.76h1.45l-1.88-.64A1.19,1.19,0,0,0,96.31,36.76Z"/><path class="cls-1" d="M88.14,33.55l2.78.91C90.12,34.18,89.23,33.88,88.14,33.55Z"/><path class="cls-1" d="M93,35.16l-2.1-.7c.77.27,1.46.52,2.14.79Z"/><path class="cls-1" d="M92.66,34.38l.36.78,2.86,1C95.69,35.64,95.45,35.11,92.66,34.38Z"/><path class="cls-1" d="M80.86,31.33A17.81,17.81,0,0,0,83,32C83.13,31.71,81.62,31.45,80.86,31.33Z"/><path class="cls-1" d="M24.5,23.28a6.67,6.67,0,0,0,1.36.24C25.41,23.42,25,23.35,24.5,23.28Z"/><path class="cls-1" d="M5.26,31.62a.4.4,0,0,0,.25-.16A.47.47,0,0,1,5.26,31.62Z"/><path class="cls-1" d="M.74,32.34l.06,0-.06.07,0,0,0,0A9,9,0,0,1,3,31.94a15.66,15.66,0,0,0,2.26-.32,34.62,34.62,0,0,1-4.52.88Z"/><path class="cls-1" d="M361,52.79l1.74-.64A9.85,9.85,0,0,0,361,52.79Z"/><path class="cls-1" d="M360.71,52.9h.11l.21-.1Z"/><path class="cls-1" d="M362.65,59.43c-1.18.24-2.29-.17-3.17.6C359.85,60.18,361.81,59.55,362.65,59.43Z"/><path class="cls-1" d="M74.25,39.93l.07,0C74.19,39.88,74.14,39.9,74.25,39.93Z"/><path class="cls-1" d="M76.57,40.65l3.58.24L74.83,39.5l-.51.38a9.68,9.68,0,0,1,3.1.65Z"/><polygon class="cls-1" points="103.94 47.85 103.12 47.86 104.95 48.48 103.94 47.85"/><path class="cls-1" d="M96.52,45.6c-.77-.28-1.62-.58-2.67-.91Z"/><path class="cls-1" d="M98.59,46.38l0-.09-2-.69Z"/><path class="cls-1" d="M32.2,32.72a7,7,0,0,0,1.33.26C33.09,32.87,32.64,32.8,32.2,32.72Z"/><path class="cls-1" d="M23.39,32.81c-.05,0-.06.07,0,.07Z"/><path class="cls-1" d="M24.66,32.5l-.28.37L25.75,32l-2.25.29-.11.51C23.58,32.66,24.34,32.33,24.66,32.5Z"/><path class="cls-1" d="M36.18,31.48l-.88-.06a1.13,1.13,0,0,0,.27.48Z"/><path class="cls-1" d="M31.77,31.29l1.26,0A12.3,12.3,0,0,0,31.77,31.29Z"/><path class="cls-1" d="M34,31.43l0-.08-.95,0Z"/><path class="cls-1" d="M29.51,31.31c0-.26-.62,0-.93.05A2.71,2.71,0,0,0,29.51,31.31Z"/><path class="cls-1" d="M6.14,34.78a1,1,0,0,0,.56.13Z"/><path class="cls-1" d="M80.27,42.49l.07,0C80.28,42.46,80.27,42.48,80.27,42.49Z"/><path class="cls-1" d="M80.6,42.29l-.26.16C80.62,42.41,81.62,42.55,80.6,42.29Z"/><path class="cls-1" d="M365.13,51.29l1.78-.63A11.34,11.34,0,0,0,365.13,51.29Z"/><path class="cls-1" d="M364.81,51.41h.11l.21-.11Z"/><path class="cls-1" d="M349.28,64.33h0Z"/><path class="cls-1" d="M362.54,51.57l1.17-.32C363.22,51.36,362.86,51.47,362.54,51.57Z"/><path class="cls-1" d="M351.66,54c.09-.4-2.61.4-2,.29A12.13,12.13,0,0,1,351.66,54Z"/><polygon class="cls-1" points="358.1 59.82 360.24 59.12 357.61 59.8 358.1 59.82"/><polygon class="cls-1" points="281.49 64.52 279.32 64.95 279.79 65.03 281.96 64.6 281.49 64.52"/><path class="cls-1" d="M29.3,30.81a5.23,5.23,0,0,0,1.34.29Z"/><path class="cls-1" d="M576.67,3.18l.59-.1L576.7,3h0v-.1h0V3l-2.52.46.56.07,2-.35v.32h0Z"/><path class="cls-1" d="M2.67,108.44c-.73,0-1.36-.08-1.93-.14v.21l1.78-.05h.15Zm391.65,3.28h0l.05.44Zm0,.44h0v.1h0l.44-.1Zm0,0h0v.1h0l.44-.1Zm0-.44h0l.05.44ZM596,116c-1.26.3-1.25.43-1.27.61s-.1.42-2.8.64c0,.6,1.63.83,4.07.69v-1.44l-.35,0,.35,0Zm-201.7-4.31h0l.05.44Zm0,.44h0v.1h0l.44-.1Zm0,0h0v.1h0l.44-.1Zm-.05-.44.05.44,0-.44Zm201.77-8.16h-4.67c-.79,0-1.5.05-2.19.1-.37-.09-.69-.18-1-.28l.25-.26,0-.06-.27.29,0,0-.2-.06-.62-.21a0,0,0,0,0,0,0,1.36,1.36,0,0,0,.39-.07l-.1.1.77-.06.72-.06-1.59-.07a.84.84,0,0,0,.26-.44l-.16-.1a.24.24,0,0,1-.41.1c.31-.23-.34-.54,0-.87s1,.25,1.13-.52c-.47,0-1.16-.26-1.3.09l.31,0-.54,1c-.08-.31-.57.31-.64-.21a4.65,4.65,0,0,1,.61-.25c-.08-.22-.65,0-.91,0l.34.14a3.89,3.89,0,0,1-1.36.69l-.29,0c-.1-.17-.59-.14-.38-.51s.38.09.3,0c0-.47-.34,0-.51-.36,0,.31-.53.55-.16.86-.13-.12-.3,0-.48.11h-.24l-.1-.07s0,0,0,.07h-.44l.36-.4c.13.07.34,0,.26-.07l0-.21c.5-.57,1-1.18,1.25-1.45l-.1.3c.31-.71.82-.17,1.18-.64h0c0,.06,0,.1.05.11a.47.47,0,0,0,.3-.12c1.55,0,3.12,0,4.73,0l3.7,0,1.72,0v-.42l-.42-.06H596V5.26c-.31.11-.49.19-.46.23l-.43,0c-.62-.25-1.26-.47-1.9-.67,1.39,0,2.14,0,.11-.41-.41,0-.81,0-1.22.07h0s.08,0,.12-.11V4.3c.1,0,.2.09.15,0l-.09-.26-.07.16s-.06,0-.11,0l.08,0-.1.19-.09,0a.27.27,0,0,0,0-.13c-.09.08-.21.14-.3,0a2,2,0,0,1,.52-.57c0-.08-.09-.14-.13-.21l3-.1-3.05,0c0-.06-.08-.13-.13-.19,1.25-.09,2.66-.15,4.11-.19V2.28c-.75,0-1.45.12-2.1.22a1.75,1.75,0,0,0-2,0c-.24.14-.43.28-.61.39l-.9.06c0-.08-.16-.13-.23-.18L590,3a6.33,6.33,0,0,1-2.94-.2,6.61,6.61,0,0,0-3-.27L583,2.36l.06,0h-.13c-.77-.09-1.47-.14-2.09-.18a24.12,24.12,0,0,0-4.12.15V2.9c.74,0,1.42,0,1.8-.06l1.21.18c-1,.15-2,.32-3,.49v0h0v0c-.95.15-1.9.29-2.84.46-3.57.78,1.53.31,1.09.67L576.05,4l.55,0v.83l-.75.11.75-.09v.24H576V6.49c-.61.08-1.36.12-2.08.14h0a4,4,0,0,0-.82-.26c.4-.06,1.69,0,1.88-.13a12,12,0,0,1-2.36,0c-.38-.18-.1-.42,2.42-1-.41.07-1.78.26-3.83.59l-.33.06-.44-.11c.41,0,.67-.06.77.05,1.61-.68,0-.71-2.46-.49l0,1.48a2,2,0,0,0-.93.13.23.23,0,0,1,.12,0c-.18.06-.29.08-.41.11l-.15.07c.23,0,.6-.12.57,0a5.48,5.48,0,0,0-1.17.19l0,.11a3.6,3.6,0,0,0-1.1.32l.46-.1a1.57,1.57,0,0,1,1,.1c-.37.06-.82.12-1.38.17a11.9,11.9,0,0,1,1.25,0h.23a.53.53,0,0,1,0,.13c-.23-.06-.27.06-.37.11.37.14.47.42.82.52a2.48,2.48,0,0,1,0,.27l-.49.07a.62.62,0,0,1-.48-.36l.12.4c-1,.11-2,.16-2.48.17.11-.1,0-.23.67-.35-3,.29-3.38.62-3.64.94l-.12.15c-.7.08-1.3.18-1.84.29a.1.1,0,0,0,0-.09,5.12,5.12,0,0,0-2,.53l-.12-.46a8.12,8.12,0,0,1-1.7.33l-.23-.14L559,9.1a7.9,7.9,0,0,0-3.09-.1,13.48,13.48,0,0,0,1.36-.38,42.21,42.21,0,0,1,6.24,0A12.24,12.24,0,0,0,565,8.05a.35.35,0,0,0-.13.27,1.65,1.65,0,0,1,.36-.33l.25,0-.21,0,0,0h.17a3.2,3.2,0,0,0,.44,0,.48.48,0,0,1-.18,0,.64.64,0,0,0-.35,0l.24-.14a2.17,2.17,0,0,0-.49.19h0L565,8l-.28,0-.17-.85a13.84,13.84,0,0,1-2.72.28l4.53-1.27c-1.53-.7-6,0-7.84-.15,2.28.55-1.76.49,2.64.75l-2.28.93L555,7.81c0,.26-2.85.71-.9.78a12.27,12.27,0,0,1,1.71-.23c-.35.52-4.14.7-4.14,1.06h-.37l.49.11.06,0h0c.86.32-1.74.44,2.06.47l-.44.21c-1-.11-2.16-.22-3.14-.35-1.22-.13-2.18-.29-2.32-.55h0c.25-.22,6.9-1.29,1.26-.86.16-.64,3.59-.65,5.08-.92-1.11-.06.51-.45.16-.64l-.5.09a14.8,14.8,0,0,0-1.5-.07,11.11,11.11,0,0,1,1.88-.18c-1.83-.19,2.25-.67-.33-.73-2.65.34-4.91.68-7,1.07a5.75,5.75,0,0,0,.94-.32c-3.42.24-8.06.49-9.41,1l2.21-.24L536,9c-.24-.29-4.39.75-4.38.21,1.71-.3,3.29-.49,4.63-.7a11.51,11.51,0,0,0-2.67.17l-2.06.24-1.72.24c.77,0,1.53-.13,2.31-.15-2.23.57-4.82,1-7.36,1.52a41.1,41.1,0,0,1-4.65.13,3.87,3.87,0,0,1,1.44-.5c.88-.06,0,.2.11.33.57-.24,2-.76.11-.55l-.28.12a19.69,19.69,0,0,1-3.57.13,5.16,5.16,0,0,0,.94.32c-.91.12-1.15.26-2.11.44a1.89,1.89,0,0,1-.43,0,.76.76,0,0,1-.22.14l-1.37.19c-.5.24-.62.41-.71.57-.37.15-.53.27-.22.3l-.13.1c-1.24.22-3,.76-4.44.93,0-.12,0-.23.52-.46.39-.08.61-.15.44-.17.46-.16,1.12-.38,2.11-.66a.31.31,0,0,0-.15-.19L516,10.41c1.79-.56,3.35-1,4.41-1.25l-1,.44a18,18,0,0,1,4-.95c-.76.33-1.11.6.43.49.54-.3.09-.37.23-.59a28.64,28.64,0,0,0,4.88-1c-.12.12-.48.22.13.14a42.59,42.59,0,0,0,4.68-1,14.58,14.58,0,0,1,4.13-.59l-.37.35c.27-.07,2.15-.55,1.73-.83-2.7.44-3.2.64-5.64.85a14.75,14.75,0,0,1,2.21-.64l.77-.16c.59-.12,1.18-.22,1.72-.29l.11-.54c2-.81,4.17-.25,6.15-1.05l-2.44-.07c.07,0,.26-.06.41-.1a10.14,10.14,0,0,0-2.26.53l-1,.17c.2-.09-1,0-.57.08a10.55,10.55,0,0,1-4.6-.26c-1.71,0,.53-.74.28-1-2.72.47-2.49,1-5.19,1.51-.63,0-.53-.06-.29-.17L527.23,5c-.13-.15-4.8.47-2.1-.33l1.76-.26c-3.85.22-10.49.86-10.39.24-2.1.22-1.47.43-4.78.87-1.45.71.27.82-3.26,1.79L511.33,7c.56-.19,1-.39,1.65-.58L510.05,7c1.82-.55,1.45-.71,1.92-1.21,4.52-.94,5.91-.36,8.25-.55-1.36.54-3.81.84-2.82,1.2-2.35-.09-2.43.89-5.13,1l.48-.23c-2.06.8-2.44.38-4.13,1.07.11-.13-.13-.15-.37-.16-3.78,1,1.22.08-2.52,1.3-3.41.58-1.27-.61-2.25-.67,5.58-1.78-.29-.82,5.79-2.56-.15-.67-2.6-.3-5.9.43,2.22-.13-1.17,1.25,1.79,1.17-4.89,1.27-4.18,2.56-9.79,3.14l.11-.13-2.14,1-3.16.41c1.76-1.13,4.21-1.31,5.63-2-3.94.13-4.92,1.8-9.28,2.74-1.9,0-.82-.35.71-.82s3.53-1,3.44-1.31c-.83.37-3.3.55-3.06.29,4.14-.65,2.39-1,7-1.61-2.17.72.39.15,0,.54a44.33,44.33,0,0,1,7.88-2c.3-.31-.38-.3-1.38-.17s-2.3.4-3.27.5c-3.49,1.34-7.45,1.2-10.08,2.44-3.86,1-.4-.42-.65-.42-3.53.6-1.41.77-2.49,1.15-5.15,1.67-6,.86-9.72,1.75-3,1.38-10.51,3.24-15.79,4.58.57-.4-.18-.39-.55-.52-2.88,1.77-1.86,1.1-5.59,2.77l3.38-.61c-2.61.86-4.55,2.1-7.12,2.29,3.46-.08-4.08,1.8-5.94,2.66-2.77.5-5.28,1.9-6.9,1.83l.35-.15-3.92,1.06.23-.93c-2.78.48-5.88,2.07-4.89,2-2.87.65-1.24.05-1.76-.2,1.51-.73,4.71-2.44,5.88-2.08a2.17,2.17,0,0,0-.95.3c7.44-1.8,2.1-1.67,5.7-3a37.5,37.5,0,0,0-5.43,1.36c-.87.27-4.12,1.54-6.07,2.43a20.36,20.36,0,0,1,5.73-1.36c-1.8.46-1.95,1-3.54,1.2l.45-.28-1.84.87c-.43-.38-5.35,1.41-2.59,0-2.59.9-.77.69-3.11,1.58l4.76-1.25.07.53c-1.61.86-2.14.61-4,1.22l.33.52-3.51.54c.53.24-2.09.88-2.79,1.18-1.92.34-1-.89-4,.57h.25a28.8,28.8,0,0,1-5.4,1.82,5.39,5.39,0,0,1,1.14-.58c-3.7.83-9.22,3.45-11.11,3.13.15-.54,1.73-.74,1.65-1.27,5.76-1,3.65-2,10.31-3.62.65,1,5.32-2.36,6.91-1.63-2.62.65-5.82,2.38-5.33,2.36,2.35-.79,5.65-1.84,7.35-2.22-1.57.07-1.29-.69-.36-1.4-3.73,1.48-10.91,2.86-16.36,4.42l.82.49c-4.52,1.92.37-.81-3.29.27l-1.45,1h-.25L394,36.62c1.88-.6.86-.83,3-1.18,1.91-.35.07.52-.34,1.07-1.28.18-5.54,1.62-3.34.5l-4.52,2.09c-.05-.27,1-.71,1.46-1l-3.53,1.2.1-.13c-2.77,1.16-6.78,2.36-8.83,3.5,5-1-2.16,1.27-1.63,1.52-1.77.46-2.66-.57.92-2.16,1.12.1,3.53-1.19,5.4-1.78a30.94,30.94,0,0,0-5.05,1.64c1.25-.71-2.65.36-2.68.09.19-.27.81-1.09,3.33-1.58,3.65-1.06.56.51,1.61.08,1.16.35,5-1.64,7.31-2.12.25,0-.45.28-.8.43,1.89-.61,5.89-1.84,6-2.38l-4.65,1.79c-1.08.18,1.35-.85-.22-.66a21.92,21.92,0,0,1-3.76,1.21l.21-.28a74.8,74.8,0,0,0-10.71,3.17c-.45,1.22-2,2.31-3.16,3.8-4.95,1.44-10.14,3-15.49,4.2a.5.5,0,0,1-.05.66c-1.57.15-4.27,1.12-4.33.59-1.47.94-5.93,2.6-4.93,2.85l-.6.19c-2.07-.06-5.08.25-10.32,1.48-1,.25-1.09.63-.73,1a32.87,32.87,0,0,0-3.27.51,9.61,9.61,0,0,1,2.73-1.27c-2.71.67-5.44,1.19-8.17,1.79l.58-.39-3.13,1.09c1.78-.55,4.61-1.07,4.05-.4-3.56,1.23-5.75,1.17-8.69,2.55-.18-.93-1.27-.83-.35-1.6a1.25,1.25,0,0,1,.37,0,20.87,20.87,0,0,1,5.26-2.46c-6.81,1.25-5,1.23-11,2.28-.63-.42,5.33-1.75,3.87-1.82l5.6-1a5.84,5.84,0,0,0-1.45.59c3.73-1.28,5.23-1.11,7.95-2.4,1.88-.18-2.73,1.07-.71.7a11.67,11.67,0,0,0-3.9,2.09c4.42-.81,2.32-1.26,6-2.35,1-.05,1.93-.15,2.89-.23,1.65-.52-.62-.14-.75-.27a41.1,41.1,0,0,1,4.4-.9c-.48,0-1.56.12-1.35-.14,2.66-.25,5.11-1.16,7.67-1-1.46,0,1.33-1.31,2.38-1.71l-5.06.5c-3.06.91-5.57,1.53-8.15,2.17s-5.21,1.23-8.51,2.21l.32-.39c-10.74,1.55-8.42,3.49-17.49,5.37-.4-.68-4.18.92-4,.14,2.74-.47,2.13-.65,1.29-.84a15.92,15.92,0,0,1-5.59,1.57c1.06-.58-1.68-.41,1.29-1.09-4.17.6-6.43,1-8.45,2-6.69,1.67-2.15-.47-8.83.84l.95-.41c-1.39.23-2.78.43-4.18.62l1.43.21-4.92,1c-3,.77,1.29.33.93.67l1-.66c2-.1,4.81-.91,5.28-.59-3.28.51-2.44.81-3.72,1.19,1-.2,2.07-.38,3.11-.6l1.07.27a31.19,31.19,0,0,0,7.32-1.42c-1.32,0-2,.72-3.23.58,1.42-.9,5.26-1.55,8.95-2.43.13.15,1.32,0,.84.21a4,4,0,0,1-1.09.22c.34.25-1.72.81,1.83.37-1.17.71-3.68,1.94-3.56,2.08-.45.11-.95.22-1.46.32a3.17,3.17,0,0,1-1.81-.09c-.53-.19-1.06-.41-4.43.08l1-.37-4.21.49,1.42.24-4.95.9c-.28.06-.47.11-.64.16-2.9-.09-2.2.24-4.25.17a14.92,14.92,0,0,1,1.71-.53c-.3.05-1.29.23-2.79.47l-.31,0c1.31-.68-1.22-.59-3.88-.39l-.44.39-.83.14a30.88,30.88,0,0,0-5.65,0l-.25-.08,3.38-1.08.88-.51-4.73.84c.62-.29-1.67,0-.68-.4-.35.06-2,.26-1.61.36l-.45,0c-.38-.09.61-.16,1.14-.23-3.59-.43-1.95.22-2.68.59a6.67,6.67,0,0,1-1.52-.06c0-.16.13-.32,0-.45.71-.16,1.08-.31,0-.3a3.36,3.36,0,0,1-.53.14,6.36,6.36,0,0,0-.78-.06,26.69,26.69,0,0,0-4.62.36s0,0,0,0l-.12,0a17.88,17.88,0,0,1-5.13,0c.62.24,1.23.49.16.66-1-.16-2-.34-2.92-.49a30.19,30.19,0,0,0-5.81-.32h0l-.13,0-.57,0c-.2,0,0,0,.27,0-.33,0-.48.11-.47.18.56,0,.89-.1.9-.18.92,0,2.28,0,2.18.22a7.29,7.29,0,0,0-2.58.17h-.14c-.25-.07-.35-.14-.36-.2l-.88,0a19.48,19.48,0,0,0-4.91-.63l1,.71c-.64,0-1.81.06-3,.06a11.59,11.59,0,0,0-3.64-.45c-.83-.24-1.4-.48.22-.51a17.77,17.77,0,0,0-6.94.35c-.41-.11-.64-.26-.62-.5l-5.74-.32.16-.14a36,36,0,0,0-4-.2h-.06l-.71-.08a.19.19,0,0,1-.08.13c-.53,0-1,.13-1.43.21-.83-.19-.2-.27-.12-.34L202.15,63l.09,0,.47,0-.35,0c0-.06,0-.15-.27-.28a49.8,49.8,0,0,1-5.75-1.12c.7.57-.63.47-2.38.16a45.39,45.39,0,0,0-4.9-.78c-.76-.08-1.51-.17-2.26-.29l-.83-.15c-.15-.13.11-.22,1.41-.17-1.09,0-4.62-.73-4.35-.37-2.71-.46-5.39-1.07-8.08-1.61a3.59,3.59,0,0,1-.65-.3c-.29,0-.35,0-.32.1-11.68-2.54-23.23-5.84-34.81-9.46,1.69.62,3.1,1.27,4.84,1.92-2.84-.2,2.87,1,1.91,1.34a15.68,15.68,0,0,1-4-1.22c-.48.17.93.89.65,1.18,4.28,1.72,5.37.51,9.6,2-.27.31-1.69.23,1.14,1l-.74-.13c4.62.9,3.3,1.78,6.41,1.6l-.21.48A59.15,59.15,0,0,1,165.17,58a1.93,1.93,0,0,0-.46.19L160.77,58c3.86.74,1.2.73.75,1l-1-.21c-.59-.13-1.18-.25-1.78-.36s-.41-.39.63-.22l.36.17c.69-.5-2.15-1-4.12-1.47.7.1,1,.09.15-.34a2.66,2.66,0,0,1-1.11.1c-.51-.15-.84-.3-.78-.43-1.75-.34-3.47-.7-5.2-1.06a37.6,37.6,0,0,0-5.59-1.44c-3.46-1.21,1.75,0,0-.61l-1.23,0c-1.35-.53-1.77-.79-1.65-1A65.24,65.24,0,0,0,129,49c4.11,1-1.54.12,2.44,1.39a46.55,46.55,0,0,1-6.36-1.7c2.42.61-2.89-1.85,2.29.05-.54-.82-2.62-.74-4.93-1.59,1.27.19,4,.69,3.81.56-3.76-.37-11.14-4.17-12.69-4.06-2.72-.32-6.79-1.19-10.08-1.7-3-1.41-6.54-2.23-10-3.42l.7,0c-2-.74-5.16-1.42-8.09-2.39l-.54-.62c-2.08-.45-5.94-1.45-9.09-2.27-.1.25,2.81,1,1.36.91,1.56.42,2.9.72,2.42.29,1.56.42,1.51.87,2.73,1.42-2-.48-4.07-.9-6.11-1.34-.48-.16-.64-.24-.66-.28l-.57.35c-1.56-.4-2-.62-1.68-.76-3.45-.66-4.78-.32-8.36-1.26a16.21,16.21,0,0,1,5.24.48c-1.37-.35-2.75-.63-4.13-.95,2-.06,9.08,1.82,8,.8a137.5,137.5,0,0,0-15.43-2.1,13.4,13.4,0,0,0-3.84-.9c-1.5-.21-3.19-.38-4.94-.77-.46-.19-1.52-.51-.83-.64l1,.13a76.8,76.8,0,0,0-14.29-1.08l-2.11-.72c-3.59-.37-3.27-.12-3,.17.14.14.27.28,0,.38q-3.36-.35-6.73-.58c-6.67-.47-13.36-.74-20-1.43,1.81.32.61.37-.76.4.89.07,0,.43.17.67-1.06-.11-2.12-.19-3.18-.28v3.5A9.83,9.83,0,0,1,3,29.35L.74,30v.58l.67,0-.67.2v.77l.74-.21,1.86-.51c.63-.14,1.25-.26,1.9-.37a21.32,21.32,0,0,1,4.21-.32c-1,.21,0,.28.25.38,1.61-.29,3.5-.48,4.77-.73a.29.29,0,0,1-.08.17c-.17-.06-.28,0-.4.07.27.15.29.36.62.45v.07l-.35,0h.35v.2c-.27,0-.91-.09-.91-.35a4.42,4.42,0,0,0,.52,1.37,1.73,1.73,0,0,1,0,1.61c-.13,0-.14-.18-.23-.1a2.25,2.25,0,0,0,.35.43c-.1,0-.21-.08-.21-.15.13.43-.23.67-.35.92-1,.08-2,.17-3,.28-1.28.13-2.58.29-3.83.48v0c-.24-.36-.37-.12-.55.12l-.62.1A.71.71,0,0,0,5.59,35h0a1.58,1.58,0,0,1,.24-.51c0-.08,0-.15-.19.13a.87.87,0,0,1-.27.49c-.05-.07.17-.42.21-.55s.18-.2.18-.21a.62.62,0,0,1,.1-.31l0,0c-.15.21,0,.1-.11.18-.3.42.06-.13-.27.33a1.59,1.59,0,0,0-.13.22l-.44.59-.24.4A25.42,25.42,0,0,0,.74,36.81l-.14,0,.14,0a20.49,20.49,0,0,1,3.61-.76h.1l-.06.1a.66.66,0,0,1-.15.15h0s0,0,0,0h0l0,0a9.18,9.18,0,0,0-1.13.29c.12.15.45.12.91,0l0,0c.07-.07,0,0,.11,0h0L4,36.8c-.16.22-.53.66-.44.45a.57.57,0,0,0-.07.39h.63l-.63.16-1.41.33-1.37.32v68.36l1.38-.26a0,0,0,0,1,0,0c.39.06.69.08.49,0l-.14,0,.72-.13-.2.1,1.73-.1q.75,0,1.44.06l-.37,0c-1.14.1-2.09.17-2.12.39.8-.39,2,.27,3.15.51-.44,0-.82.09-1.12.14-.45,0-.77.09-.58.18l-.1,0h.22l.38.08a3.76,3.76,0,0,1,.59-.07l.93,0c-.11.28,2.4.29,4.2.36.09,0,.08.09-.06.14.41,0,.86,0,1.32-.06.75.08.77.24-.92.55a14,14,0,0,0-1.62.63c-3.07,0-5.86-.06-8.16,0,.51.08.47.16.15.23H1.27c-.79-.52,3.05-.54,4.69-1-1.61.18-3.4.48-5.16.52l.4-.22-.46,0v4.61l3.43-.41c0,.27-1.65.42-2.4.58l5.32-.25-.2.11c4.28-.41,10.27-.55,13.53-1.12-7.3-.35,3.44-.68,2.83-1h0c2.62,0,3.43,1.23-2.11,1.84-1.51-.37-5.32.25-8.13.35a66.07,66.07,0,0,0,7.6-.29c-2,.36,3.78.33,3.73.59-.38.21-1.55.85-5.2.67-5.45.09-.59-.63-2.19-.48-1.46-.64-7.59.29-10.9.17-.35-.05.73-.15,1.27-.21-1.69.06-4.51.13-6.59.28v.24l4.44-.31c1.55.11-2.18.47,0,.69a49.07,49.07,0,0,1,5.66-.2l-.4.22a150.45,150.45,0,0,0,16-.32c1.09-1.05,3.66-1.73,5.81-2.89,7.38-.19,15.11-.32,23-.29-.13-.22,0-.44.33-.64,2.24.22,6.33-.08,6.22.45,2.39-.58,9.16-1.14,7.85-1.62l.9,0a78.67,78.67,0,0,0,13.07.8c-1.09.34-1.3.54,1.2.24-3.82.93-5.14.38-7.77.9-.1-.09.1-.2.37-.31s.75-.1,1.08-.17c.06-.13-.07-.2-.35-.24a1.65,1.65,0,0,0-.35,0l-.22,0c-1.38,0-4.14.32-7,.23l1.86-.52-8.36.71c-2.45.84-.16.8-5.37,1.47-1.85-.3-3.18-.76-3.47-1.23h0c-1.88.52-6.8.82-12.22.91l2.33-.31a39.38,39.38,0,0,0-7.84.66c.2-.11-.14-.16-.82-.27-3.89.2-5.93.83-3.91,1.16l1.28-.21,2.71.43c1-1,9-.61,13.33-1.14-3,.49-5.55,1.44-9.43.94l.43.48c-3.35.15-6.07-.29-7.92.24l3.9-.2-.06.26c2.76-.09,6.28-.58,8.83-.35a48.08,48.08,0,0,1,10.34-1l-.2.11a30.62,30.62,0,0,1,8.08-.25l3,.16c-1.49.13-3,.23-4.48.29a3.62,3.62,0,0,1,.87-.31c-1.62.36-3.55.65-5.5.9-1.9-.06-2.43-.17-2.26-.42-4.48,0-3.77.6-6.46.8,3.09-.11,4.69-.1,6.85-.14a69.18,69.18,0,0,0-7.38,1.13l1.4,0a18.91,18.91,0,0,1,4.34-.33c-3.51.44,2.55.41-1.16,1-2.56.31-5,.37-7.13.46a22,22,0,0,0-5.37.58c4.9-.11,11.52-.22,13.49-.66l-3.16.18c2.38-.43,4.75-.93,7.12-1.43a14.6,14.6,0,0,0,3.26-.19c1.53-.16,3-.34,3-.07-2.46.38-4.72.53-6.65.76a24.82,24.82,0,0,0,3.82-.17l5.41-.53-3.29.16c2.85-.5,6.11-.94,9.34-1.39l3.36.28c3.13-.15,5.86-.22,8.49-.28l-4.6,1.06,1.43-.49a36,36,0,0,1-6.77,1.22c-2.29.26-4.6.52-6.91,1,.18-.12.71-.22-.16-.15-5.77.54-8,1.65-12.67,1.62l.56-.36c-.39.09-3.11.54-2.54.83,3.89-.41,4.6-.64,8.1-.84a47.45,47.45,0,0,1-6.78,1.09l-.21.55c-2.91.76-6,.14-8.86.88l3.47.14-.41.07a19.55,19.55,0,0,0,3.08-.45c5.16-.63,7.88-.18,8.75.06,2.44,0-.81.74-.49,1,3.9-.44,3.61-1,7.51-1.56.9,0,.76.07.4.17l2.42-.5c.16.17,6.85-.57,2.94.31-.59,0-1.68.22-2.53.28l9.52-.58c3-.22,5.34-.3,5.24,0l.26,0L85.55,123c.57.29.79.52.65.59a1.63,1.63,0,0,0,.48,0v.15h.08v-.18h0v.19h.07l0-.71h-.08l0,.43,0,0,0-.41h-.07l0,.33a12,12,0,0,0-1.08-.63l.2-3.46h.06l-.18,3a9.25,9.25,0,0,1,1,0l0,.72h.09l.06-1.14.08,0-.07,1.11h0l.07-1.1.07,0-.06,1.07H87l3.3-.08.32.09a16.29,16.29,0,0,1-3.66.7h-.1l0,.65.1,0c.29,0,.56-.08.81-.14-.28.08-.55.18-.81.27v0l-.09,0,0,.63.1,0a19,19,0,0,1,4.6-.58l-.11.11a5.67,5.67,0,0,1,1.79-.39,1,1,0,0,1-.27.17,35.31,35.31,0,0,0,6.93.33l4.15.51c5.61-.51,9.13-.3,15.19-.9l-.35.32c8.11.5,8.15-1.09,12.92-1.75a4.83,4.83,0,0,0,2,.23l.36-.12a15.63,15.63,0,0,0,2.44.4c0,.11.25.25.58.4.42-.09.79-.19,1.18-.3.65,0,1.13-.07,1.2-.25h0a11.37,11.37,0,0,1,2.79-.08c-1,.41,1.42.68-1.29.88.87,0,1.63,0,2.33,0,1.09.22,2.83.37,3.72.68-.09-.06-.15-.11-.09-.15l2.38.35c-2.25-.44.38-.7,1.59-.65.89,0,2.64.17,2.39.35l-1.35,0c1.7.41,3.85-.29,5.65.21.08.17-.61.21-.72.31a63.22,63.22,0,0,1,7.09-.47l-1.79.64a20.29,20.29,0,0,1,5.37-.29c2.16,0,4.49.23,6.4.46-.43-.13-1.19-.22-.73-.36,2.24-.14,3.94.37,2.9.74,1.1-.31,3.18-.08,5.38-.06a23.17,23.17,0,0,0,6-.4l4.92-1.51a21.41,21.41,0,0,0,5.92.36c.66-.06-3,.13-2.55-.26,3.67-.63,4.74.83,7.91.62l-.87-.7c.72-.07,2.2-.11,3.3-.15l0-.51,1-.12-.24-5.61a8.14,8.14,0,0,1,2-.27l1.61-.09c0,.08-.13.16-.37.23a12.53,12.53,0,0,1,2.71-.14c.6.36-4.89,1.47-3.89,1.64.35-.33,4.58-.7,6.49-.46l-.45.15a9.49,9.49,0,0,1,3.45-.16,6.72,6.72,0,0,1,1.34-.85,17.43,17.43,0,0,0,3.65-.24l1-.22-.18.06a24.56,24.56,0,0,1,2.72-.2c.38.39-.89.3-2.21.47a3.22,3.22,0,0,0,2.59-.08l-.54,0c1.1-.23,5.16-.87,1.94-1,2.42-.42,3.18.35,4.83.17.17.32-1.35.41-.51.66a22.66,22.66,0,0,0,4,0c-1.28-.11.36-.3-1.66-.5.75-.17,2.64-.24,2.73-.39l.8-.07c-1.07.2.76.41,2.37.52l1.45.06c2.42-.29,6.67-.27,10.57-.28l-1,.08.19.07,1.87-.16c1.09,0,2.13,0,3.07,0-.4.05-1.19.13-.69.25,6.49-.06,9.18.18,16.61-.1l.87-.62.42-.3c0-.19-1.34,0-2.84.13.31-.2.64-.44-1.13-.4-3.58-.31-5.53.6-8.12.51l.8-.08a38.22,38.22,0,0,0-4.3-.06,14,14,0,0,1,2.5-.21,8.39,8.39,0,0,0-1.3-.28c2.56,0,5.71-.39,7.53-.43-3.48-.15-6.48-.89-5.5-1.33-5.44.37-2.94,1.08-3.73,1.56-2.07-.19-4.37-.18-4.45.3a12.05,12.05,0,0,1,4-.31.48.48,0,0,1,.08.16,13.42,13.42,0,0,1-2.38.26l-4.51-.16-.47.25-.49-.08a7.23,7.23,0,0,1-1.42.12,6.24,6.24,0,0,0-.87-.06,3.13,3.13,0,0,1-.4-.08c2.18-.13-1.53-.62.78-.85,3.18-.26,6,.55,7.72-.09-3-.22-7.07-.68-8.3-.37l1.94.06-4.45.79c-.17-.32-3.92.13-3.84-.38,1.53-.08,2.93,0,4.12-.08-.28-.22-4.09-.21-5.7-.26l2,.2c-2.27.27-4.93.3-7.46.38l5.06-1.1a16.47,16.47,0,0,1-1.92.18c-1.4-.62-2.17-.58.07-1.09.48,0,1,0,1.53,0l-.34-.17.51-.06c-.13.1-.45.14.08.16a20.42,20.42,0,0,0,2.76-.13l-.13.09.6,0c0-.07,0-.13-.08-.18a21.69,21.69,0,0,1,3.19-.27l-2.24.51a9.63,9.63,0,0,0,3.28-.44h.06l.39.07-.34.27a7.69,7.69,0,0,0,.91-.15c.9.2,1.22.38-.8.41,5.61.44,7.27-.15,10.33-.47h1.58a1,1,0,0,0-.33-.1,48.11,48.11,0,0,1,6.38.07c-4.38-.39-5.13-.37-8.25-.5a2.24,2.24,0,0,1,.73-.1h0c1.67-.15-.64-.26-.26-.64l.07,0s0,.11.13.19h1.12c3,.33,7.88.34,3.44.61,3.13.18,9.4.57,10.87.37l-2.74-.38c2.61.14,5.2.16,7.3.08a3.88,3.88,0,0,1-.48.07l2.64,0-2.24,1.6-4.18-.25c0,.15.5.32,2.27.52a8.72,8.72,0,0,1,1.87-.25l-2.6,1.85c0,.06-.11.15-.42.3,6-.1,3.55-1.49,4.4-1.84,3.41.07,6,.73,8.22.88-.72-.37-.11-.46,1.13-.42a4.79,4.79,0,0,1-1.63.81c1.57-.18,1.25-.67,3.59-.68l.29,0,.74.06c.6.11-1.53.28-1.75.44,3.38-.7,4.08.32,6.65,0,.64,0,1.2.06,1.61,0l3.3.16,1.24.09c.23.12-.08.22-1.74.27,1.84,0,6.53.39,6.09.07l12,.94a8.41,8.41,0,0,1,1,.24c.42,0,.5-.07.44-.12,17.43,1.38,34.94,2.73,52.55,3.55-2.6-.2-4.84-.55-7.52-.79,4.06-.42-4.39-.36-3.17-.91a36.52,36.52,0,0,1,6,.33c.6-.27-1.63-.66-1.35-1-6.61-.75-7.72.65-14.19,0,.28-.35,2.31-.54-1.94-.77h1.09c-6.82,0-5.23-1.19-9.57-.5l.15-.52c-3.1.17-9.08-.28-12.45-.48l.21-.08c-9.48-.15-5.31-.3-15.91-.89l4.92-.22c-3.63-.55-4.5,0-7.12-.23.05,0,.05-.06.06-.11.23,0,.5.07.88.11l.83-.37a21,21,0,0,1,3.56,0c.05-.13-.49-.21-1.59-.29,1.26-.22,3-.42,5-.57,1.69,0,3.43-.08,5.33-.09l2.82.21c-2,.34-5.77.35-2.7.7,1.25-.11,2.37-.42,3.8-.62l5.67.45c.06,0,.1,0,.09.07l.23,0c5.77.45,11.48.85,15.69.77l-.88-.08,4-.11c2.28.15,0,.7,3.54.75-1.23.53-6.18-.3-9.83-.12,6.18,1-5.79.19-1.7.95,2.45-1,13.27.72,18.73.37,5.27.41-2.44.39.18.59l1.7-.29c2.09.22,2.77.38,2.7.64a108.53,108.53,0,0,0,16.76.14c-6.09.07,2.07-.51-3.93-.7,1.83-.16,5.74-.14,9.44-.09-3.57.1,4.77,1-3.15.6,1.09.62,3.91,0,7.44.11-1.81.22-5.82.48-5.47.56a37,37,0,0,1,4.95-.18c1.88,0,3.91.08,5.85.16s3.76.18,5.24.21a13.71,13.71,0,0,0,3.11-.18c3.84-.6,9.76-1.08,14.44-1.78,2.34.14,4.81.12,7.35,0s5.14-.27,7.77-.32l-.92.28c3,0,7.6-.5,12-.64l1,.39c3-.28,8.64-.76,13.24-1,0-.27-4.21.07-2.22-.38-2.29.14-4.23.33-3.4.56-2.28.15-2.4-.27-4.3-.35l5.07-.52,7.28.41h.09q4.92.27,9.88.5c-1.44-.14-2.66-.43-4.14-.61,1.53-.36-.12-.34-1.13-.47l2.15-.28.57.1a.12.12,0,0,0,0-.17l3.8-.48c3-.41,5.88-.84,8.36-1.25.77.12,2-.26,3.57-.14a28.38,28.38,0,0,0-3,.56c2.94-.69,9.43.69,10.58.13,2.09-.54,5.26-1,7.82-1.49h.5a22.39,22.39,0,0,0,3.2.14l-.84.18c3.57.86,4.52.25,5.68-.32h0l-.5.26c1.13.06,2.69-.11,4.35-.22a12.36,12.36,0,0,1,1.95.36l.77-.12.12.09c1.66-.23,4.78-.47,7.31-.62,0-.18-1-.15-1.38-.22.39,0,.79,0,1.22,0,.71.52.79,1.39,3,1.48l1.53-.44c2.23.09,5.21-.26,6.63.1l-.3,0c2.5.3,2.61-.5.66-.6l2.38-.3.08.16c2.62-.28,5.1-.85,8.71-1.15v.26c-1.35.06-2.52.48-3.14.52.43.24.2.75-.37,1.15-2.61.22-5.36.47-9.11.84l9.08-.82a3,3,0,0,1-.4.23,19.77,19.77,0,0,1,3.25-.39c1.49.51,4,.59,5.11,1-1.61-.92,1.28-.21-1.68-1.14,1.31,0,2.58-.09,3.64-.2l1.11.22c.07-.25,2.25-.17.9-.58a1.83,1.83,0,0,0,.49-.26c.86,0,1.63.08,1.47-.17,2.19,0,4.63-.09,7.09-.07l.65.11-.39-.11H569s0,0,0,0a36.69,36.69,0,0,1,4.46.43,14.49,14.49,0,0,1-3.8,0l-.2.51c-1.68.34-3.21-.68-4.88-.34l1.83.6H566a6.73,6.73,0,0,0,1.82,0,8.85,8.85,0,0,1,3.81.84l-.7,0,.92.11a3.58,3.58,0,0,1,.6.4c1.3.34-.56.6-.45.94,2.15.17,2.1-.43,4.24-.26.48.12.39.21.19.24l1.36-.07c0,.17,3.68.77,1.48.86l-1.38-.21,5.09,1.29c1.64.44,2.92.83,2.8,1.12,1.7.3,1.23,0,4,.37,1.33-.37-.06-.82,3-1-.8-.09-1.6-.18-2.39-.3-.5.06-.91.13-1.44.16.82,0,1.65.07,2.48.09-1.58.12-1.32.36-1.81.73-3.83-.24-4.72-1.14-6.54-1.55,1.16-.17,3.12.14,2.44-.45,1.79.64,2.07-.21,4.21.36l-.43.11c1.8-.28,2,.22,3.52-.1-.12.09.08.16.27.22,3.25-.24-1-.28,2.26-.82a4.12,4.12,0,0,1,.62,0v-8.4a13.61,13.61,0,0,1-2.75-.29l-.11-.06.55-.47c.71.08,1.61.21,2.31.26v-.35c-.73-.22-1.44-.56-1.27-.66.52.14.94.24,1.27.31v-.43a5.74,5.74,0,0,0-1,0l-.19,0,1.2-1ZM592.47,5.13c.55.12,1.13.24,1.78.36l.07,0H594l-.79,0-.8-.18A.6.6,0,0,1,592.47,5.13Zm-.08.25.21.08h-.22A.17.17,0,0,0,592.39,5.38ZM592,5l.22.05a.27.27,0,0,1-.24,0Zm-2.29-.44v.17l-.62,0,.56-.26Zm-.07-1-.25.32-.8-.13C588.86,3.66,589.21,3.59,589.6,3.54Zm-4.11.82-.27.09-.37-.07Zm-.4.28a18.23,18.23,0,0,1,1.85.15c-.55-.12-1-.21-1.51-.3l1-.16,2-.1.23,0c-.5.18-1,.38-1.42.58a24,24,0,0,1-2.42-.12Zm-6.35-1.93-.19-.08.42.06ZM10.45,107.16l-2.25.1a4.67,4.67,0,0,0-.79-.14,27.75,27.75,0,0,1,3.81-.33C10.68,106.94,10.5,107.05,10.45,107.16Zm55.24,5.44c.47-.12.74-.21.51-.23s-.42.16-.65.23a29.82,29.82,0,0,1-3.78-.07c2.52-.42,5.24,0,3.06-.47,5.86-.56,3.58.68,8.32,0-1.06.21-2.41.45-3,.6A39.85,39.85,0,0,0,65.69,112.6Zm7.67-.27h0c-.9.17-1.82.31-2.75.44a.76.76,0,0,0-.29-.09,14.07,14.07,0,0,1,3-.36h0Zm-.14-.3-2.75-.16a16,16,0,0,1,1.61-.23c.71,0-.7.37,2,.18C73.89,111.89,73.58,112,73.22,112ZM84,41.85c.45.24.72.44-.09.35a19.13,19.13,0,0,0,4,.6,8.71,8.71,0,0,0,1,.26c0-.1-.18-.2-.51-.3a13.87,13.87,0,0,1,2,0l.71.58a11.51,11.51,0,0,1,4.13.54c-2.28-.32,1.55,1-1,.73a24.31,24.31,0,0,0,4.24,1.43l.11.24,2.75.94a1.31,1.31,0,0,0-.46-.67A8.62,8.62,0,0,1,105,48.09c2.87-.26-4.7-1.93-3.2-1.74-.53-.31,0-.36.83-.25a.37.37,0,0,1,.07.12,17.27,17.27,0,0,0,3.85.87c1,.46,1.82,1.22,3.46,2-2.46-.49.58.74,0,1-.88-.13-1.74-.25-2.54-.35a40.12,40.12,0,0,0-5.55-1.85h1.21l-1.82-.62a1.35,1.35,0,0,0,.33.55c-1.38-.38-2.79-.77-4.2-1.23l.7,0c-1.95-.7-5.13-1.32-8-2.22l-.54-.62c-1-.21-2.51-.56-4.11-1l-1.66-.4Zm16.72,73.62-.11.06a.26.26,0,0,1,0-.08h0l0,0a.42.42,0,0,1,.09-.37c1.07-.2,3.37-.37,2.09-.83l.27,0a2.5,2.5,0,0,0,1.06.14h.22A26.91,26.91,0,0,0,100.76,115.47Zm2.78-.47c2.44.25,1.38.42.11.59-.08-.16-.51-.25-1.78-.16C102.5,115.28,103,115.14,103.54,115Zm-1-1.23,1.29-.12H104c.14.11,0,.3-.05.46l-.59,0C104,114,103.34,113.87,102.59,113.77Zm-.18,0-.41-.06.53-.07h.65ZM97,121.92c.57,0,1.29.08,1.94.15l-2.15.33a10.47,10.47,0,0,1-1.27-.09C96,122.18,96.48,122.05,97,121.92Zm-1,0s0,0,.05,0S96.05,122,96,122Zm-8.73-3.63h0l-.1,0,0-.31h-.07l0,.28h0l0-.26H87v.23l-.09,0V118l-.35,0v0l-.08,0h.08l.05-.8.35-.08,0,.86H87l0-.88h.08l0,.88h0l0-.87h.07l0,.87h.1a38.59,38.59,0,0,1,4.13,0c-1.34.22-2.48.38-3.47.48l-.37,0Zm.06.14h-.17v0h.17Zm-.24,0v.06h0v-.06Zm-.1,0v.08h-.09v-.11Zm-.58-.1,0,.22H86.3l0-.52h.13l0,.31.11,0v.19h-.12l0-.22Zm1.11-5.81v.14h.1l.84-.13a1.49,1.49,0,0,1,.46.1l-1.3.06v0H87.5v0h-.56Zm0-2.91.4,0-.29.05A.26.26,0,0,1,87.5,109.61Zm3.62,2.67a8.76,8.76,0,0,1-1.78-.26l.37-.11h1a8,8,0,0,0-.94,0c.7-.22.86-.36-.57-.27a35.91,35.91,0,0,0,4.1-.71,11.14,11.14,0,0,1,1.67.4Zm-30.5-75a.85.85,0,0,1-.16.17c-.65-.15-1.31-.29-2-.42A3.07,3.07,0,0,1,60.62,37.29ZM18.26,29.63h0c0,.13-.32.37-1,.58-.07-.16-.14-.35-.23-.55Zm-1.33.59.14,0-.14,0A.16.16,0,0,0,16.93,30.22Zm-5.46,76.91c.14-.18.17-.34.25-.44h0c1.09.07,1.94.2,2.71.32Zm3.49,0,.12,0,.09,0Zm1.1-.29H16a11.87,11.87,0,0,1-3.58-.23c.76-.21,1.62-.41,2.48-.59.28,0,.5,0,.4.21a14.32,14.32,0,0,0,4.44.12l.4,0c-1.05.15-2.15.28-3.22.36C16.51,106.77,16.25,106.79,16.06,106.82Zm1.72.15s0,0,0,0a4.35,4.35,0,0,1,3.15-.14l-2.55.17Zm9.13,0-.47.06-1.17.15h.32c-.34.1-.51.21-.44.34l-1.3.06.85-.34-.5.07c-1.52.08-2.5.1-3.15.09l-.7,0a1.62,1.62,0,0,1-.5-.1c0-.14.64-.3,1.46-.46a3.76,3.76,0,0,0,1.55-.06l-.64-.61c.14,0,.32-.09.53-.13l1.83-.19,1.13,0c.61.16,1.27.36.21.6a5.17,5.17,0,0,0,2.95-.66c.5,0,.67.13.3.33l4.29-.41A46.36,46.36,0,0,1,26.91,107Zm.23-74.36.25-.07V31.51c.19.52.67,1.09.09,1.29C27.4,32.65,27.26,32.67,27.14,32.65Zm5.2,72.45s0,0-.08,0S32.25,105.11,32.34,105.1Zm-.93-70.7L31.1,34c-.33.07-.75.14-1.23.21a2.19,2.19,0,0,0-.33-2c0,.21.34.38.06.51-.24-.11-.14-.21-.24-.32-.46-.18.2.37-.23.44l-.36-.63-.51,0-.77-1.42a.52.52,0,0,0-.12.6,1.75,1.75,0,0,0-.49.21.19.19,0,0,0-.08-.19l.09,0-.1-.26a1.13,1.13,0,0,0-.11.54c-.29.28-.12.59.3.74,0,0,0,0,0,0-1,.34-.6-.57-1.27.11.06.34.91.16,1.4,0,.12.28,0,.5.26.74l-.15.29c-.24-.11-.77-.5-.62-.79a2.66,2.66,0,0,0-.18,1.4l-1.55-.09c-.75-.05-1.26-.12-1.33-.25-1.38,0-2,0-2.17.39,1.06,0,3.2,0,2.83.22-1.08,0-2.14.07-3.19.15l-.3,0c-.84-.05-1.62-.12-2.59-.11.13-.1,1.55-.41.78-.34l-1.2.06a1.62,1.62,0,0,0-.32-1.09c1.51-.23,3.13-.47,5.46-.86l-5.46.85-.21-.29.58-.16c.3-.75-.91.06-1-.77.62-.14.35-1,.82-1.1-.05-.19,0-.27-.4-.28,0,.16.07.51-.35.31a.37.37,0,0,1,0-.38c2.31-.1,4.54-.21,6.71-.29L29,31l-.51-.52a13.76,13.76,0,0,1,2.68.61c1.72-.46-3.22-.52-3.06-.95h.68a27.87,27.87,0,0,0,5.09.95l.11.27,1.32.06a1.21,1.21,0,0,0,0-.14l1,.15-.08,0,.85.07c.75.12,1.43.25,2,.39a.42.42,0,0,1-.08.12c-.15-.11-.28,0-.4,0,.25.21.25.48.58.6V33c-.26,0-.88-.13-.91-.45a3.85,3.85,0,0,0,.61,1.68,3.25,3.25,0,0,1,.15.4l-.18-.06c-2.78-.42-3.19-.31-3.09-.11-.36,0-.72,0-1.08,0l.27-.25C34,34.12,32.69,34.43,31.41,34.4Zm9.25,72.29c-.64,0-1.7.07-2.81.12,1.31-.11,2.61-.21,3.89-.27C41.34,106.59,41,106.63,40.66,106.69Zm-6-1.27c1.76-.08,3.76-.11,5.76-.12a7.66,7.66,0,0,1,2.49.27A66.75,66.75,0,0,1,34.69,105.42ZM49.15,35.86l-.21,0c-.16-.23-.21-.4.91.06ZM51,36l-1.08-.07c-.15-.66-1.16-.25-2.16-.61a12.14,12.14,0,0,0,1.78-.16,7.53,7.53,0,0,1-3.25-.76c-1.14-.42-2.21-.78-2.57-.55-.64.16-1.43.31-2.23.46,0,0,0-.06,0-.11.59-.2.25-1,.74-1.09-.06-.16,0-.23-.41-.25,0,.15.08.47-.34.29a.3.3,0,0,1,0-.34c1.83.24-.84-.69,1.5-.31l.61.4.69-.28a8.79,8.79,0,0,1,1.5.46l-.17,0,.19,0c.56.24.84.49.85.64-.38-.1-1.12-.12-1.55-.18a55.76,55.76,0,0,0,6.4,1.15l-2.11-.57,1.5.24a35.62,35.62,0,0,0,4.27,1.14,3.15,3.15,0,0,1-.59-.48l3.2.66c.13.07.27.13.38.2l-1.45-.26,1.46.27c.18.11.28.24.12.37a2.73,2.73,0,0,1-1.58-.64h0c-.25.22.23.71,0,1l.13.07L53.36,36c-.38,0-.81,0-1.25,0a7.6,7.6,0,0,0-1.47-.12A2.09,2.09,0,0,1,51,36Zm3.64,70.61c1.32,0,2.46.08,3.46.15C56.89,106.68,55.67,106.64,54.61,106.57Zm3.37.59-1.75.17,1.46-.23Zm-2.12.91c-1.27.05-2.5.12-3.71.2,1.25-.11,2.57-.21,4-.29A1.31,1.31,0,0,0,55.86,108.07Zm4.47-.07c-2.25-.17-5.59.06-6.77-.24l2.11-.34,2.81-.14.72.16,1.61-.43a21,21,0,0,1,2.53.52C61.71,107.76,60.41,108,60.33,108Zm.45-2.27,2,.09c-.57,0-1.18,0-1.89,0C60.85,105.8,60.8,105.77,60.78,105.73ZM81,42.78l-.17-.05c-.37-.13-.51-.2-.53-.24l-.08,0-1.45-.42a1.74,1.74,0,0,0-.46-.25.53.53,0,0,1,0,.12c-1.31-.38-2.65-.76-4-1.13l.17,0L76,41.1c1.87.35,3.36.57,2.85.06l-3.72-.68L71,39.86l-.23,0-1-.35a1,1,0,0,1-.21-.25c-.13,0-.16.06-.17.11-2.26-.86-4.54-1.69-6.79-2.58l-.08,0L64,37l.76.15,1.09.23,4.68,1c-1.38-.33-2.76-.64-4.14-.94,1.49.31,3,.59,4.34.81L70.26,38c5,.84,3.87,1.22,9.28,2.47h-.2a19.44,19.44,0,0,1,4,.78c-.43,0-.37.06-.13.2-1.38-.19-1.63.08-1.14.48L81,41.61c-.18-.15-.36-.23-1.2-.18,0,.28,1.34.66,2.48.92a.78.78,0,0,1-.38,0c1.55.41,2.88.68,2.4.27,1.55.4,1.49.84,2.71,1.39C85,43.58,83,43.19,81,42.78Zm5.11,74.52L86,118.57h-.07l.08-1.26ZM83.85,113c-1.42-.11-2.82-.13-4.21-.16,1-.18,2.08-.36,3-.57-1.77.43-1.17.43-.07.35a7.79,7.79,0,0,1,1.67.3Zm-.91-.41c1.55-.12,3.65-.34,2.2.09C84.43,112.59,83.74,112.55,82.94,112.54Zm2,6.06c-1.71.05-3,0-4.68.15,2-.61,5.48-1,4.1-1.34a14.68,14.68,0,0,0,1.48-.09l-.07,1.25Zm.87,0,.07-1.26H86l-.08,1.26Zm.81,3.62-.93-.24.17-2.8H86l-.13,2.26c.25.11.55.23.86.34ZM93,124a4,4,0,0,1-2.06-1l.14,0c1.17.31,2,.6,2.13.91Zm0-4.72a41.5,41.5,0,0,0-4.21.34,11.88,11.88,0,0,1-1.61-.41l.66,0-.67-.1-.1,0,0,.76H87l.05-.78h0l0,.78H86.9l0-.8-.08,0,0,.84-.36,0,0-.9.15,0,.21,0V119H87v.09H87V119h0v.11h.07V119h.1c1.21-.2,1.64-.41,5.16-.86l.19-.08a9.89,9.89,0,0,1,4.26,1.33l-3.52.39Zm2.19,4h-.18l.23,0Zm6.73.57,0,0a.1.1,0,0,1,0,.07l-.31.14a6.74,6.74,0,0,1-1.35.1c.5-.7-3-.24-4.77-.31-.09-.14.33-.23.89-.29s.89,0,.83-.07a6.1,6.1,0,0,0,1.59-.18c-.66,0-1.32,0-2,0l-.09,0c3.6-.62,2.2.66,5.16-.11l-1.71-.14.2-.06a10.07,10.07,0,0,1,2.25.1c.8.38.14.42-.48.44a.45.45,0,0,0-.16,0l.09,0c-.51,0-1,0-.54.21l.65,0C102.14,123.75,102.07,123.81,102,123.88Zm3.45-.42a3.11,3.11,0,0,0-1.55.35c-.41,0-.83-.09-1.23-.17,1.1-.14,1.38-.4,2.18-.5a7.41,7.41,0,0,1,.79,0C105.39,123.25,105.27,123.38,105.41,123.46Zm.78-.28a.75.75,0,0,1,.37.16A1.06,1.06,0,0,1,106.19,123.18Zm.45.31h0Zm1.61-1.9c-1.68.52-3.27,0-4.93.18,0,.16-.23.26-.56.34a20.3,20.3,0,0,1-2.55.13l.42-.21,1.29-.52c-1.14,0-2.52.06-3.34,0,.82-.23,1.33-.45,1-.65l.55-.06a31.57,31.57,0,0,0,8.25.71A.36.36,0,0,1,108.25,121.59Zm-.15-3.38,0-.07h.72Zm-4.26-3.3c1-.28,1.76-.56,2.45-.82.55-.08,1.1-.15,1.6-.18-.39,0-.73,0-1,0l.57-.23,1.31,0,.63,0,1.33.33-1.14.24C107.51,114.42,105.32,114.58,103.84,114.91Zm8.5,6.17a8.84,8.84,0,0,1-1.85-.28l-.32,0-.06-.15a26.45,26.45,0,0,0,2.9.19C112.77,120.9,112.56,121,112.34,121.08Zm19.73-18.29c-.23.06-.5.11-.79.16l-2.34-.21v-.08C130.15,102.69,131.21,102.73,132.07,102.79Zm-1.44-47.46.25.08-.45-.1Zm-.49-.08c-.42-.08-.76-.13-1-.17s-.18-.27,1.22.15Zm-.53-.89-.05.06-.27-.07Zm-1.34,0,1,.34v0h.08l.3.1a22,22,0,0,1-3.27-.68C126.89,54.24,127.6,54.33,128.27,54.41Zm-2.22-1.34.15.06c-.13.17-.51.19-1,.12l-2.46-.66-.59-.21C123.27,52.55,124.62,52.78,126.05,53.07Zm-1.48,67.31h-.35c-.16-.17,0-.29.28-.38A1.85,1.85,0,0,0,124.57,120.38Zm-3.16-69.12c-.29.21-2.19,0-3.74-.35l.16.07-1.25-.28C118.08,51,119.58,51,121.41,51.26Zm-.4,61.08h0l-.19,0Zm-4.45,8.43c2.89-.45,4.7-.13,7-.57l0,0-2.08.46c-1.07.12-2.94.29-4.89.38C116.46,121,116.42,120.89,116.56,120.77Zm-1.85-5.18s0,.06,0,.09A.26.26,0,0,1,114.71,115.59Zm11.58,8,.75-.38-1.16.44c-.38.07-.61.14-.55.21l-.06,0h.07a.5.5,0,0,0,.16.07l-5-.1a4.44,4.44,0,0,0,1.35-.3c-3.45.53-4.72.06-7.3.81-1.66-.19,2.55-.53.74-.55a8.7,8.7,0,0,0,2-.5c1.21.08,3.39.06,4.11.23.81-.17,1.59-.37,2.37-.56,1.41,0,2.11-.14,5.37-.1C129.45,123.17,127.52,123.37,126.29,123.56Zm4.61-15.21-.67.05.55.06-.25.26-.2,0c-.11.07-.08.15,0,.25l-1.13,1.14-.07-2c.24-.06.3-.17,0-.34h0v-.22l2.16.46Zm1.46-1.47a18.13,18.13,0,0,0-2.14.63l-1.12-.13v-.33c1.28.23-.65-.81,3.4-.31Zm3.32-3.35a14.92,14.92,0,0,1-1.76,0l2-.22Zm.37-.37c-.39,0-.79,0-1.21,0L136,103h.18Zm37.22-30.43v0l-.25,0Zm0,.19h0l0,0Zm-1.67-.77a7,7,0,0,1,.69.15l-.79-.13Zm-.46.51,2,.24.14.17-.11.6a4.76,4.76,0,0,0,1.51.06,1.08,1.08,0,0,1,.13.2l.29,0c.1.09.15.18,0,.23a.44.44,0,0,0,.24-.17h0l.12,0h-.12l.21.1.64,0,.94.17a13.48,13.48,0,0,0-2-.13c-1-.52-2.25-.12-2.73-.76h.15l-1.06-.29a2.22,2.22,0,0,0-.41-.33Zm3,37.66-.17,0h-.11s-.06-.07,0-.1Zm-1.4.1h-.29l.05,0Zm-.58,0s0,0,0,0h.06Zm0,1-1.07.18-.38-.06s0,0,0,0Zm-1.9-1.15c.6,0,1.17.1,1.64.18l-1.12,0h-.56l-.09,0a1.36,1.36,0,0,0,.41-.12l-.51.1h0S170.05,110.32,170.22,110.27Zm-7.08-6.46a.26.26,0,0,1,.13-.12,11.46,11.46,0,0,1,3.57-.3c-.17.37-2.25.28-.82.62,1.26-.37,1.87-.25,1.75-.49.57.15,1.1.32,1.68.48,0,0,0,0,0,0H165.1C163.89,104,162.82,104,163.14,103.81Zm.72,5.74a2.15,2.15,0,0,1-.56-.14l1.67-.14a21.53,21.53,0,0,1,3.88-.12c-.56.14-.95.3-1.85.47-.18.36.95.48,2.27.58a6.28,6.28,0,0,0-1.9.19,6.18,6.18,0,0,0-2.86-.07l-4.39-.22a3.41,3.41,0,0,1-.51-.15C161.35,110,163.72,110,163.86,109.55Zm2.4,11.74-.12.09a.76.76,0,0,0-.35.15c-.54,0-.87,0-1-.15l-.26.12-.4-.07.66-.05Zm-6.25-9a14.14,14.14,0,0,1-2.35,0l.11,0A34.82,34.82,0,0,1,154,112a10.1,10.1,0,0,0,1.42-.16,11.91,11.91,0,0,0,4.64.48h0Zm2.79,8c.43.39,1.71.62.71,1l-.26-.1c-1.68.46-4.75.18-7.4,0l-.55,0C157.83,120.78,160.73,120.59,162.8,120.26Zm-.26-7.56-.61,0c-.73,0-.75-.08-.61-.19l.43-.08,2-.06c0,.08-.16.15-.46.21,0-.14-.43-.22-1.41,0Zm-5.2-8.64-.75.07-1,0c-.37-.06-.26-.12,0-.18l1.73,0S157.33,104,157.34,104.06Zm-2,0-.37,0h.53Zm-3.26-42.53,1,0,1.18.2a15.82,15.82,0,0,1,1.8,1l-1.9-.13c-1.55-.33.12-.66-2.31-1Zm3.19,47.72-.19.1c.71,0,1.64,0,2.62-.08a1.61,1.61,0,0,1,.1.53,6.31,6.31,0,0,0,1.63.19c-.15,0-.18.08-.15.12l-3.95-.19c-1.31-.07-2.63-.21-4-.31l-3.54-.29C150.44,109.16,153.37,109.1,155.24,109.2Zm-2.57,2.6-.29,0h.09Zm-5.11-.42c-.34.07-.66.13-.93.2.44-.1.84-.16,1.22-.21h.31l.48,0c-.56.11-1.25.21-2,.3l-1.94.11c-.13,0,0-.13.53-.3l.8,0-.14-.07a13.82,13.82,0,0,1,1.81-.09l-1.47.08Zm-1.61-.47-.11.49c-.64-.3-.84.12-2.51,0l1-.27A4.65,4.65,0,0,0,146,110.91Zm-4.61-.31a9.35,9.35,0,0,1,2.4.47c-.73.18-1.12.44-.85.52l2-.06a1.83,1.83,0,0,0-1,.34l-.38,0-.34-.11a1.25,1.25,0,0,1-.28.15l-.76,0a.73.73,0,0,0-.25-.09l.46.06.43-.16-2-.06s0,0,.17-.08a8.68,8.68,0,0,1,1.61-.06c-.42-.3,2.64-.55-2.53-.63Zm-.18,1.2a1.78,1.78,0,0,1-.34,0Zm-2.59.09.57,0a1.52,1.52,0,0,0-.27.08l-.33,0S138.55,111.91,138.57,111.89Zm2.67,5.65.26.14c-.6.07-1.16.14-1.61.23a2.33,2.33,0,0,1-1.17-.11,17.9,17.9,0,0,1,2.7-.86,9.55,9.55,0,0,1,1.81.41l.22.08-.9.12ZM146.6,123h0a10.86,10.86,0,0,0-2.64.14c-.29-.1-1-.14-.6-.26a3.08,3.08,0,0,1,1,0c-.26-.29,1.49-.52-1.31-.64a.53.53,0,0,0-.06-.1l0,0a3.16,3.16,0,0,0,1.54-.26c1-.17,1.45-.39,2.54-.55-.53,0-1.16,0-1.87-.09l.51-.22.08.13c1-.16,1.93-.36,2.92-.57a27.48,27.48,0,0,1,3.37.06l-.11.1h.21a.53.53,0,0,1,0,.2c-.73,0-1.19.12-1.21.44l.81,0a3.21,3.21,0,0,1-.61.39,12.19,12.19,0,0,1,1.48-.34,18.24,18.24,0,0,0,3.29-.07l0,.47a25.72,25.72,0,0,0-6.56.44c1.16.19,1.89-.43,2.92-.13C151.23,122.64,149,122.83,146.6,123Zm9.39.8c-.71,0-1.42,0-2.13,0l-2.8,0a17.68,17.68,0,0,1-3-.26,5.58,5.58,0,0,0,.58-.18c6.11-.73,1.85.77,7.92.34Zm1.21.62c-1.24-.43-.53-.51.47-.59l1.8-.07-.34-.09a1.4,1.4,0,0,0,.71-.28c-.74,0-1.21,0-1.55,0l-.07,0,2.9-.31c.09.09,0,.19,0,.29l-1.07.14.41.12.54-.07c-.14.29,0,.56,2.7.6C162.8,124.86,159.26,124.74,157.2,124.44Zm29.31-3.62-.46,0-1.33.2,1.78-.2a.65.65,0,0,1-.24.16c.29.23-.7.34-2,.21-.2-.06.12-.1-.08-.16-.33.26-.48.57.54.88l-.34.08a6.61,6.61,0,0,0-2.08.11l1.33.07-.15,0c-2.38.15-5.61.76-5.57,1.16a1.88,1.88,0,0,1,1.41-.22,56.46,56.46,0,0,1-5.66.89c-.13-.25-1.6-.35-3.39-.42s-3.88-.07-5.24-.23a7.59,7.59,0,0,1,2.21-.44c.9-.11,1.94-.16,3-.2-1.32,0-3.6-.07-5.27-.21l-.73,1c-.93,0-1.61-.07-2.08-.11l.25,0-.42-.12-.54.07c-.55-.11-.07-.22.56-.34l.67-.07c2.75-.43-1.12-.47-.77-.78l-.54.33c-.7,0-1.23.15-1.74.22-1.53.07-3.09.29-3.38,0a8.61,8.61,0,0,0,2.14-.25l1.63-.11-.2-.07-1.15.08a2.91,2.91,0,0,1,1-.41l-2.5.22c.47-.19.14-.54,2.74-.41l-1.09-.1a49.18,49.18,0,0,1,5.09,0l.4,0c0,.33,1.83.43,3.75.46l.35-.29h1c-.37.28,1.92.37,1.54.82.89,0,1.78-.07,2.59-.12l-2.12.58-.82.44,4.27-.5c-.39.16.46.18.74.27l-1.82.12.21.06,1.64-.17c.09,0,.07.09-.18.17.32,0,1.85-.13,1.43-.25H176c1.93-.59,1.23-.87,3.31-1.26a20.07,20.07,0,0,1,2.19,0c-.72-.26,2.34-1-1.58-.58.11,0,.05-.07.3-.11a11.05,11.05,0,0,0-1.61-.13l3-.82,2-.1C184.36,120.59,186.66,120.49,186.51,120.82Zm20-3.17.05,1.21-.49.18,0-1.08A1.9,1.9,0,0,1,206.5,117.65ZM206,118h0l0,1h0l-.1,0,0-1Zm-.29-6.75h0l0,.5h0l-.1,0,0-.51Zm-3.92-7.1a10.45,10.45,0,0,1,3,.1c-1.17,0-2.23,0-3.1-.08Zm2.39.28-2,0-.15,0C203.12,104.38,203.78,104.41,204.13,104.45Zm-8.69,16.71,1.18-.27c0-.1.35-.15.87-.16h.3a7,7,0,0,1-2.72.59A2.57,2.57,0,0,0,195.44,121.16Zm5.23,1.83c-.38-.27,0-.41.51-.49-.13.06,0,.2.44.32A3.78,3.78,0,0,1,200.67,123Zm6.27-.67c-.28.05-.59.09-.91.12v-.13a15.12,15.12,0,0,0-2.28.33c0-.16-.19-.3-1.74-.19a.25.25,0,0,0,0,.07l-.25,0a2.77,2.77,0,0,0-.37,0c1-.14,2.29-.19,1.23-.56-3.47.28-2.86.76-3,1.13-.63,0-1.28,0-2-.07l1.7.44a4.15,4.15,0,0,0-.56.1l-1.22,0,1.9.34c-2.06,0-4.26-.06-6.24-.18l1-.32,2.39-.87a13.18,13.18,0,0,0,3.43-.51,9.26,9.26,0,0,0-2.31.11l3.17-1.14a14.57,14.57,0,0,1-1.6.33c-.68-.28-1.17-.37-1.19-.51,1.05,0,2.38,0,3.2,0l.11,0-.52.19.6-.18c.95.14.19.38.06.47a16.72,16.72,0,0,0,4.39.09l-.08-1.86.11,0,.08,1.9h.07l-.09-1.92.51-.2-.06-1.52a1,1,0,0,1,.21-.08Zm63.83-6.39a9.33,9.33,0,0,1-2.37-.06Zm-22,.14c.57,0,1.1-.1,1.56-.18l-.63.34C248.79,116.23,248.66,116.16,248.74,116.07Zm-12.18.19a.08.08,0,0,0,0,.1c.4,0,.8,0,1.19,0a5.11,5.11,0,0,1-1.9,0Zm75.78-45.65a7.27,7.27,0,0,0,.9,0c-.63.1-1.29.18-2,.27Zm-8.68,32.78,4.2.36c-.95.22-1.88.42-2.64.58l-1.08-.08C305.93,104.07,305.43,103.77,303.66,103.39Zm2.32,0c-.78,0-1.61,0-2.46-.07l1.8-.16Zm-5.62-.67c1.15.05,2.55-.09,3.68-.16l1.36.11a5.58,5.58,0,0,0-2.64.54c-.72-.14-1.57-.29-2.5-.44Zm-.17-.39-1.59.17-1.42-.23Zm-.18,9.11c-1.06.15-4.08.21-4.3-.06A29.05,29.05,0,0,1,300,111.43ZM281,65.5a26.87,26.87,0,0,0,2.89-.32,11.15,11.15,0,0,1,2.07-.2l-.57.1-1.5.1.72,0c-1.6.31-3.22.61-3.45.33l-.39.08Zm.84,10.4,1.51-.18.06.09a4.31,4.31,0,0,1-.62.23.37.37,0,0,0,.19-.18A2.66,2.66,0,0,1,281.8,75.9Zm-.33-.29a.58.58,0,0,1-.18.15c-.07,0-.11-.08-.07-.12Zm-2.66.68a4.41,4.41,0,0,1,1.35.08.46.46,0,0,1,.19.17,9.81,9.81,0,0,0,1.13-.13l-.43.12a21.71,21.71,0,0,0-2.38.29C279.12,76.63,279,76.46,278.81,76.29Zm-1.92.75a12.1,12.1,0,0,1,2.68,0,1.91,1.91,0,0,0-.32.16,12.57,12.57,0,0,1-1.62.27,6.93,6.93,0,0,0-1.4-.23C276.48,77.16,276.69,77.1,276.89,77Zm-.21,2.15c-.11-.2.07-.4,1.92-.66,1.45-.14.43.24.35.42C278.32,79,277.53,79.12,276.68,79.19Zm.55.53-.6.1c.2-.09.27-.17.28-.25Zm-6.11-13.8a.84.84,0,0,0,.38-.19l.4,0,.11.16L271,66Zm-4.7,13.92c2.75-.1,2.55-.8,4.76-1.15h0a20.19,20.19,0,0,1,3-.2c-.25.23.69.65-2.57,1.06l.86,0c-1.9.28-4.34.63-6.49,1l-1.11,0c.35-.19.26-.31,2.25-.41C269.8,79.67,264.71,80.33,266.42,79.84Zm-5.11-1.56-.43.37c0-.12,0-.24,0-.34Zm-.42,25.12a27.69,27.69,0,0,1-3.95.12,12,12,0,0,0,1.28.18c-.53,0-1,.07-1.51.12l-.91-.06-.91-.12c-.57-.22.91-.25,2.45-.22-1.09,0-2.38-.07-3.69-.06l-1.8-.1c1.48,0,3-.06,4.63,0l-.33-.06ZM260,64.84l-.5.19-.47-.11Zm-3.23,12.64c.49-.11,1-.22,1.58-.3a2.2,2.2,0,0,1,.41.12c-.72.15-1.38.26-2,.35A1,1,0,0,0,256.72,77.48Zm-4.47.52s0,.06,0,.09H252l-.37,0Zm-5.59.27-.56,0h0Zm-2.5-12.73-.1,0a18.57,18.57,0,0,1-2.89-.23C242.25,65.38,243.26,65.45,244.16,65.54ZM242,78.74s0,0,0,.06c-.22,0-.44,0-.67,0Zm-.32,0H242a0,0,0,0,0,0,0Zm-.74-.08.06,0h-.42Zm-5.45.67h.89c-.39,0-1.15.1-.67.23,1.91,0,3.47,0,4.94.07-.38,0-.84.09-1.43.13H239a3.39,3.39,0,0,1,.44,0,8.64,8.64,0,0,0-2.23,0l-1.52-.09-.8,0-.48.26a4.73,4.73,0,0,1-.87-.13Zm-13.93,1.23c-.54.24,0,.28.19.38a11.31,11.31,0,0,1,1.76-.45c.49.08,1.14.15,1.77.2a2.69,2.69,0,0,1-.47.19l.75-.16h.21a5.93,5.93,0,0,1-1.35.27l.39-.12c-.37.09-.74.16-1.11.23.19-.11.53-.23.48-.26-1.33-.3-.89.19-1.07.39l-.36.07a4.71,4.71,0,0,1-1.43-.09c.46-.16.52-.21.43-.28a4.06,4.06,0,0,0-.51.26,6.87,6.87,0,0,1-1.19-.45A6.06,6.06,0,0,1,221.58,80.52Zm-3.25-1.77-.09,0-.44.2a3.23,3.23,0,0,1-.76,0Zm-.87,1.42-.28.22a.16.16,0,0,0,0-.13C217.26,80.23,217.36,80.19,217.46,80.17Zm-1-.56a1.17,1.17,0,0,1,.33-.09l-.37.24C216.4,79.71,216.42,79.67,216.43,79.61Zm-2.83,0,1.44-.24c-.14.17-.39.32-1,.35h-.4Zm4.54,30.84.07,0,0,0Zm2.06-5.48q-4.72-.17-9.09-.29a36.23,36.23,0,0,0,5.64-.16,32.88,32.88,0,0,0,4.37.23l.86,0C221.53,104.81,220.86,104.87,220.2,104.92Zm5.1.19-1.45,0s.11-.08.34-.14l-.62.12-2-.07,1.33-.2,3.65.15Zm-3.3-.46h0Zm1.87,0,.57-.09-2.53,0a17.21,17.21,0,0,1,4.79-.07C225.89,104.52,224.93,104.58,223.87,104.62Zm1.48-21.45a2.2,2.2,0,0,1,.39-.17l.81.3H225.5S225.46,83.21,225.35,83.17Zm2.06-.61c-1.12-.4-1.82.27-3,.46l-.8,0s0,0-.06.07,0,0-.05,0a1.53,1.53,0,0,1-.23-.15h.2c.92,0,1.74,0,.84-.41l-.58,0c.43,0,1-.06,1.37-.14.23.39,1.53-.3,3,.11Zm-2.65-.62a3.74,3.74,0,0,1,1.44,0c0,.19-.43.2-.78.24a.25.25,0,0,0,.15-.19A1.4,1.4,0,0,1,224.76,81.94Zm-.15-.06c-.24-.1-.41-.23-.34-.32,1.6.35,1.26-.21,2.58,0C226.05,81.67,225.29,81.76,224.61,81.88Zm7.95,31.81c.93-.19,1.43-.55.76-.82,1.2,0,2.41,0,3.63,0,.18,0,.37,0,.57,0C235.47,113.23,236.13,113.69,232.56,113.69ZM246,112.35a22.31,22.31,0,0,1-2.52,0,6.24,6.24,0,0,1,.87-.18h.75a5.94,5.94,0,0,0,.92.21Zm-1.2-30.44h0c-.85-.24-1.23-.5-.81-.71a16.37,16.37,0,0,0-2.57.35c-1.59-.12-3.36-.14-3.47-.44-.85,0-1.23,0-1.34.37.76.06,2.46,0,1.49.38a26.63,26.63,0,0,1-3.52-.16c.08-.1,1-.41.5-.33l-1.57,0a5.48,5.48,0,0,0-2.07-.3c.24.09.31.2.31.32-1.37,0-2.84,0-4.22.12-1.14-.14-2.22-.59-3.14-.19-.74,0-.86-.11-.78-.22.29-.05.57-.12.81-.18.74-.07,1.46-.14,2.17-.23h.14a62.75,62.75,0,0,1,6.61-.13c2.58,0,5.31.18,7.49,0-.38,0-1.14.14-.66.25,6.21-.14,8.79.07,15.9-.27l.81-.62.4-.33a9.32,9.32,0,0,0-2.72.18c.3-.2.61-.45-1.09-.39-3.41-.28-5.26.64-7.74.59l.76-.09a32.66,32.66,0,0,0-6.13.17l-.94-.17c1-.2,4.21-.13,4-.35,2.36,0,4.82,0,8.46-.23l.92-.71h0l-.15.09c.58,0,1.06-.08,1.49-.13,1.59,0,3.14-.1,4.65-.19l-1.52,1.23c0,.07-.11.16-.4.33a15.44,15.44,0,0,0,2.86-.39l-1.25,1.06-.36.3-1.13.08c-.17-.08-.25-.18,0-.3l.61,0a45.21,45.21,0,0,0-8.81.78L247.44,81C243.47,80.73,247.27,81.65,244.84,81.91Zm-5.45-1.61h0Zm11.94-.4,2.27,0A8.65,8.65,0,0,1,251.33,79.9ZM259,111.16c.08,0,.13-.08.12-.13l-3.2-.12-.41.06a6.81,6.81,0,0,0,1.8.25c-1.82-.07-3.37-.1-3.06.3l-1.59-.22a3.93,3.93,0,0,0,.67-.12l-1.18-.23.29-.07-.45,0-.77-.16a2.43,2.43,0,0,1,.36,0,7.78,7.78,0,0,0-2,.21l-.5,0-1.72-.12c.67-.09,1.26-.18,1.7-.28l.79,0a.9.9,0,0,1-.36.11l1-.07,1.27.06-.17,0h.27l1.08.06-.49.11,1-.09.55,0a.23.23,0,0,1,.1,0l.11,0,1.77.08,1.31-.2-.64,0a.26.26,0,0,1,.07-.11H259c-.11,0-.15.09-.07.13s0,.19.25.31l1.12,0C259.93,111.12,259.48,111.14,259,111.16Zm-.05-6.9.87-.31c1.57-.17,5.21-.37,5.53.11-1.68.15-2.88.3-3.84.46C260.59,104.46,259.76,104.37,259,104.26Zm4.8,6.28-.34,0,.53,0Zm1.42,1c.9.11,1.64.23,2.23.36A11.74,11.74,0,0,1,265.21,111.54Zm1.2-.89,2.46-.44a21.61,21.61,0,0,0,3.56.43c-1.2,0-2.36,0-3.6.07v0l-.25,0h-1.09Zm5-6.79.68,0L272,104l-.33-.06ZM268.31,112l-.51-.06c.65-.06.82-.37,1.72-.38l-.65,0v-.28l3.33,0a5.69,5.69,0,0,1-2.57.28,7,7,0,0,1,1.21.12c1,0,1.93.29,1.87.44C271.58,112.15,270.21,112.12,268.31,112Zm2.93-31.77c1-.15,1.65-.33,1.34-.64l2.19.08h0l-.39.06-1.8.18,1.41-.11C272,80.13,272.52,80.08,271.24,80.23Zm2.83,0s.05,0,.05,0a13.29,13.29,0,0,1,3-.2c-.32,0-.66.1-1,.13-.54.05-1.16.1-1.81.13Zm1.2,31.79a1.39,1.39,0,0,0,.18-.27,4.39,4.39,0,0,1,2,.13C276.65,111.9,276,112,275.27,112Zm4.79-.15-1.25,0a3.23,3.23,0,0,1,1.39-.08Zm.44-.31-1.45-.11.25-.17,1.61,0Zm1-32.67-1.9.25-.22-.21c1.51-.22,2.74-.37,3.78-.47l-.63.29Zm4.27-.56-3,.39.59-.28c.92-.08,1.69-.11,2.39-.12Zm.29,35.24H287c2.91-.42-2.57,0-.72-.44A10.31,10.31,0,0,0,288,113c.63.12,1.15.26,1.63.38C289.71,113.72,288.18,113.69,286.1,113.56Zm2.74-.72c1.14-.33,1.83-.8,5.81-.52-.19.13.18.4-.61.61C292.39,112.9,290.86,112.91,288.84,112.84Zm2.07,1c-1.07-.3.32-.43,2.34-.49l2,.22C291.78,113.81,293.11,113.76,290.91,113.82Zm4,.14c2.06-.15,4.36.18,4.59.68A21.51,21.51,0,0,1,294.87,114Zm4.72.68.32-.39a14.41,14.41,0,0,1,1.86.38A9.39,9.39,0,0,1,299.59,114.64Zm11.65-.64h-1.7a27.23,27.23,0,0,1,2.88-.26A8.67,8.67,0,0,0,311.24,114Zm-5,0-3.88,0a18.13,18.13,0,0,0-5.17-.11c.54-.18.27-.38.14-.57l2.39,0c-.89-.09-1.68-.15-2.41-.19.12-.15.62-.27,2.1-.35,1.69,0,.21.32.32.48,8.74-.62,8.82.77,15.71.26C313.7,113.75,309.5,113.5,306.21,114Zm7.53-9.33c.19-.15,0-.23-.32-.29l1.39-.06,1.19,0C315.8,104.54,316,104.74,313.74,104.64ZM316.54,70l-.13-.08c.72-.22,1.64-.42,2.55-.61l.71.08ZM507,13.28c.14.12.48.19,1.21.16a18.34,18.34,0,0,0-2,.63,8.31,8.31,0,0,0-1.59.45,10.62,10.62,0,0,1-2,.12ZM502,101.84c.64,0,1.35.07,2.09.09l-.25.08a11.93,11.93,0,0,1-1.86.06.52.52,0,0,1-.1-.23Zm-8.31-1h0Zm-13.16,3.07-.69.14-.16-.12ZM435.86,33.09l-.31.13-.13.05c-.85.37-1.57.76-2.11,1a14.58,14.58,0,0,0-1.59.38A12.48,12.48,0,0,1,435.86,33.09ZM440.93,32s.05,0,.05,0c-.57.21-1.16.4-1.76.58,0-.13-.76,0-1.31,0l.31-.12A19.16,19.16,0,0,0,440.93,32Zm-2.66.45a3.22,3.22,0,0,0,1-.51,4.05,4.05,0,0,0,.83,0C439.4,32.16,438.8,32.32,438.27,32.48Zm-.15,71.21.11.16c.77-.11,1.52-.24,2.28-.38l-1,.29h-.36c-.76.14-1.45.44-2.32.66a3,3,0,0,0-1.67-.24Zm-.31,5.51-1.53.43a8.59,8.59,0,0,0-1.62-.21c0-.11.34-.21.85-.28C436.14,109.55,436.27,109.08,437.81,109.2Zm-1.4-.12h0ZM352.52,53.26l.4.39c6.34-1.52,10.43-4,17-5.67-.77.69-3.29,1.15-2.89,1.27,3.91-1,3-2.07,7-2.58-5.08,1.64,2.41-.46-.59.81,6.45-2.54,13.64-3.71,17.93-5.17-1.22,0,1.71-1,1.81-1.14,1.18-.31.87.1-.07.4,2.4-.45,2.92-.18,2.65.31L391,43.38c1.58-.34,2.51-.28,3.78-.6a10.37,10.37,0,0,0,1.94-.7c.76-.41.58-.43.52-.65,1.43-.76,3.21-1.7,5.48-2.92l-.1.14L407.69,37l-.55.42L410,36.08c.09.52,1,0,.93.35,2.14.31,6.54-2.4,10.74-3.23l-.56.42c2.06-1.14,7.68-2.31,11.24-3.23l-.1.14c-2.09.83-2.42,1.26-1.36,1.19-.71.33-1.85.75-2.5,1.08-1.19.31-4.46,1.5-4.88,1.12,2.47-.76,2.21-.75,1-.7-2.29,1.15-6.93,2.27-6.47,2.91-3.41,1.07-1.08.18-3.59.68-.39-.11.41-.55,1.21-1l-9.85,3.35c-.27.67,6.55-1.48,3.35.25a2.19,2.19,0,0,0-.33.25c-1.32.32-2.63.64-3.84,1l.78.49h0l-.27.11.25-.12a9.59,9.59,0,0,1-2,.54c.12-.24.61-.7-.48-.49a11.91,11.91,0,0,0,1.92-.91c-.75.32-1.57.71-2.41,1l-.26.07-.07,0c-.21.07-.42.15-.64.21l.22-.28-3.53,1.21c-1.35.85,2.72-.78,3-.53l-.68.32h0l-.32.15-.11,0h0l-1.05.49c-.1-.09-.46-.08-1.39.16l-1.05.67c-.69.23-1.46.47-2.24.71,1.16-.41,2.1-.8,2.18-1.06-1.53.58-3.07,1.14-4.62,1.66-1.07.13,1.35-.8-.21-.66a21.67,21.67,0,0,1-3.74,1.07l.21-.27-.41.07a3.48,3.48,0,0,0,1.59-.86c-.79.26-5,1.16-4.39.63-1.58.63-4.1,1-4.95,1.31,2.76-.5.43.38-1.31,1.11-1.69.33.17-.54-1.27-.22L374,48.53l3.32-.92-.84.84.32-.15a10.16,10.16,0,0,1,2.83-.77l-1.78.57c0,.06-.07.12-.1.19-.83.23-1.65.47-2.44.71l.8-.38A28.56,28.56,0,0,0,370.82,50l0-.21c-1.84.47-4.1,1.45-5.88,1.58-.79.36-1.54.8-2.73,1.26a9.11,9.11,0,0,1-1.37.23l-.91.46c-.53.13-1.11.26-1.77.38l.11-.13a6.78,6.78,0,0,1-1.73.66c-.46.1-.89.19-1.3.26,1.93-.49,1.72-.92,3.11-1.41a.16.16,0,0,1,0,.1,7.2,7.2,0,0,0,2.46-.74c.46-.13.93-.28,1.3-.37a7.93,7.93,0,0,1-.84.07,4.66,4.66,0,0,1,1.28-.6c-3.37.9-4.11.83-8.16,1.85,2.86-.45,3.83-.58,3.95-.32-1.52.39-2.49.6-3.5.82l1.15-.45-2,.64c-.82.19-1.77.41-3.08.77a12.59,12.59,0,0,1-2.21-.36Zm77.05,51.92a7.31,7.31,0,0,1-.88-.06l.18,0,.4,0Zm-18.74,4.29a5.21,5.21,0,0,1-2.2.33l0-.07A21.85,21.85,0,0,1,410.83,109.47Zm-2.45.3a3.87,3.87,0,0,1-1.22.23l.22,0Zm-5.53,2a6.66,6.66,0,0,0,2.5-.53c.31,0,.7,0,1.06,0C404.83,111.26,404.65,111.93,402.85,111.74Zm1.23.42c-.59,0-1.17.06-1.75.1l.18-.19A5.93,5.93,0,0,0,404.08,112.16Zm-1.83-1.78-.11,0c-.95-.11-1.19-.23-1-.35.32,0,.61-.07.85-.11C403,110,402.43,110.26,402.25,110.38Zm-6.05-3.69h-.35Zm-.95-56.42c-.28.06-.4,0-.39-.08A1.46,1.46,0,0,1,395.25,50.27ZM384.3,106.2l.56-.09-2.84.24c1.23-.31.58-.53,1.14-.8.84,0,1.65-.09,2.44-.16-1.28.74,3.73,0,4.52.27.45.18.47.28.3.34a3,3,0,0,0-2.09.14,1.38,1.38,0,0,0,.47.08s0,.07.16.13c.59,0,1-.1,1.4-.16s1,0,1.35,0a5.56,5.56,0,0,1-.82-.08c.65-.15,1-.32,1.65-.42l.72,0,.15.33c-2.23,0-1.23.66-3.88.66l-.1-.16c-.05.44-2.94.4-4.87.53-.75,0-1.42,0-2-.1-.69-.39,3.53-.68,3.44-.81Zm-4.67-3.86c-1.17.4-3.82.81-5.11,1.18-.53,0-1.07,0-1.61-.11l.73-.1c-8.78.46-11.21-.41-13.15-1.41l1.31.07c.63-.11,1.55-.18,2.48-.24l.12.21c.59,0,1.15,0,1.71,0a.21.21,0,0,1-.06.08l.3-.08c1.95-.08,3.76-.27,5.53-.48,1.67,0,3.39,0,5.06,0l.46.14c-4.32.6-2.62-.68-6.18.08l2,.15c-1.59.49-4.28.34-5.88.82-.16.49,1.51.17,3.68,0,.52,0,1.34,0,2,0l-1.27.5,6.13-.77c1.09-.52.88-.7,1.43-.93,1.62,0,3.12,0,4.38,0a1.42,1.42,0,0,1,.66.57,9.69,9.69,0,0,1,1.9-.45,3.08,3.08,0,0,1,1.14.24l5.19,0c.24,0,.42,0,.56.07-1.2,0-2.41.08-3.62.1h-.09c-1.68,0-3.37.07-5.08.08a.49.49,0,0,1-.21.64C382.57,102.53,379.57,102.87,379.63,102.34Zm1.84,2.94a9.51,9.51,0,0,0-2.29.15l.34-.13,1.85-.16Zm-18.06,2.25c-.77.09-1.45.18-1.19.41l-3.61-.06a5.06,5.06,0,0,0-1.53-.29l1-.19.54,0a5.09,5.09,0,0,0,1.33-.34l.14,0-.13,0,.06,0h0l.06,0,1.23-.1c-.06.21.29.4,2.76.48,0,.07-.09.13-.22.16l-.29,0a2.06,2.06,0,0,1-.33,0Zm-8.19-47.3a19,19,0,0,0,3.54-.84,1.6,1.6,0,0,1-.47-.06c.77-.25,1.54-.5,2.29-.76.48,0,1.12,0,2.35,0-.49,0-.47-.35-.12-.73l1.66-.56c0,.27.16.63,0,.86a2,2,0,0,0-1,.45,21.15,21.15,0,0,0,3.23-.6c-.72.14-1.41,0-2,.12l2.47-1.23s0,0,0,0l.61-.15c0,.31.68.6,1.36.68-.22-.12,3.59-.8,4.62-1.16L372,56.4a11.62,11.62,0,0,0,4.82-2.07c1.17-.32,2.34-.62,3.49-.89a.51.51,0,0,0,.1.4c-1.27.48-3,1.33-4.82,2.18l-1.52.42,1.25-.3-.9.42-2,.67.33-.27c-1.87.14-2.61.6-3.07,1.15a20.27,20.27,0,0,1-3.72.75l.69-.25a40.78,40.78,0,0,1-9.42,1.69A14.9,14.9,0,0,1,355.22,60.23Zm1.2,1.25-.79.12.76-.14Zm10.87-10.11-.66.2,0-.21a8,8,0,0,1,1.27-.22Zm.72,5a.46.46,0,0,0-.2.19l-.43.12Zm-1.35-4.79c-.82.3-1.63.57-2.46.81l0,0c.32-.17.64-.34,1-.49C365.67,51.78,366.18,51.69,366.66,51.61Zm1.91,1.12a6.24,6.24,0,0,0,1.36-.68c.76-.12,1.38-.19,1.73-.21l-.66.67a10.37,10.37,0,0,0-1.76.47h0l0,0-.28.12-.31.07C369.12,52.81,369,52.7,368.57,52.73Zm-.2-1.78-.26-.27c.76-.2,1.48-.34,2.15-.45Zm4.36-.56c.21-.13.39-.25.57-.35-.08.11-.16.23-.25.34h-.32Zm2.42-.43a3.78,3.78,0,0,1,2.36-1.23,8.68,8.68,0,0,1-1.07,1.17C375.78,50,375.16,50.07,375.15,50Zm4.32-1.46a1.63,1.63,0,0,1,.19-.21c.74-.12.64.05.44.22C379.74,48.55,379.48,48.56,379.47,48.5ZM379,55.05a4.71,4.71,0,0,0,.75-.38l.32-.07a1.31,1.31,0,0,1,.33,0h0c.13,0,.12.14,0,.25C380.07,54.89,379.33,55,379,55.05Zm1.27,0-.24.19c-.34,0-.66.09-1,.15A2.72,2.72,0,0,1,380.23,55.05Zm-19.64,49.14.66-.06.05.12Zm4.36,3.57.41.06-1.47.12Zm16.71-59.08.12-.06a.57.57,0,0,0,.13,0Zm.67-.33c.87-.26,1.85-.61,2.79-.92a.21.21,0,0,1,0,.06c-1,.31-1.74.65-3,1A.92.92,0,0,0,382.33,48.35Zm0-1.18.29-.1.22,0,.17,0-.09.06Zm.91-.17.53-.19c1.13-.23,1,0,.71.19s-.37.09-.56.12l.21-.26Zm3,5.61-.43.24a8,8,0,0,0-1.08.27q.49-.07.78-.09l-1.09.6a4.27,4.27,0,0,1,.55,0l-.42.16c-.54.15-1.13.27-1.71.38h-.2c0-.14.34-.36-.43-.22.3-.27.76-.69,1.36-1.19l1.68-.36A5.13,5.13,0,0,0,386.21,52.61Zm-.33-.37,1.44-.31-.46.29A4.13,4.13,0,0,1,385.88,52.24ZM389.27,46a20.23,20.23,0,0,1,2.4-.68c.16,0-.05.1-.31.21C390.62,45.68,389.92,45.84,389.27,46ZM389.1,105c-.22.09-.38.2-.39.33h-2.44C387.23,105.24,388.18,105.13,389.1,105Zm4.72,1.85,0,.08v0h0c-.44,0-.88,0-1.32,0h-.29Zm.13,1,0,.15h0a.57.57,0,0,1-.3-.12Zm-.13-1.91.2,0h-.25v0l0-.27h0l0,.27.67-.12a.19.19,0,0,1,.1.17ZM394,50.68c-2.84,1.11-1.87.32-2.13,0l.84-.39,0,0c.28-.12.57-.25.88-.37a1.75,1.75,0,0,1-.81.39,10.27,10.27,0,0,1,1.76-.15C394.2,50.37,394.27,50.33,394,50.68Zm-50,52.65a1.49,1.49,0,0,1,.4,0l.2-.08.69,0-.59-.06a18.09,18.09,0,0,1,1.85-.58l1-.06c.49.57.59,1-.44.83l2,.35h-.23l-2.66.18a21.2,21.2,0,0,0-2.53-.4A1.42,1.42,0,0,1,344,103.33Zm-.43-36.75.1,0h0Zm3,37.75c.06-.08,0-.15-.12-.22A25.62,25.62,0,0,0,351,104c.85.14-.07.27-1.46.45a25.24,25.24,0,0,0-5.48.54,1.15,1.15,0,0,0-.06-.34C344.79,104.54,345.37,104.42,346.62,104.33Zm6.49,3.41c-.89.12-1.47.26-1.43.45l-.41.08C350.58,107.9,351.63,107.76,353.11,107.74Zm1.23-53.08c-.63.09-1.28.15-1.91.22s-.95,0-1.36,0C353.54,54.45,354.33,54.37,354.34,54.66Zm-6.42,3,.21,0-.3.09Zm-5.11,9a.84.84,0,0,0,.33-.08l.28-.07h-.21c0-.06,0-.14-.18-.26a5.8,5.8,0,0,1-1.11,0c.21-.09.45-.19.74-.29l.61.16c3.54-.58,4.29-1.38,6-2.13a10.83,10.83,0,0,0,1.52-.55,17.7,17.7,0,0,1,1.81-.42c.14.05.18.12.14.2-1.18.37-2.43.76-3.43,1.12.71,0,.62.15.19.31l-.73.25c-.49.16-1.05.32-1.48.48l.11-.16a3.85,3.85,0,0,1-.54.31l-1.28.42-.9.3-.21,0h-.09l-.11.07-.81.28h0L342,67l-.22.06C341.86,66.91,342.3,66.8,342.81,66.68Zm-3.67-7.49c.35-.11.69-.22,1-.3.48,0,.43,0,.09.22l-1.2.17ZM335.51,59c.46,0,.92-.08,1.37-.13,0,.13-.07.25-.35.32C336,59.21,335.34,59.22,335.51,59Zm1.1.24,1.2-.07c-.18,0-.38.1-.62.18a2.87,2.87,0,0,1,.52,0l-.92.28-2.19.29-.79.1c0-.1-1.22,0-1.31-.09A33.34,33.34,0,0,1,336.61,59.25ZM322,63.37l-.09.05,0,0Zm-.68,5.49a9,9,0,0,0,.88-.21c1.86-.21,3.51-.2,3.62.1A12.67,12.67,0,0,1,321.31,68.86Zm4.67-.72c-.26-.1-.29-.2-.16-.3l1.09,0C326.65,67.89,326.35,68,326,68.14Zm3.89,41.16a11.18,11.18,0,0,0-2,.16l-.32,0a.72.72,0,0,0-.4-.13l2.86-.18A.53.53,0,0,0,329.87,109.3Zm.23-48.83.51-.18,1.19,0Zm3.56,48.75,1.17-.25a2.34,2.34,0,0,0-.5-.14l.91-.06,1.1.13A8.52,8.52,0,0,1,333.66,109.22Zm.95-43-1.45.06h-.54a.09.09,0,0,1,0-.09c.23-.08.46-.17.68-.27l.11,0h-.07l.12,0-.19.06c-.22,0-.48,0-.77.06l1.34-.43-.36.06.83-.21c.09.07.22.15.12.26,1.27-.34,1.75-.58,1.73-.73l.93-.24c.28.22.46.42.46.58-.94.08-3.08.43-2.87.67a22.59,22.59,0,0,0,2.84-.58c-.07.12-.28.2-.71.23l2,0-2.46.65A8.6,8.6,0,0,0,334.61,66.21Zm2.69,0a10.83,10.83,0,0,0,1.19-.29,7.87,7.87,0,0,1-1,.3Zm2.78,42.94h0A0,0,0,0,0,340.08,109.18Zm-.28-41.5-1.15.15a4.67,4.67,0,0,1-.58-.23,8.18,8.18,0,0,1,1.25-.15c.26,0,.4,0,.46.11a4.61,4.61,0,0,0,.46-.29l.73,0-.55.18Zm7.74,42.65a22.6,22.6,0,0,1-2.55,0c-1-.26-2-.56-3.16-.81.45,0,.85-.08,1.19-.13-1.54,0-1.95-.08-2-.2h.1l-.12,0c-.05-.13.18-.31-.17-.52,2-.26,5.18-.25,6.36-.41h0l0,.16a.47.47,0,0,1,.16-.15c2.64.11,4.76.52,3,1,1.73-.28,3.57-.13,5.4-.67-1.93.36-1.72,0-1.95-.31a17.9,17.9,0,0,0,3.11-.36l.33,0c-1.18.16-.17.37-.45.58.49,0,.86-.11,1.16-.17v.1c1.68,0,3.12-.12,4.4-.26,1.38.31,3.47-.11,5.06-.17,1.9.25-4.32.6-6.35,1.4a14.27,14.27,0,0,1-5.31-.07C355.24,110,349.7,109.87,347.54,110.33Zm20.69,1.73h0Zm26.14.22h0v.1a103.23,103.23,0,0,1-16.83.47c1.15-.3,3.41-.2,1.6-.74-2.67,0-6.16.38-9.69.08a20.85,20.85,0,0,0,4.6-.55l-.9,0,3.51-.73c-2.47.41-7.18.66-8.26,1.09-1.71,0-2.87,0-3.75,0,1.91-.42,5.41-.7,6.38-.9-6.7.67-7.39.1-11.44.27-.59-.06-1.27-.12-2.1-.18l.85-.19h.5l-.37,0c1.77-.36,3.47-.64,5.64-1.16,1.28,0,1.79.1,1.89.26a12.51,12.51,0,0,1,3.36-1.08l.61.26c5.65.08,5-1.4,10.45-1.38,1.09.64-4.62,1.09-7.9,1.63,2.57.52-5.37.53-2.35,1.29l1.6-.49c1.45,0,1.52.22.85.33,1.77-.16,1.35,0,2.12-.39,8.55-.42-.88.91,7.51.85-.95.22-3.26.29-2.79.66l-4.51,0-.06.53a33.79,33.79,0,0,0,11.56-2c-5.11.74-.58-.52-3.28-.66a5,5,0,0,1,2.51-.07c.37-.17,2.95-.38,2.6-.66.6.57,3.34.77,5.85,1h0l.06.68.1,1.1,0,.14c.48-.12.87-.24,1.24-.36.92-.18,1.79-.35,2.43-.41-.42,0-.82,0-1.21,0,.33-.13.66-.26,1-.39,0-.08.17-.14.44-.19l.07,0-.51.16s0,.06,0,.09l.52-.23c.28.15.28.34-.16.59a47.07,47.07,0,0,0,5.48-.19c-.2.21-.4.41-.59.63,0,.06-.08.16-.29.31l.29-.31c0-.19-1,.06-2.09.27.17-.16.33-.35-.19-.37l.11,0a2.27,2.27,0,0,0-.93.08,9.64,9.64,0,0,0-2.33.21,1.27,1.27,0,0,1-.32-.13l-.64.37A11.05,11.05,0,0,1,394.37,112.28Zm5.9-.46a5.75,5.75,0,0,1-1.44.1l.29-.06Zm-4.46,1.58c-.39-.14.16-.32,1.12-.5s1.8-.13,2.86-.24l1.06.2-2,.17,1.49.14C397.89,113.13,398,113.32,395.81,113.4Zm1.78.74,1.23-.27.77-.12.06,0-.36,0c.5-.11.94-.22,1.3-.32.61.08,1.19.21,1.82.28C400.89,113.6,403.49,114.58,397.59,114.14Zm11.57-.82-1-.1c-.25.37-1.57.83-3.85.8-.86-.16-1.41-.24-1.77-.28a7,7,0,0,0,1.75,0l-.82-.64c.86-.16,2.94-.37,4-.48C407.66,112.75,409.82,113.07,409.16,113.32ZM405.63,111a.67.67,0,0,0,.2-.39l7-.61a3.16,3.16,0,0,1-1.1.78c1.15-.21.89-.72,2.62-.75a4.68,4.68,0,0,1,.78.07.44.44,0,0,1-.16.06h.21c-.14.11-1.21.26-1.34.4a5.37,5.37,0,0,1,2.84-.15l-1.47.24,1.42.07c-.46.64-4.66,0-4.27.8C409.47,111,408.5,111.3,405.63,111Zm40.05.81h-.84l2.71-.47c-2-.36-2.48.28-3.91.14.09-.08-.09-.37.59-.48l-6.52.55c-1.7.33.32.41.57.64a6.27,6.27,0,0,1-2.43,0,1.94,1.94,0,0,0-.79-.14c-.32-.07-.55-.15-.59-.23.41-.14,2.07-.19,1-.45l-2.21.69-.45,0c-2.59-.6,2.74-1,4.29-1.2-3.26-.26-4.24.3-7.71.17a8.33,8.33,0,0,1,2.2.54c.1.6-3.12.2-5.42.23.94.18.91.33.49.47-1.77,0-3.16,0-3.42-.33l-1.59.07H419.4a.8.8,0,0,1,.36.14,6.91,6.91,0,0,0-2.55.48,9.21,9.21,0,0,1,1.17-.08l-.09,0H420c.81.06,1.42.15,1.22.25-3.33.2-8.43.24-8.88.73l-1.92-.19c2.85-.23,3.15-1.56,7.8-1.37a35.18,35.18,0,0,0-4.83-.09c2.12-.43.32-.31.55-.78,1.29.4,5.43,0,2.61.58a37.63,37.63,0,0,0,5.92-.18l-1.5-.25a16.84,16.84,0,0,0,5.95-.79c-3.08,0-3,.84-6.9.75-3.6-.4-.35-.47-1-.89a3.63,3.63,0,0,0,.42-.1s0-.07-.06-.1a9.14,9.14,0,0,0,3-.47c.5,0,.76.11.27.27l2.19-.6c1.5.25,4.63,0,5.14.47a2.07,2.07,0,0,0,.95-.2l.13,0,.44-.25a5.37,5.37,0,0,1,1.24.06c-.11.1.07.17-.41.13a14.41,14.41,0,0,0,4.64.08l-.28,0a2.51,2.51,0,0,0,1.61-.53c.25,0,.52.07.78.12-3,.52,2.31.75.9,1a38,38,0,0,0,8-.41h0c1.09-.15,2.19-.3,3.41-.41,4.66.16,10.43.79,14.12.43l-.48-.05,2.2-.25c.49,0,.59.14.65.26-.33,0-.65,0-.93,0C462.24,110.49,453.82,111.21,445.68,111.82Zm1.79-80.95a1.21,1.21,0,0,1,.49-.05c-.37.15-.68.28-.91.4a16.44,16.44,0,0,0-2,.56l.85-.38c.36-.14.64-.25.89-.33s.46,0,.23.15A1,1,0,0,0,447.47,30.87Zm16,75.33a.18.18,0,0,1,0,.09S463.44,106.23,463.49,106.2Zm2.48,7.13,0,0c1.35-.07,1.91,0,1.92.09A9.36,9.36,0,0,1,466,113.33Zm3.19-7.89-.89,0a2.64,2.64,0,0,0,.3.1,5.46,5.46,0,0,1-.56.11c.24.08.33.22.31.39l-1.29.13a13.79,13.79,0,0,1-1.89.14l-.12-.06s0,0,0,.06a8.12,8.12,0,0,1-1.89-.23l1.41-.25a14.12,14.12,0,0,0,2.52,0,8.05,8.05,0,0,0-1.52-.18c1.2-.21,2.46-.44,3.85-.65l.73.2Zm1.54-83.75L462.81,24l-.15,0a.2.2,0,0,0,0-.13c2.11-.66-1.68-.2,1.71-1.24-3,.42-1.95,1.21-4.47,1.62l-.55-.52a59.1,59.1,0,0,0-10.1,2.74c2.66-.33-1.37.82-.84,1.08.28-.67,3.89-1.28,3.92-1-1.87.67-6.46,2.07-7.91,2.4l3.71-.72c-.86.46-3.3,1.55-4.79,2.23a5,5,0,0,1,2.22-1.08l-.57-.07.19-.07-.24.07-.88-.1c.18.07.16.18,0,.31-.68.18-1.31.37-.64.43l.12-.05c-.77.47-1.95,1-2,1.23-.71.12-1.49.31-2.2.47,0-.27-.19-.52.81-1l1,.09,1.45-1c-1.86.36-5.77,1.15-6.73,1a154,154,0,0,0,18.26-6.79,1.37,1.37,0,0,1-.45.27c4-1.14,4.38-1.32,7.59-2.26l-.92.54c.68.22,3.19-.89,5.81-1.62a8.71,8.71,0,0,1,3.46-1.1l-.32.41c.53.15,3.12-.58,6.07-1.29l-1.12.6a14,14,0,0,1-2.57,1.13,10.57,10.57,0,0,1,2.28-.47Zm1.35-.4.07,0s0,0,0,0Zm3.13-1.12a.49.49,0,0,1,0,.12c-.71.25-1.48.5-2.29.75l-.43,0A9.65,9.65,0,0,1,475.18,20.17Zm-1.53,86.59h0Zm-1.1,6c1.28-.23,2.48-.45,3.94-.62.59,0,1.18.09,1.78.11a28.4,28.4,0,0,1-4.46.76.13.13,0,0,1,0-.12A8.84,8.84,0,0,0,472.55,112.78Zm1.57.56a.76.76,0,0,1-.3-.29l4.55-.35A41.79,41.79,0,0,1,474.12,113.34Zm7.25-6.44c0-.07-.12-.16-.35-.29-1,0-2.33.28-3.67.33a10.33,10.33,0,0,1,4.62-.55C482.22,106.61,481.94,106.77,481.37,106.9Zm6.31,4.91.45-.08S488,111.81,487.68,111.81Zm6.51-3.82L493,107.8a1.41,1.41,0,0,0,.27-.18c-.54,0-.9,0-1.18,0-.1,0-.17-.08-.19-.13a19,19,0,0,1,4.18.45Zm23.85-1.7-1,.09-2.95,0a8.82,8.82,0,0,1,1.09.21c-1.22.11-2.46.2-3.72.29-1.13-.16-2.44-.43-2.05-.64-1.34.09-3.3-.39-4-.32,2.18.4.22.5-1.27.64-1.34-.22.27-.46-.88-.61l-3.12-.06,2.71.18-.84.53.28,0c1.89,0,2.28.1,2.42.26-1.19,0-2.58.22-2.69.53a4.53,4.53,0,0,1,1.9.11c-1.66.16-3.15.26-4.54.34,0,0,0-.12.11-.21l-2.24.21h-.06a16.09,16.09,0,0,1,4.5-1.14c-4.52-1-8.14.52-11.85-.33l.59,0a28.47,28.47,0,0,1-8-.89,9.47,9.47,0,0,0,.92-.23l.28.1,1.79-.16-2,0a1.49,1.49,0,0,0,.78-.46c2.5-.13,5.36-.37,8.31-.61a32.91,32.91,0,0,1,4.63.06c-.75.41-2.75.08-2.48.31,3.18.23,2.79-1,5.89-.28-2.8,0-1,.13-.27.3l-.53.16.67-.12c.27.09.21.18-.74.26a46,46,0,0,1,7.63.17,2.32,2.32,0,0,1-.4.13c-.91,0-2.07.18-2.72.2a26.72,26.72,0,0,0,4-.25c2.43.24,4.63.5,6.35.48-.92-.34,1.52-.41,1.63-.5,1,.07.63.37-.15.36C517.8,105.57,518.21,105.94,518,106.29ZM519,11.68c3-.89-3.84.24-1.67-.53a29.9,29.9,0,0,1,4.52-.09C520.83,11.26,519.87,11.46,519,11.68Zm5.34,99.05.71-.07s0,.07.1.11A3.24,3.24,0,0,1,524.32,110.73Zm-2.66-4.81,2.38-.52-.11.1h1.59ZM550.32,10.3c-.89.38-2.45.39-1.84.86a2.35,2.35,0,0,0-1.43.06c-.46-.08.7-.49.39-.64-.42.11-.9.26-1.46.4l-1.34.2c-.36-.21,1.31-.64,2.68-.75-1.23,0,.21-.41.46-.6A25.74,25.74,0,0,0,550.32,10.3Zm-1.21,92.09h0s0,0,0,0Zm-3.27-.51,1,.14a2.89,2.89,0,0,1-1.34,0Zm-1.52.28a.26.26,0,0,0-.09-.09c.43-.08.88-.16,1.35-.22l.23,0Zm1.59-92.44c.37,0,.71,0,1,0l-.1,0Zm1.35-.45-.44.07h0l-.23,0-.36,0a11.33,11.33,0,0,1-1.32,0,1.14,1.14,0,0,0-.34.25,6,6,0,0,0-1.51.38c-.53.1-1,.16-1.46.22a9.8,9.8,0,0,1,1.72-.53c-.06-.57-1.18-.62-2.78-.45.53-.12,1-.25,1.44-.38l4-.26s0,0-.05.05L547,8.62l1.11-.06C550.91,8.71,549.37,9,547.26,9.27Zm-4.48,2.35.47,0,0,0-.37.13C542.87,11.69,542.84,11.65,542.78,11.62Zm-1.64-.68a.35.35,0,0,0,.15-.23,9.37,9.37,0,0,1,2.92-.45l0,0C543.11,10.5,542.1,10.71,541.14,10.94Zm.61,1h-.1l.06,0Zm7.46-3.59-.42,0,.7-.16Zm-9.82-.22c2.6-.52,5-.52,6.89-.83a41.87,41.87,0,0,0-5.16,1.45l.61-.1-.17,0h.11l.19-.06a60.48,60.48,0,0,1,7.75-.91,18.11,18.11,0,0,0-3.13.65c-1.45.13-2.78.4-4.47.57a6.72,6.72,0,0,0,.64-.23l-1,0a8.91,8.91,0,0,1-3,.41C541.08,8.61,536.83,8.7,539.39,8.11Zm.35,1.38c.6.15,0,.58.07.93a8.73,8.73,0,0,1-2.88-.37h-.13C537.81,9.86,538.82,9.68,539.74,9.49Zm-4.46,91.83.16.13a8.12,8.12,0,0,0-.86,0Zm8.27.87,0,0h0l-.07.5c-1.4.35-1.73,0-3.28,0l.13.59-2.74-.53c.33.39-1.78.21-2.36.27-1.44-.24-.62-1-2.72-.73l.29-.24c1.55,0,3.16,0,4.1.14-.77-.27-.86-.64-.6-1l.73-.07c.61,0,1.22,0,1.87,0l.2.3-.94-.11,1,.26v0h0l.33.08.4-.13-.34,0,.8-.09c-.67.27-1.92.61-2.9.91a3.18,3.18,0,0,0-.63-.1l.52.13c-1,.29-1.62.52-1.16.56a24.44,24.44,0,0,1,5.45-.8l1.84.09Zm2,1-1.08.11c-.72-.14,0-.27-.23-.57a27.63,27.63,0,0,1,3.25-.55l1.36.22a.91.91,0,0,0-.53.06c.46,0,.85,0,1.19,0l.63.1.08.15-1,.09A9.08,9.08,0,0,0,545.56,103.14Zm3.73.54h0l.36-.79.66-.11c.12.23.24.44.38.69,0,0,0,.07.05.1Zm33-100.1c-.89.07-1.52.15-2,.23l-1.3-.1C580.59,3.53,582,3.35,582.3,3.58ZM578.55,107a2.12,2.12,0,0,1,.11-.21l.11,0-.22.18-.13.11a7.46,7.46,0,0,0,2.27.43c-.83,0-2-.08-1.94.06a4.78,4.78,0,0,1,2,.26,28.29,28.29,0,0,1-5.95-.86,1.63,1.63,0,0,1,.53-.15c-.21,0-.44,0-.66,0l0-.06q.4,0,.84,0h.31l.27-.07a4.51,4.51,0,0,0,.73-.1H577c-.32.12-.71.25-.3.2l.34,0-.34.15.3.11.11-.26.6,0a.08.08,0,0,0,0,0c-.13-.07-.28.07-.37,0a.62.62,0,0,0,.67-.1l.31,0A.7.7,0,0,1,578.55,107Zm-1.13-6.24v.1l-.43,0C577.08,100.67,577.26,100.49,577.42,100.73ZM576.63,4h0v.83h0Zm0,.86h0v.24h0ZM574.2,102l4-.63c0,.08-.06.15-.09.25a.86.86,0,0,1-.33.48c.08,0,.18,0,.33.09l-.13.23-.45,0c.09-.08.15-.22.24-.29a.51.51,0,0,1-.55-.11,1.43,1.43,0,0,1,.2.39l-.69,0,0,0c-.14-.1-.21-.07-.26,0l-.43,0,0-.15c-.33-.17-1-.44-1.42,0l0,0-.75,0A2.11,2.11,0,0,0,574.2,102Zm1.36,6.82c-.9,0-1.73-.14-2.5-.22-.07-.11-.31-.24-.26-.35C573.81,108.34,575.66,108.39,575.56,108.77ZM570.1,8.44l-.18.05h0V8.37h0a1.09,1.09,0,0,0,0-.18V8.06a.55.55,0,0,1,.18,0ZM569.46,6a1.39,1.39,0,0,0,.44-.21l.16,0V6l-.75.13A1,1,0,0,1,569.46,6Zm.41,95.48,0,.21-.07,0a.45.45,0,0,1-.17-.23Zm-.39,0c0,.4-.47.32-.79.45,0,0,0,0,0,.05l-.82.12A.31.31,0,0,0,568,102l-.3-.16a.81.81,0,0,0,.39-.28Zm-1.94,0H568a.51.51,0,0,1-.4.28,1.26,1.26,0,0,1-.16-.07Zm-4,0h3.35c0,.43-.74.07-.48.77a1.17,1.17,0,0,0-.79-.26h-.06a1.37,1.37,0,0,1-.57-.19v0s-.05,0-.06,0,0,0,.06.07,0,.13.1.14c0,.17-.14.3-.32.44h-.06c-.18-.17,0-.44-.15-.54l-.53.07.46.07-.1.43h-.15a1,1,0,0,0,.12-.42c-.19-.2-.25.72-.62.06v.35l-.14,0-.43,0A3.41,3.41,0,0,0,563.52,101.53Zm3.07.43h0v0Zm-2.09,4.7c-.16.18-.55.06-.75.23h0a.56.56,0,0,0-.05-.08A4.66,4.66,0,0,1,564.5,106.66ZM561.29,102l.19-.14-.17,0,0-.11.25-.2c.17.2.45,0,.54.27-.06-.08-.13-.08-.19.16s.14.14.25.14c0,.16,0,.28-.24.24s0-.1-.06-.15a1.7,1.7,0,0,0,0,.22h-.72Zm-3,.4.2,0s0,0,0,0l-.23,0a0,0,0,0,0,0,0Zm-1.17-.14.65.09a.65.65,0,0,1,.12.11.19.19,0,0,0-.07.11l-.39.05c0-.19-.08-.3-.32,0A.61.61,0,0,1,557.14,102.26Zm-1.42.16c.32-.1.71.06.89,0a1,1,0,0,1,.3.32l-1.29.16A1.43,1.43,0,0,0,555.72,102.42Zm-.77.5-1-.3h-.42a2.52,2.52,0,0,1,.1-.64.32.32,0,0,0,.1.1c-.08.06-.1.12,0,.19l.27,0c.16.1.26.19.09.37l-.23,0,.11,0h.13c.2-.13.53-.19.28-.41a3.38,3.38,0,0,0,.7-.13l0,0c0,.23.23.31.31.77l-1.79.23-.23,0a1.27,1.27,0,0,1-.1-.12A7.63,7.63,0,0,0,555,102.92Zm-1.75-.7a1.46,1.46,0,0,0,.12.39l-.2,0a.54.54,0,0,0,0-.11,3,3,0,0,1-.16-.48C553.13,101.82,553.16,102,553.2,102.22Zm-.36,8.47s0,0,0,0h0Zm4.82-2.16,2.93.32c-1.1.32-5,1-5.15,1.06a20.24,20.24,0,0,0-2.27-.24q-.69-.17-1.2-.33l2-.44.82.41,1.32-.54c-.88-.1-2.32-.26-3.5-.46,2.44-.26,4.86-.65,6.91-1l.55.16v.09a1.1,1.1,0,0,0,.26,0l.89.26c.51,0,.92,0,1.24,0-.19.18-1.78.27-1.54.54.36-.57,3.22-.17,3.18.1C562.58,108.49,558.86,108.63,557.66,108.53Zm8-1.23c-.49,0-1,0-1.46,0a10.24,10.24,0,0,1,1.62-.43l-.24.36Zm4,.33c-.87-.11-2.08-.24-3.38-.3a3.5,3.5,0,0,0,.23-.63l.7.07-.28,0,.75.23a3.69,3.69,0,0,1,.69,0l-.18.4.1-.08.1-.32a5.42,5.42,0,0,1,1.69.31C569.26,107.28,569.46,107.44,569.74,107.63Zm.31-6.12.51,0-.38.12A.3.3,0,0,1,570.05,101.51Zm.21,6.66,1.92-.17s0,0,0,0a2.67,2.67,0,0,1-1.89.27Zm.61,2.35c.82,0,1.63.08,2.42.16A10.63,10.63,0,0,1,570.87,110.52Zm2.47.15c-.19-.07-.52-.2-.42-.29l1.37.27Zm6.45-.49c-2.36-.3.16-.36-1-.72-1.86.66-2.28-.8-4.25,0-2.31,0-1.57-.46-2.3-.73a3.89,3.89,0,0,0,.66,0c1.18.2,3.07.41,4,.59l-1.78-.43c1.15,0,2.41.09,3.7.2-.41.07-.81.14-1.21.23a5.57,5.57,0,0,0,2.13-.14l2.73.26C582.3,109.77,581.86,110,579.79,110.18Zm3.19-2.35h-.13a.1.1,0,0,1,0-.09l.4,0Zm8.53-3.76,1.29-.16c0,.12,0,.27-.39.25Zm1.13,1.65c-.13-.13,0-.18.19-.2Zm1.26-1.29c-.75-.2-.17-.27.32-.31Zm.47-.47-.7-.17,1-.12Zm-200,8.3h0l.44-.1h-.46Zm0-.1,0-.44h0Zm0-.44h0l.05.44Zm0,.44h0v.1h0l.44-.1Zm0,0h0v.1h0l.44-.1Zm0-.44h0l.05.44Zm0,0h0l.05.44Zm0,.44h0v.1h0l.44-.1Z"/><path class="cls-1" d="M590.19,2.78a1.68,1.68,0,0,0,.2-.35C590.11,2.63,590.12,2.72,590.19,2.78Z"/><path class="cls-1" d="M592,4.34l.09-.08-.08,0A.21.21,0,0,1,592,4.34Z"/><path class="cls-1" d="M592.15,1.73a4.1,4.1,0,0,1,.5-.14c-.45-.08-1.44-.07-1.63.31.2-.27.9,0,1.17-.27Z"/><path class="cls-1" d="M3.94,36.69a.54.54,0,0,0-.11.13Z"/><path class="cls-1" d="M5.91,34c.18-.36,0-.21-.06,0C6,33.8,5.86,34,5.91,34Z"/><path class="cls-1" d="M8.14,32.52l0-.27C8.1,32.38,8.09,32.45,8.14,32.52Z"/><path class="cls-1" d="M3.76,36.93l.06-.11-.07.1c.19-.28-.15.2,0,0C3.54,37.2,3.7,37,3.76,36.93Z"/><path class="cls-1" d="M226.49,81a2,2,0,0,0,1,0C227.46,80.62,226.82,80.89,226.49,81Z"/><path class="cls-1" d="M566.83,8.13a1.45,1.45,0,0,0-.34-.07C566.68,8.16,566.76,8.17,566.83,8.13Z"/><path class="cls-1" d="M567.12,7.23l.23-.11-.05,0Z"/><path class="cls-1" d="M567.3,7.12c-.18.06-.13,0,0,0l.12-.06Z"/><path class="cls-1" d="M567.65,7l-.23.09.08,0Z"/><path class="cls-1" d="M14,30.11a.79.79,0,0,0-.26-.09A.23.23,0,0,0,14,30.11Z"/><path class="cls-1" d="M20.71,32l.22-.19C20.8,31.89,20.74,31.92,20.71,32Z"/><path class="cls-1" d="M38.58,32.09a.83.83,0,0,0-.25-.16C38.42,32.09,38.5,32.11,38.58,32.09Z"/><path class="cls-1" d="M45.32,33.91l.2-.16C45.4,33.81,45.34,33.84,45.32,33.91Z"/><polygon class="cls-1" points="365.15 102.8 367.36 102.52 364.68 102.69 365.15 102.8"/><path class="cls-1" d="M239.49,113.83a15,15,0,0,0,2.31-.52Z"/><path class="cls-1" d="M241.8,113.31l1.72-.39-.87-.06A1.74,1.74,0,0,1,241.8,113.31Z"/><path class="cls-1" d="M344.42,103.37a2,2,0,0,0-.28.12C344.39,103.46,344.51,103.4,344.42,103.37Z"/><path class="cls-1" d="M468,105.68a1.61,1.61,0,0,0-.57-.08C467.52,105.71,467.73,105.72,468,105.68Z"/><path class="cls-1" d="M316.83,114.16a.29.29,0,0,1-.08,0C316.81,114.19,316.81,114.17,316.83,114.16Z"/><path class="cls-1" d="M316.84,114.1s0,0,0,.06S316.86,114.12,316.84,114.1Z"/><path class="cls-1" d="M386.26,109.66a3.79,3.79,0,0,0-.58-.16C385.55,109.56,385.69,109.61,386.26,109.66Z"/><path class="cls-1" d="M372.52,109.43l-.26-.05Z"/><path class="cls-1" d="M316.75,114.2a4.19,4.19,0,0,1-.67.21A3.32,3.32,0,0,0,316.75,114.2Z"/><polygon class="cls-1" points="384.42 102.09 384.42 102.09 384.42 102.09 384.42 102.09"/><path class="cls-1" d="M355.74,109.31a.47.47,0,0,0,.06-.09C355.72,109.25,355.72,109.28,355.74,109.31Z"/><polygon class="cls-1" points="501.62 105.54 502.68 105.19 499.43 105.56 501.62 105.54"/><path class="cls-1" d="M464.81,106.19l.21.1A.49.49,0,0,0,464.81,106.19Z"/><path class="cls-1" d="M391,109.94c-5.95-.2.48.59-3.89.71,2.56,0,3.84.54,3.59.72C393.34,110.82,386.41,110.51,391,109.94Z"/><path class="cls-1" d="M387.1,110.65l-1.22,0C386.32,110.65,386.72,110.65,387.1,110.65Z"/><path class="cls-1" d="M350.35,109.2a8.24,8.24,0,0,0-.89.18C349.84,109.32,350.11,109.26,350.35,109.2Z"/><path class="cls-1" d="M357,108.8a26,26,0,0,0,3.5-.22C360,108.47,356.79,108.48,357,108.8Z"/><path class="cls-1" d="M322.11,113.56l-3.75.13c1,.49,1,0,3.22,0l-2.39.56C321.13,114.3,322.62,113.67,322.11,113.56Z"/><path class="cls-1" d="M19.21,121.19c-4,0-4.23.37-4.68.66s-1.11.58-5.93.38c1.41,0,1.29-.14,1.49-.23a51.92,51.92,0,0,0-6.59-.2l.41-.18-3.17-.15v-.26a11.58,11.58,0,0,0,3.65,0l-3.65-.29L0,120.83H.74c2.21,0,4.43,0,6.63-.11-2.91.19-.21.78,2.36.51.54-.73.61-.25,4.59-.55-.73.13,1,.46,2.92.43A19.37,19.37,0,0,0,19.21,121.19Z"/><path class="cls-1" d="M25.42,122.62l3.36-.78,5.64.06c.06-.26,4.15-.58,1.37-.74-.54.06-1.61.16-2.48.16.3-.29,2.17-.41,3.76-.52s2.87-.27,2-.52c-4.44.33-5.13.18-7.85.72a86.17,86.17,0,0,1-9-.29c-1.21.09-1.38.44-2.92.49h1l.16.85a33.49,33.49,0,0,1,3.93-.12c-2.2.35-4.4.68-6.61,1,2.13.87,8.64.33,11.24.65C25.91,122.85,31.7,123.17,25.42,122.62Z"/><path class="cls-1" d="M258.37,103.47l.82,0Z"/><path class="cls-1" d="M70.76,119.77l-1,0A7.21,7.21,0,0,0,70.76,119.77Z"/><path class="cls-1" d="M45.54,114.17l-2.72.26A23.75,23.75,0,0,0,45.54,114.17Z"/><path class="cls-1" d="M46,114.12h-.17l-.33.06Z"/><path class="cls-1" d="M54.54,118.79l.15,0,.06-.1Z"/><path class="cls-1" d="M48.51,120.43l-2.21.22C47.12,120.6,47.92,120.52,48.51,120.43Z"/><path class="cls-1" d="M44.5,120.6c-.39.22-10,1.1-1.9.83-.28.64-5.2.56-7.36.74,1.58.1-.77.42-.29.64,1.08-.12,2.35-.3,4.13-.35.83.25-1.86.57-4,.5,2.62.27-3.29.59.41.75,3.94-.2,7.29-.54,10.34-.86a85.7,85.7,0,0,0,8.53-1.5,111.33,111.33,0,0,1-13.14.85l1.52-.61c4.17.31,6.7-.27,10.78-.48-3.06.1-6.11.25-9.17.29-4.31-.26-1.44-.49,1.93-.75A7.39,7.39,0,0,1,44.5,120.6Z"/><path class="cls-1" d="M50.33,115.46h-.15a2.25,2.25,0,0,0-.38.08Z"/><path class="cls-1" d="M55.91,117.7h0C56,117.69,56,117.69,55.91,117.7Z"/><path class="cls-1" d="M142.55,111.59a.26.26,0,0,0,.13.07C143.09,111.63,142.89,111.6,142.55,111.59Z"/><path class="cls-1" d="M24.93,107.2l-.23.1.57-.08Z"/><path class="cls-1" d="M11.29,108.24a7,7,0,0,0-1.49.24A7.65,7.65,0,0,0,11.29,108.24Z"/><path class="cls-1" d="M55.26,111.5h0Z"/><path class="cls-1" d="M67.76,119.72l-.27.06Z"/><path class="cls-1" d="M48.14,119.69c-.1-.42,5.64-.44,3.78-.79C50.66,119.16,47.5,119.34,48.14,119.69Z"/><path class="cls-1" d="M47.13,119.06l3.42-.32H48.12C47.93,118.83,48,119,47.13,119.06Z"/><path class="cls-1" d="M47.13,119.06l-.48,0Z"/><path class="cls-1" d="M31.92,116.6a46,46,0,0,0,6.88.2c2.72-.1,5.15-.35,5.21-.75a31.17,31.17,0,0,1-6.38.76c-1.22-1,5.13-.52,6.5-1.56a41.41,41.41,0,0,0-6.48.68A43.81,43.81,0,0,1,31.92,116.6Z"/><path class="cls-1" d="M46.49,114.61c-1.06.15-2.12.26-3.17.39l.31,0c1.06-.13,2.12-.25,3.18-.4Z"/><path class="cls-1" d="M482.59,116.07l-3,.29Z"/><path class="cls-1" d="M489.64,115.38l-1.89.19Z"/><path class="cls-1" d="M485.15,115.82l-2.56.25Z"/><path class="cls-1" d="M487.75,115.57l-2.6.25Z"/><path class="cls-1" d="M6.54,108.31a15.14,15.14,0,0,0-3.77.13A37.54,37.54,0,0,0,6.54,108.31Z"/><path class="cls-1" d="M.74,107.4v-.05C.86,107.35.88,107.36.74,107.4Z"/><path class="cls-1" d="M.74,107.77v-.23h.65C1.64,107.65,1.37,107.72.74,107.77Z"/><path class="cls-1" d="M49.31,114.43l-1.77.07C48.28,114.49,48.82,114.46,49.31,114.43Z"/><path class="cls-1" d="M372.33,120.51c1.15.08,2.35.14,3.72.16Z"/><path class="cls-1" d="M273.72,113l-6.48-.3c2.2.39-1.68.29-2.08.48l7.93.4C273.07,113.4,273.87,113.22,273.72,113Z"/><path class="cls-1" d="M403.57,119.18l1.76,0C404.52,119.15,404,119.16,403.57,119.18Z"/><path class="cls-1" d="M424.59,119.15c-5.64.23-13.87-.06-15.3.53.08-.1,0-.21-.83-.25-1.16.22-2.32.42-3.49.61,1.12.07,2.23.14,3.34.18-3.51.62-14.88.46-16.92,0,6.46-.06,3.22-.87,12.21-.42-.41-.19-2.05-.52,0-.61-10.52.24-19.95-.36-30.84-.23,8.53,1-5.63.24-3,1.1l4.67,0-.4.19,5.69.17c-1.16-.39-2-.45-1.76-.81,7.59.42,2.38.52,7.94,1.17l8.51.12-.69.1a5.06,5.06,0,0,0,1.29-.09c9.57,0,19.13-.11,28.66-.5C428.86,119.92,420.76,119.8,424.59,119.15Z"/><path class="cls-1" d="M478,115.92l-.08.07C478.05,115.94,478.11,115.91,478,115.92Z"/><path class="cls-1" d="M473.32,116.52l1.12-.43-5,1.1,7.93-.66.54-.54A20.83,20.83,0,0,1,473.32,116.52Z"/><path class="cls-1" d="M463.87,116.86l-.35,1.18c4.09-.49,3.82-1.06,1.57-1.18,3.74-.53,2,.49,4.58-.32C469.55,116.12,464.93,116.72,463.87,116.86Z"/><polygon class="cls-1" points="433.17 119.44 434.32 119.15 431.46 119.21 433.17 119.44"/><path class="cls-1" d="M434.32,119.15l2.83-.06a1.68,1.68,0,0,0-.87-.45Z"/><path class="cls-1" d="M448.72,118.75l-4.14.15C445.78,118.87,447.11,118.83,448.72,118.75Z"/><path class="cls-1" d="M441.34,118.92l.1.07,3.14-.09C443.43,118.92,442.39,118.93,441.34,118.92Z"/><path class="cls-1" d="M442.28,119.59l-.84-.6-4.29.1C437.63,119.48,438.19,119.89,442.28,119.59Z"/><path class="cls-1" d="M387.79,112.19l-4.8,0a4.76,4.76,0,0,1,2,.43C385.3,112.52,388.47,112.45,387.79,112.19Z"/><path class="cls-1" d="M380.89,112.22H383C382.47,112.18,381.82,112.18,380.89,112.22Z"/><path class="cls-1" d="M385.19,112.74l-.23-.1C384.89,112.67,384.9,112.7,385.19,112.74Z"/><path class="cls-1" d="M459.47,118.26c-.88,0-2.11,0-3.16.19C456.26,118.71,458.4,118.41,459.47,118.26Z"/><path class="cls-1" d="M196.65,121l.87-.25h0l-.87.16S196.6,121,196.65,121Z"/><path class="cls-1" d="M147,124.7a2.26,2.26,0,0,0,.39.18A2.08,2.08,0,0,0,147,124.7Z"/><path class="cls-1" d="M181.49,122.07a1.76,1.76,0,0,0,.59.07Z"/><path class="cls-1" d="M170.92,122.74l-.67,0,.64,0S170.91,122.76,170.92,122.74Z"/><path class="cls-1" d="M121.82,123.52l.73-.11A3.32,3.32,0,0,0,121.82,123.52Z"/><path class="cls-1" d="M159.68,122l1.54-.14A8.62,8.62,0,0,0,159.68,122Z"/><path class="cls-1" d="M240.24,117.08a5.77,5.77,0,0,1,.86-.29C240.53,116.91,240,117,240.24,117.08Z"/><path class="cls-1" d="M250.18,115.53l.1,0,.23,0Z"/><path class="cls-1" d="M246.91,112.84Z"/><path class="cls-1" d="M144.41,122.91c.25,0,.13,0-.08-.07A.14.14,0,0,0,144.41,122.91Z"/><polygon class="cls-1" points="206.13 122.17 206.09 121.29 206.09 121.29 206.12 122.17 206.13 122.17"/><path class="cls-1" d="M204.72,121.94c-.83.24.29.29,1.31.35v-.13Z"/><path class="cls-1" d="M206.12,122.17l0-.88H206l0,.86Z"/><path class="cls-1" d="M206.13,122.3H206v0a.33.33,0,0,1,.1,0Z"/><path class="cls-1" d="M86.75,123.65l0,.65h0l0-.65Z"/><polygon class="cls-1" points="206.13 122.3 206.13 122.3 206.12 122.17 206.12 122.17 206.13 122.3"/><path class="cls-1" d="M86.73,124.29v.17l.08,0v-.15Z"/><path class="cls-1" d="M149.27,120.79a1,1,0,0,0,.17.1S149.38,120.83,149.27,120.79Z"/><path class="cls-1" d="M148.37,121.4c1.72-.18,1.4-.34,1.07-.51.1.14-.61.21-1.16.27h0c-.5,0-.88.08-1.23.13l.6,0C147.62,121.29,147.78,121.33,148.37,121.4Z"/><path class="cls-1" d="M91.21,124.94c-2.74,0-2.28.64-3.92.88,3.09-.24,3.73-.12,7.43-.46C91.83,125.35,91.08,125.31,91.21,124.94Z"/><path class="cls-1" d="M87.29,125.82l-.48.05h0Z"/><path class="cls-1" d="M99,125.32a9.9,9.9,0,0,1-1.82,0C97.05,125.66,99.54,125.32,99,125.32Z"/><polygon class="cls-1" points="92.34 118.45 90.38 118.8 92.76 118.55 92.34 118.45"/><path class="cls-1" d="M138.85,123.69l-1.43.29,1.79,0C138.7,123.93,139.61,123.43,138.85,123.69Z"/><path class="cls-1" d="M139.56,124h-.35A1.24,1.24,0,0,0,139.56,124Z"/><polygon class="cls-1" points="146.58 122.7 149.17 122.62 148.96 122.56 146.58 122.7"/><path class="cls-1" d="M143.11,124.5a10.54,10.54,0,0,0,2.11.11C145.06,124.27,144,124.56,143.11,124.5Z"/><path class="cls-1" d="M577.93,114.58l-.53-.14A3,3,0,0,0,577.93,114.58Z"/><path class="cls-1" d="M590.39,116h.05l.25,0Z"/><path class="cls-1" d="M569.54,110.93h.08l0-.1Z"/><path class="cls-1" d="M566,111.71l-1.21-.09A6.83,6.83,0,0,0,566,111.71Z"/><path class="cls-1" d="M547.63,110.65a.88.88,0,0,0-.43-.12C547.26,110.64,547.41,110.67,547.63,110.65Z"/><path class="cls-1" d="M562.72,112c-.25.6-2.86-.08-4.06-.08.84.26-.47.34-.24.6a10.73,10.73,0,0,1,2.26.08c.41.35-1.08.35-2.21.09,1.37.52-1.85.26.11.78,4.29.33,7.32.5,10.44,0a42.56,42.56,0,0,1-7.15-.86l.91-.43c2.19.77,3.62.6,5.83.94l-4.93-.94c-2.27-.75-.7-.65,1.15-.51a2.25,2.25,0,0,1-1-.26C563.63,111.53,558.33,111.28,562.72,112Z"/><path class="cls-1" d="M567.84,107.07l-.08,0a1.17,1.17,0,0,0-.22,0Z"/><path class="cls-1" d="M501.84,106.64l.13-.09-.32,0Z"/><path class="cls-1" d="M576.79,106.86c-.3,0-.6-.06-.9-.07l-.17.06A4.18,4.18,0,0,0,576.79,106.86Z"/><path class="cls-1" d="M509.39,106.19a2.49,2.49,0,0,0,.83-.17A2.58,2.58,0,0,0,509.39,106.19Z"/><polygon class="cls-1" points="393.77 105.96 393.77 105.93 393.77 105.93 393.77 105.96 393.77 105.96"/><polygon class="cls-1" points="393.77 105.96 393.77 105.93 393.77 105.93 393.77 105.96 393.77 105.96"/><path class="cls-1" d="M557.66,108.54l-.23,0Z"/><polygon class="cls-1" points="393.77 105.96 393.77 105.93 393.77 105.93 393.77 105.96 393.77 105.96"/><path class="cls-1" d="M576.37,114h0Z"/><path class="cls-1" d="M568.12,110.67c-.72.09-2.44-.17-2.15.26C566,110.5,569.06,111.27,568.12,110.67Z"/><path class="cls-1" d="M556.68,109.22l1.46-.2C557.85,109.06,555.85,108.82,556.68,109.22Z"/><path class="cls-1" d="M545.2,111l.15.11A.33.33,0,0,0,545.2,111Z"/><path class="cls-1" d="M544.35,111.5c1.56-.06,1.29-.24,1-.43C545.52,111.37,542.46,111.12,544.35,111.5Z"/><polygon class="cls-1" points="525.09 111.59 523.46 112.11 524.05 112.04 525.09 111.59"/><path class="cls-1" d="M488,105.32a12.83,12.83,0,0,0,2.59.28C489.62,105.52,488.86,104.81,488,105.32Z"/><path class="cls-1" d="M444.23,111l.57-.05A2.79,2.79,0,0,0,444.23,111Z"/><path class="cls-1" d="M429.43,111.08a12,12,0,0,0-1.29-.06Z"/><path class="cls-1" d="M477.08,115.14a18.53,18.53,0,0,0,2.05.09Z"/><path class="cls-1" d="M494.38,113.62l1,0A8.83,8.83,0,0,0,494.38,113.62Z"/><path class="cls-1" d="M506.05,113.92c-3.15.06-7.71-.29-8.52.27.05-.1,0-.21-.45-.27l-1.94.57,1.67.2-3.2.31,3.2-.31.18,0a17.29,17.29,0,0,1-3.88.34l.5,0-.5,0a24.11,24.11,0,0,1-5.5-.44c3.58-.1,1.8-.85,6.77-.38-.22-.19-1.13-.53,0-.61-5.84.14-11-.41-17.05-.05,4.7.8-3.12.36-1.67,1.17l2.58-.13-.23.2,3.15.07c-.63-.38-1.11-.42-1-.78,4.19.32,1.3.5,4.36,1.07l4.71.08-.38.1a2,2,0,0,0,.71-.09h1.27l-1.23.12,1.23-.12c2.23,0,4.46,0,6.68,0l8-.15C508.43,114.77,503.92,114.51,506.05,113.92Z"/><path class="cls-1" d="M535.56,112.35c.1,0,.13-.07,0-.07Z"/><path class="cls-1" d="M533.06,112.71l.61-.39-2.76.9,4.37-.35.28-.52A6.49,6.49,0,0,1,533.06,112.71Z"/><path class="cls-1" d="M531,112.58c-.08-.42-2.62,0-3.21.12l-.16,1.17c2.25-.36,2.09-.94.84-1.13C530.57,112.33,529.65,113.3,531,112.58Z"/><polygon class="cls-1" points="510.83 114.4 511.46 114.13 509.88 114.12 510.83 114.4"/><path class="cls-1" d="M512.55,113.67l-1.09.46H513A1.1,1.1,0,0,0,512.55,113.67Z"/><path class="cls-1" d="M519.47,114.11l-2.3,0C517.84,114.14,518.58,114.14,519.47,114.11Z"/><path class="cls-1" d="M515.43,114.14h1.74c-.64,0-1.22,0-1.8-.06Z"/><path class="cls-1" d="M515.9,114.76l-.47-.62H513C513.31,114.54,513.63,115,515.9,114.76Z"/><path class="cls-1" d="M523.68,114c0,.27,1.16,0,1.75-.07A10.58,10.58,0,0,0,523.68,114Z"/><path class="cls-1" d="M587.65,102.39h0s0,0,0-.06Z"/><path class="cls-1" d="M565.74,101.82a.43.43,0,0,0-.14.21A.4.4,0,0,0,565.74,101.82Z"/><path class="cls-1" d="M588.34,102.86c.57,0,.57-.93,1-1.1-.3-.39-1.25-.46-1.13.32.14-.35.22-.55.53-.57C589,102.51,588.3,101.89,588.34,102.86Z"/><path class="cls-1" d="M.6,36.86l.14,0v0Z"/><polygon class="cls-1" points="0 120.83 0.74 120.83 0.74 120.89 0 120.83"/></g></g></svg>